<svg height="675" viewBox="0 0 1122 675" width="1122" xmlns="http://www.w3.org/2000/svg"><g fill="none" transform="translate(-1)"><g transform="translate(612)"><path d="m.76.91.32 22c.63941211-.3742083 1.34035443-.6315591 2.07-.76l-.32-22c-.72888135.13126758-1.42934146.38844134-2.07.76" fill="#f142aa"/><path d="m2.83.15.32 22c.35046475-.0662812.70434452-.11302 1.06-.14l-.32-22c-.35597646.01805649-.71020998.06150023-1.06.13" fill="#f037a5"/><path d="m3.89 0 .32 22h.91l-.32-22c-.3 0-.61 0-.91 0" fill="#ef2ca0"/><path d="m4.8 0 .32 22c.28666667 0 .57666667.03.87.09l-.32-22c-.28826786-.04487538-.57865038-.07491496-.87-.09" fill="#ee219b"/><path d="m5.67.09.32 22c.31748012.0454199.63152866.1122388.94.2l-.33-22c-.30625759-.08301436-.6166911-.14977425-.93-.2" fill="#ee1696"/><path d="m6.6.29.33 22c.42403538.1162349.83336777.2806389 1.22.49l-.32-22c-.38892374-.21442957-.80177369-.38225475-1.23-.5" fill="#ed0b91"/></g><path d="m619.83.79 152.6 84.59.32 22-152.6-84.58z" fill="#ed0b91"/><path d="m616.35 2.9 152.6 84.59.32 22-152.6-84.58z" fill="#ec008c"/><path d="m768.94 87.49.32 22-152.6-84.58-.32-22.01z" fill="#ed0b91"/><path d="m772.43 85.38.32 22c.82914.345232 1.409373 1.108698 1.52 2l-.32-22c-.110627-.8913022-.69086-1.6547677-1.52-2" fill="#ed0b91"/><g transform="translate(772 87)"><path d="m2 .41.32 22c.01474074.139612.01474074.280388 0 .42l-.32-22c.03143509-.14122819.04819076-.28532695.05-.43" fill="#ee219b"/><path d="m1.9.84.32 22c-.04126956.1788962-.10865916.3507396-.2.51l-.32-22c.08804134-.16082285.15524837-.33220079.2-.51" fill="#ef2ca0"/><path d="m1.7 1.35.32 22c-.11919067.2097071-.26731084.40159-.44.57l-.33-22c.17410817-.16965949.32538021-.36127074.45-.57" fill="#f037a5"/><path d="m1.25 1.92.33 22c-.22038547.2148159-.46542349.4027903-.73.56l-.32-22c.25891215-.15715434.50028338-.34153515.72-.55" fill="#f142aa"/></g><g transform="translate(961 193)"><path d="m0 .92.32 22c.64424916-.3715341 1.34798462-.6286682 2.08-.76l-.33-22c-.72964557.12844088-1.43058789.38579168-2.07.76" fill="#f142aa"/><path d="m2 .16.33 22c.35044861-.0642769.70440492-.1076867 1.06-.13l-.32-22c-.35903557.02631244-.71628086.07305482-1.07.14" fill="#f037a5"/><path d="m3.09 0 .32 22h.9l-.31-22c-.3 0-.6 0-.9 0" fill="#ef2ca0"/><path d="m4 0 .32 22c.29124071.0107997.5816737.0375061.87.08l-.32-22c-.28838787-.04197702-.57879301-.06868094-.87-.08" fill="#ee219b"/><path d="m4.86.1.32 22c.31660709.0502265.63036933.1169844.94.2l-.32-22c-.30847134-.08776122-.62251988-.15458006-.94-.2" fill="#ee1696"/><path d="m5.8.3.32 22c.42699732.1213409.83944796.2890037 1.23.5l-.32-22c-.39090681-.20769379-.80335979-.37200433-1.23-.49" fill="#ed0b91"/></g><path d="m1117.46 302.5-610.35 369.09-152.6-84.59 244.14-147.63-195.59-108.42-244.14 147.63-152.6-84.58 610.35-369.09 152.6 84.58-229.49 138.78 195.59 108.42 229.49-138.78z" fill="#fff"/><path d="m539.46 226.26 229.48-138.77.32 22-229.48 138.78z" fill="#f253b1"/><path d="m768.95 87.49.32 22-229.49 138.78-.32-22.01z" fill="#ec008c"/><path d="m772.53 89.47.32 22.01-226 136.67-.32-22.01z" fill="#f253b1"/><path d="m968.03 193.79 152.6 84.59.32 22.01-152.6-84.59z" fill="#ed0b91"/><path d="m964.54 195.91 152.6 84.58.32 22.01-152.6-84.59z" fill="#ec008c"/><path d="m1117.13 280.49.33 22.01-152.6-84.59-.33-22z" fill="#ed0b91"/><path d="m1120.63 278.38.32 22c.82394.349737 1.39928 1.111782 1.51 2l-.32-22c-.11072-.888218-.68606-1.650263-1.51-2" fill="#ed0b91"/><g transform="translate(1120 280)"><path d="m2.14.42.32 22c.01956526.1393164.01956526.2806836 0 .42l-.32-22c.03628891-.13696084.05312067-.27834755.05-.42" fill="#ee219b"/><path d="m2.09.84.32 22c-.0402557.1792084-.1077033.3511998-.2.51l-.32-22c.08974339-.16002185.1570412-.33163126.2-.51" fill="#ef2ca0"/><path d="m1.89 1.35.32 22c-.11919067.2097071-.26731084.40159-.44.57l-.32-22c.17268916-.16840998.32080933-.36029294.44-.57" fill="#f037a5"/><path d="m1.45 1.92.32 22c-.22098396.2141235-.46593725.4020328-.73.56l-.32-22c.26628323-.15467594.51161965-.34287923.73-.56" fill="#f142aa"/></g><path d="m734.95 330.59 226-136.67.32 22.01-226 136.66z" fill="#f253b1"/><path d="m546.53 226.14 188.42 104.45.32 22-188.42-104.44z" fill="#ed0b91"/><path d="m735.05 334.68.32 22.01-195.59-108.42-.32-22.01z" fill="#ed0b91"/><path d="m964.53 195.91.33 22-229.49 138.78-.32-22.01z" fill="#f253b1"/><path d="m735.05 334.68 229.49-138.77.32 22-229.49 138.78z" fill="#ec008c"/><path d="m539.46 226.26 195.59 108.42.32 22.01-195.59-108.42z" fill="#ec008c"/><path d="m2.42 370 610.34-369.09.32 22.01-610.34 369.09z" fill="#f253b1"/><g transform="translate(0 370)"><path d="m1 2.06.32 22c-.01474074-.139612-.01474074-.280388 0-.42l-.32-22c-.01959535.1426636-.01959535.2873364 0 .43" fill="#ee219b"/><path d="m1.05 1.63.32 22c.04475163-.1777992.11195866-.3491771.2-.51l-.32-22c-.08804134.16082285-.15524837.33220079-.2.51" fill="#ef2ca0"/><path d="m1.25 1.12.32 22c.12417646-.2063447.2718262-.3976182.44-.57l-.32-22c-.17015206.16695615-.31804073.35517809-.44.56" fill="#f037a5"/><path d="m1.69.56.32 22c.22151936-.2106233.46645127-.3951611.73-.55l-.33-22c-.26150475.15724023-.50322753.34524684-.72.56" fill="#f142aa"/></g><path d="m616.34 2.9.32 22.01-610.34 369.09-.32-22.01z" fill="#f253b1"/><path d="m6 371.99 610.35-369.09.32 22.01-610.35 369.09z" fill="#ec008c"/><path d="m2.52 374.1.32 22c-.82913958-.345232-1.40937344-1.108698-1.52-2l-.32-22c.11653827.888883.69477391 1.64972 1.52 2" fill="#ed0b91"/><path d="m402.74 308.94 195.59 108.42.32 22.01-195.59-108.42z" fill="#ed0b91"/><path d="m598.33 417.36.32 22.01-195.59-108.42-.32-22.01z" fill="#ec008c"/><path d="m591.26 417.48.32 22.01-188.42-104.45-.32-22.01z" fill="#ed0b91"/><path d="m158.6 456.58 244.14-147.64.32 22.01-244.14 147.63z" fill="#f253b1"/><path d="m6 371.99 152.6 84.59.32 22-152.6-84.58z" fill="#ed0b91"/><path d="m402.74 308.94.32 22.01-244.14 147.63-.32-22z" fill="#ec008c"/><path d="m158.6 456.58.32 22-152.6-84.58-.32-22.01z" fill="#ec008c"/><path d="m402.84 313.03.32 22.01-240.65 145.53-.32-22.01z" fill="#f253b1"/><path d="m155.12 458.68.32 22.01-152.6-84.59-.33-22z" fill="#ed0b91"/><g transform="translate(155 458)"><path d="m7.19.56.32 22c-.64142795.3699162-1.34159479.6269823-2.07.76l-.33-22c.73276839-.1285344 1.43697869-.38584201 2.08-.76" fill="#f142aa"/><path d="m5.11 1.32.33 22c-.34979002.0684998-.70402354.1119435-1.06.13l-.32-22c.3524122-.02632852.70300084-.07307367 1.05-.14" fill="#f037a5"/><path d="m4.06 1.46.32 22c-.29966691.0199926-.60033309.0199926-.9 0l-.32-22z" fill="#ef2ca0"/><path d="m3.16 1.47.32 22c-.29124071-.0107997-.5816737-.0375061-.87-.08l-.33-22c.29156312.04532565.58529789.07536671.88.09" fill="#ee219b"/><path d="m2.28 1.38.33 22c-.31748012-.0454199-.63152866-.1122388-.94-.2l-.32-22c.30510631.08767758.61582357.15449849.93.2" fill="#ee1696"/><path d="m1.35 1.18.32 22c-.42759044-.1196119-.84022942-.2873513-1.23-.5l-.32-22c.38773771.21690674.80089498.38485684 1.23.5" fill="#ed0b91"/></g><path d="m350.61 563.01 240.65-145.53.32 22.01-240.65 145.52z" fill="#f253b1"/><g transform="translate(349 563)"><path d="m.19 2.06.32 22c.0017744-.1413738.01853477-.2821609.05-.42l-.32-22c-.03146523.13783914-.0482256.27862624-.05.42" fill="#ee219b"/><path d="m.24 1.64.32 22c.04475163-.1777992.11195866-.3491771.2-.51l-.32-22c-.08804134.16082285-.15524837.33220079-.2.51" fill="#ef2ca0"/><path d="m.44 1.13.32 22c.11955853-.2121695.27137086-.4044652.45-.57l-.33-22c-.1704214.17041723-.31829325.36197849-.44.57" fill="#f037a5"/><path d="m.88.56.33 22c.21733034-.2141173.45897419-.4020626.72-.56l-.32-22c-.26354873.15483891-.50848064.33937665-.73.55" fill="#f142aa"/></g><path d="m598.33 417.36.32 22.01-244.14 147.63-.32-22z" fill="#f253b1"/><path d="m354.19 565 244.14-147.64.32 22.01-244.14 147.63z" fill="#ec008c"/><path d="m350.71 567.1.32 22c-.826519-.348616-1.405411-1.110316-1.52-2l-.32-22c.110627.891302.69086 1.654768 1.52 2" fill="#ed0b91"/><path d="m354.19 565 152.6 84.58.33 22.01-152.61-84.59z" fill="#ed0b91"/><path d="m506.79 649.58 610.34-369.09.33 22.01-610.34 369.09z" fill="#f253b1"/><path d="m506.79 649.58.32 22.01-152.6-84.59-.32-22z" fill="#ec008c"/><path d="m1117.14 280.49.32 22.01-610.35 369.09-.32-22.01z" fill="#ec008c"/><path d="m1120.72 282.48.32 22.01-610.34 369.09-.32-22.01z" fill="#f253b1"/><path d="m503.31 651.69.32 22.01-152.6-84.59-.32-22.01z" fill="#ed0b91"/><path d="m1120.63 278.38c2 1.1 2 2.93.09 4.1l-610.34 369.09c-2.200885 1.172136-4.830604 1.216771-7.07.12l-152.6-84.59c-2-1.09-2-2.93-.1-4.09l240.65-145.53-188.42-104.48-240.65 145.56c-2.200885 1.172136-4.830604 1.216771-7.07.12l-152.6-84.58c-2-1.1-2-2.93-.11-4.1l610.35-369.09c2.202144-1.16726012 4.829511-1.21185475 7.07-.12l152.6 84.59c2 1.09 2 2.93.1 4.09l-226 136.67 188.47 104.45 226-136.67c2.204056-1.170582 4.834457-1.21888 7.08-.13zm-613.84 371.2 610.35-369.09-152.6-84.58-229.49 138.77-195.59-108.42 229.48-138.77-152.6-84.59-610.34 369.1 152.6 84.59 244.14-147.65 195.59 108.42-244.14 147.64 152.6 84.59z" fill="#f46cbd"/><g transform="translate(503 651)"><path d="m7.38.57.32 22c-.64142795.3699162-1.34159479.6269823-2.07.76l-.32-22c.72840521-.13301767 1.42857205-.39008375 2.07-.76" fill="#f142aa"/><path d="m5.31 1.33.32 22c-.35055156.0636014-.70446826.1070063-1.06.13l-.32-22c.35597646-.01805649.71020998-.06150023 1.06-.13" fill="#f037a5"/><path d="m4.25 1.46.32 22c-.3 0-.6 0-.9 0l-.32-22z" fill="#ef2ca0"/><path d="m3.35 1.47.32 22c-.29120699-.0113191-.58161213-.038023-.87-.08l-.32-22c.28838787.04197702.57879301.06868094.87.08" fill="#ee219b"/><path d="m2.48 1.39.32 22c-.31660709-.0502265-.63036933-.1169844-.94-.2l-.32-22c.30963067.08301561.62339291.14977354.94.2" fill="#ee1696"/><path d="m1.54 1.19.32 22c-.42608495-.1239782-.83826145-.2915296-1.23-.5l-.32-22c.38977058.21264872.80240956.38038814 1.23.5" fill="#ed0b91"/></g></g></svg>