<svg xmlns="http://www.w3.org/2000/svg" xmlns:xlink="http://www.w3.org/1999/xlink" viewBox="0 0 1117.94 722.16"><defs><clipPath id="clip-path"><path d="M589.88,1.13a9.31,9.31,0,0,1,8.48-.21l-.29,64.21a9.28,9.28,0,0,0-8.48.21Z" style="fill:none"/></clipPath><clipPath id="clip-path-2"><path d="M596.05,66.41a4.64,4.64,0,0,0-4.23.11l.29-64.21a4.61,4.61,0,0,1,4.23-.1C596.26,21.47,596.14,47.15,596.05,66.41Z" style="fill:none"/></clipPath><clipPath id="clip-path-3"><path d="M592.11,2.31a4.64,4.64,0,0,1,4.23-.1l-.29,64.2a4.64,4.64,0,0,0-4.23.11Z" style="fill:none"/></clipPath><clipPath id="clip-path-4"><path d="M754.77,151.58a1.58,1.58,0,0,0-1-1.3l.29-64.21a1.58,1.58,0,0,1,1,1.3C755,106.64,754.85,132.32,754.77,151.58Z" style="fill:none"/></clipPath><clipPath id="clip-path-5"><path d="M755.06,87.37l-.29,64.21a1.58,1.58,0,0,0-1-1.3l.29-64.21A1.58,1.58,0,0,1,755.06,87.37Z" style="fill:none"/></clipPath><clipPath id="clip-path-6"><path d="M757.76,151.6a3.11,3.11,0,0,0-2-2.61l.29-64.2a3.11,3.11,0,0,1,2,2.6C758,106.65,757.85,132.33,757.76,151.6Z" style="fill:none"/></clipPath><clipPath id="clip-path-7"><path d="M755.06,87.37l-.29,64.21a1.44,1.44,0,0,1-.78,1.17l.29-64.21A1.46,1.46,0,0,0,755.06,87.37Z" style="fill:none"/></clipPath><clipPath id="clip-path-8"><path d="M754.77,151.58a1.46,1.46,0,0,1-.78,1.17l.29-64.21a1.46,1.46,0,0,0,.78-1.17C755,106.64,754.85,132.32,754.77,151.58Z" style="fill:none"/></clipPath><clipPath id="clip-path-9"><path d="M758.05,87.39l-.29,64.21a2.88,2.88,0,0,1-1.55,2.33l.29-64.21A2.89,2.89,0,0,0,758.05,87.39Z" style="fill:none"/></clipPath><clipPath id="clip-path-10"><path d="M949.77,192.48a9.29,9.29,0,0,1,8.47-.21L958,256.48a9.29,9.29,0,0,0-8.47.21Z" style="fill:none"/></clipPath><clipPath id="clip-path-11"><path d="M955.94,257.77a4.63,4.63,0,0,0-4.23.11l.29-64.21a4.63,4.63,0,0,1,4.23-.11C956.14,212.82,956,238.51,955.94,257.77Z" style="fill:none"/></clipPath><clipPath id="clip-path-12"><path d="M952,193.67a4.63,4.63,0,0,1,4.23-.11l-.29,64.21a4.63,4.63,0,0,0-4.23.11Z" style="fill:none"/></clipPath><clipPath id="clip-path-13"><path d="M1114.65,342.94a1.56,1.56,0,0,0-1-1.3l.29-64.21a1.57,1.57,0,0,1,1,1.3C1114.85,298,1114.74,323.67,1114.65,342.94Z" style="fill:none"/></clipPath><clipPath id="clip-path-14"><path d="M1114.94,278.73l-.29,64.21a1.56,1.56,0,0,0-1-1.3l.29-64.21A1.56,1.56,0,0,1,1114.94,278.73Z" style="fill:none"/></clipPath><clipPath id="clip-path-15"><path d="M1117.65,343a3.13,3.13,0,0,0-2-2.6l.29-64.21a3.14,3.14,0,0,1,2,2.6C1117.85,298,1117.73,323.69,1117.65,343Z" style="fill:none"/></clipPath><clipPath id="clip-path-16"><path d="M1114.94,278.73l-.29,64.21a1.44,1.44,0,0,1-.78,1.16l.29-64.21A1.44,1.44,0,0,0,1114.94,278.73Z" style="fill:none"/></clipPath><clipPath id="clip-path-17"><path d="M1114.65,342.94a1.44,1.44,0,0,1-.78,1.16l.29-64.21a1.44,1.44,0,0,0,.78-1.16C1114.85,298,1114.74,323.67,1114.65,342.94Z" style="fill:none"/></clipPath><clipPath id="clip-path-18"><path d="M1117.94,278.74l-.29,64.21a2.9,2.9,0,0,1-1.56,2.33l.29-64.21A2.89,2.89,0,0,0,1117.94,278.74Z" style="fill:none"/></clipPath><clipPath id="clip-path-19"><path d="M.29,379.2a2.89,2.89,0,0,1,1.55-2.33l-.29,64.21A2.89,2.89,0,0,0,0,443.41C.09,424.15.2,398.46.29,379.2Z" style="fill:none"/></clipPath><clipPath id="clip-path-20"><path d="M3.78,442.26A1.45,1.45,0,0,0,3,443.43l.29-64.21a1.44,1.44,0,0,1,.78-1.16C4,397.32,3.87,423,3.78,442.26Z" style="fill:none"/></clipPath><clipPath id="clip-path-21"><path d="M3.29,379.22a1.44,1.44,0,0,1,.78-1.16l-.29,64.2A1.45,1.45,0,0,0,3,443.43C3.09,424.17,3.2,398.49,3.29,379.22Z" style="fill:none"/></clipPath><clipPath id="clip-path-22"><path d="M3,443.43l.29-64.21a1.56,1.56,0,0,0,1,1.3L4,444.73A1.57,1.57,0,0,1,3,443.43Z" style="fill:none"/></clipPath><clipPath id="clip-path-24"><path d="M0,443.41.29,379.2a3.13,3.13,0,0,0,2,2.61L2,446A3.14,3.14,0,0,1,0,443.41Z" style="fill:none"/></clipPath><clipPath id="clip-path-25"><path d="M162,464.39a4.66,4.66,0,0,0,4.24-.11L166,528.49a4.66,4.66,0,0,1-4.24.11Z" style="fill:none"/></clipPath><clipPath id="clip-path-26"><path d="M166.24,464.28,166,528.49a4.66,4.66,0,0,1-4.24.11l.29-64.21A4.66,4.66,0,0,0,166.24,464.28Z" style="fill:none"/></clipPath><clipPath id="clip-path-27"><path d="M168.46,465.46l-.29,64.21a9.26,9.26,0,0,1-8.47.21l.29-64.2A9.29,9.29,0,0,0,168.46,465.46Z" style="fill:none"/></clipPath><clipPath id="clip-path-28"><path d="M360.17,570.56a2.92,2.92,0,0,1,1.56-2.34l-.29,64.21a2.92,2.92,0,0,0-1.56,2.33C360,615.5,360.09,589.82,360.17,570.56Z" style="fill:none"/></clipPath><clipPath id="clip-path-29"><path d="M363.67,633.62a1.44,1.44,0,0,0-.78,1.16l.28-64.2a1.46,1.46,0,0,1,.78-1.17C363.87,588.67,363.75,614.35,363.67,633.62Z" style="fill:none"/></clipPath><clipPath id="clip-path-30"><path d="M363.17,570.58a1.46,1.46,0,0,1,.78-1.17l-.28,64.21a1.44,1.44,0,0,0-.78,1.16C363,615.52,363.09,589.84,363.17,570.58Z" style="fill:none"/></clipPath><clipPath id="clip-path-31"><path d="M362.89,634.78l.28-64.2a1.58,1.58,0,0,0,1,1.3l-.29,64.21A1.54,1.54,0,0,1,362.89,634.78Z" style="fill:none"/></clipPath><clipPath id="clip-path-33"><path d="M359.88,634.76l.29-64.2a3.13,3.13,0,0,0,2,2.6l-.29,64.21A3.13,3.13,0,0,1,359.88,634.76Z" style="fill:none"/></clipPath><clipPath id="clip-path-34"><path d="M521.89,655.74a4.61,4.61,0,0,0,4.23-.1l-.29,64.2a4.64,4.64,0,0,1-4.23.11Z" style="fill:none"/></clipPath><clipPath id="clip-path-35"><path d="M526.12,655.64l-.29,64.2a4.64,4.64,0,0,1-4.23.11l.29-64.21A4.61,4.61,0,0,0,526.12,655.64Z" style="fill:none"/></clipPath><clipPath id="clip-path-36"><path d="M528.34,656.81,528.05,721a9.29,9.29,0,0,1-8.47.22l.29-64.21A9.26,9.26,0,0,0,528.34,656.81Z" style="fill:none"/></clipPath></defs><title>Asset 11</title><g style="isolation:isolate"><g id="Layer_2" data-name="Layer 2"><g id="Layer_1-2" data-name="Layer 1"><g style="mix-blend-mode:color-dodge"><g style="isolation:isolate"><g style="isolation:isolate"><g style="clip-path:url(#clip-path)"><g style="isolation:isolate"><path d="M589.88,1.13l-.29,64.21.28-.17L590.16,1l-.28.16" style="fill:#e5e5e5"/><path d="M590.16,1l-.29,64.2a7.29,7.29,0,0,1,1.64-.65L591.8.32a6.45,6.45,0,0,0-1.64.65" style="fill:#e9e9e9"/><path d="M591.8.32l-.29,64.2a9,9,0,0,1,1.89-.29L593.69,0a9,9,0,0,0-1.89.3" style="fill:#e5e5e5"/><path d="M593.69,0l-.29,64.21a9.62,9.62,0,0,1,1.42,0L595.11,0a11.21,11.21,0,0,0-1.42,0" style="fill:#e1e1e1"/><path d="M595.11,0l-.29,64.21a9.2,9.2,0,0,1,1.5.24L596.61.27a9.2,9.2,0,0,0-1.5-.24" style="fill:#dcdcdc"/><path d="M596.61.27l-.29,64.21a7.44,7.44,0,0,1,1.75.65L598.36.92a7.44,7.44,0,0,0-1.75-.65" style="fill:#d8d8d8"/></g></g></g><path d="M1115.68,340.35c2.45,1.3,2.64,3.51.41,4.93L528.05,721a9.29,9.29,0,0,1-8.47.22L361.85,637.37c-2.45-1.3-2.64-3.51-.41-4.94L592.63,484.71,399.36,382,168.17,529.67a9.26,9.26,0,0,1-8.47.21L2,446c-2.45-1.31-2.64-3.52-.42-4.94l588-375.74a9.28,9.28,0,0,1,8.48-.21L755.8,149c2.45,1.31,2.63,3.52.41,4.94L539.14,292.63,732.41,395.39l217.07-138.7a9.29,9.29,0,0,1,8.47-.21ZM525.83,719.84l588-375.74c1.11-.71,1-1.81-.2-2.46L955.94,257.77a4.63,4.63,0,0,0-4.23.11l-219.09,140L534.9,292.74,754,152.75c1.11-.71,1-1.82-.21-2.47L596.05,66.41a4.64,4.64,0,0,0-4.23.11L3.78,442.26c-1.11.71-1,1.82.2,2.47L161.71,528.6a4.66,4.66,0,0,0,4.24-.11l233.2-149L596.87,484.61l-233.2,149c-1.12.71-1,1.81.2,2.47L521.6,720a4.64,4.64,0,0,0,4.23-.11" style="fill:#f3f3f3"/><g style="isolation:isolate"><g style="clip-path:url(#clip-path-2)"><g style="isolation:isolate"><path d="M596.34,2.21l-.29,64.2a3.73,3.73,0,0,0-.87-.32l.29-64.21a3.92,3.92,0,0,1,.87.33" style="fill:#d8d8d8"/><path d="M595.47,1.88l-.29,64.21a4.57,4.57,0,0,0-.74-.12l.29-64.21a4.57,4.57,0,0,1,.74.12" style="fill:#dcdcdc"/><path d="M594.73,1.76,594.44,66a5.63,5.63,0,0,0-.71,0L594,1.76a5.61,5.61,0,0,1,.71,0" style="fill:#e1e1e1"/><path d="M594,1.76,593.73,66a4.83,4.83,0,0,0-1,.15l.29-64.2a4.83,4.83,0,0,1,.95-.15" style="fill:#e5e5e5"/><path d="M593.07,1.91l-.29,64.2a3.35,3.35,0,0,0-.82.33l.29-64.21a3.34,3.34,0,0,1,.82-.32" style="fill:#e9e9e9"/><path d="M592.25,2.23,592,66.44l-.14.08.29-64.21.14-.08" style="fill:#e5e5e5"/></g></g></g><g style="isolation:isolate"><g style="clip-path:url(#clip-path-3)"><g style="isolation:isolate"><path d="M592.11,2.31l-.29,64.21.14-.08.29-64.21-.14.08" style="fill:#e5e5e5"/><path d="M592.25,2.23,592,66.44a3.35,3.35,0,0,1,.82-.33l.29-64.2a3.34,3.34,0,0,0-.82.32" style="fill:#e9e9e9"/><path d="M593.07,1.91l-.29,64.2a4.83,4.83,0,0,1,1-.15L594,1.76a4.83,4.83,0,0,0-.95.15" style="fill:#e5e5e5"/><path d="M594,1.76,593.73,66a5.63,5.63,0,0,1,.71,0l.29-64.21a5.61,5.61,0,0,0-.71,0" style="fill:#e1e1e1"/><path d="M594.73,1.76,594.44,66a4.57,4.57,0,0,1,.74.12l.29-64.21a4.57,4.57,0,0,0-.74-.12" style="fill:#dcdcdc"/><path d="M595.47,1.88l-.29,64.21a3.73,3.73,0,0,1,.87.32l.29-64.2a3.92,3.92,0,0,0-.87-.33" style="fill:#d8d8d8"/></g></g></g><polygon points="598.36 0.92 756.09 84.79 755.8 149 598.07 65.13 598.36 0.92" style="fill:#d7d7d7"/><polygon points="596.34 2.21 754.07 86.07 753.78 150.28 596.05 66.42 596.34 2.21" style="fill:#d7d7d7"/><polygon points="754.07 86.07 753.78 150.28 596.05 66.42 596.34 2.21 754.07 86.07" style="fill:#d7d7d7"/><polygon points="1111.66 342.92 523.61 718.66 365.88 634.8 601.1 484.5 398.94 377.01 163.73 527.31 6 443.44 594.04 67.7 751.77 151.57 530.67 292.85 732.82 400.34 953.93 259.06 1111.66 342.92" style="fill:#313131"/><path d="M1113.67,341.64c1.23.65,1.31,1.75.2,2.46l-588,375.74a4.64,4.64,0,0,1-4.23.11L363.87,636.09c-1.23-.66-1.32-1.76-.2-2.47l233.2-149L399.15,379.48,166,528.49a4.66,4.66,0,0,1-4.24.11L4,444.73c-1.22-.65-1.31-1.75-.2-2.47l588-375.74a4.64,4.64,0,0,1,4.23-.11l157.73,83.87c1.23.65,1.32,1.76.21,2.47l-219.09,140L732.62,397.87l219.09-140a4.63,4.63,0,0,1,4.23-.11Zm-590.06,377,588-375.74L953.92,259.06,732.82,400.34,530.67,292.85l221.1-141.28L594,67.7,6,443.44l157.73,83.87L398.94,377,601.1,484.5,365.88,634.8l157.73,83.86" style="fill:#f3f3f3"/><polygon points="594.33 3.5 752.06 87.36 751.77 151.57 594.04 67.7 594.33 3.5" style="fill:#2b2b2b"/><polygon points="752.06 87.36 751.77 151.57 594.04 67.7 594.33 3.49 752.06 87.36" style="fill:#d7d7d7"/><g style="isolation:isolate"><g style="clip-path:url(#clip-path-4)"><g style="isolation:isolate"><path d="M754.07,86.07l-.29,64.21a1.58,1.58,0,0,1,1,1.3l.29-64.21a1.58,1.58,0,0,0-1-1.3" style="fill:#d8d8d8"/></g></g></g><g style="isolation:isolate"><g style="clip-path:url(#clip-path-5)"><g style="isolation:isolate"><path d="M755.06,87.37l-.29,64.21a1.58,1.58,0,0,0-1-1.3l.29-64.21a1.58,1.58,0,0,1,1,1.3" style="fill:#d8d8d8"/></g></g></g><g style="isolation:isolate"><g style="clip-path:url(#clip-path-6)"><g style="isolation:isolate"><path d="M756.09,84.79,755.8,149a3.11,3.11,0,0,1,2,2.61l.29-64.21a3.11,3.11,0,0,0-2-2.6" style="fill:#d8d8d8"/></g></g></g><g style="isolation:isolate"><g style="clip-path:url(#clip-path-7)"><g style="isolation:isolate"><path d="M755.06,87.37l-.29,64.21a1.23,1.23,0,0,1,0,.2l.29-64.2a1.49,1.49,0,0,0,0-.21" style="fill:#dcdcdc"/><path d="M755,87.58l-.29,64.2a1.31,1.31,0,0,1-.19.44L754.85,88a1.62,1.62,0,0,0,.19-.43" style="fill:#e1e1e1"/><path d="M754.85,88l-.29,64.21a2,2,0,0,1-.57.53l.29-64.21a2,2,0,0,0,.57-.53" style="fill:#e5e5e5"/></g></g></g><g style="isolation:isolate"><g style="clip-path:url(#clip-path-8)"><g style="isolation:isolate"><path d="M754.28,88.54,754,152.75a2,2,0,0,0,.57-.53L754.85,88a2,2,0,0,1-.57.53" style="fill:#e5e5e5"/><path d="M754.85,88l-.29,64.21a1.31,1.31,0,0,0,.19-.44l.28-64.2a1.32,1.32,0,0,1-.18.43" style="fill:#e1e1e1"/><path d="M755,87.58l-.28,64.2a1.23,1.23,0,0,0,0-.2l.29-64.21a.76.76,0,0,1,0,.21" style="fill:#dcdcdc"/></g></g></g><g style="isolation:isolate"><g style="clip-path:url(#clip-path-9)"><g style="isolation:isolate"><path d="M758.05,87.39l-.29,64.21a1.81,1.81,0,0,1,0,.4L758,87.79a1.81,1.81,0,0,0,0-.4" style="fill:#dcdcdc"/><path d="M758,87.79,757.72,152a2.23,2.23,0,0,1-.38.87l.29-64.21a2.39,2.39,0,0,0,.38-.87" style="fill:#e1e1e1"/><path d="M757.63,88.66l-.29,64.21a3.75,3.75,0,0,1-1.13,1.06l.29-64.21a3.75,3.75,0,0,0,1.13-1.06" style="fill:#e5e5e5"/></g></g></g><g style="isolation:isolate"><g style="clip-path:url(#clip-path-10)"><g style="isolation:isolate"><path d="M949.77,192.48l-.29,64.21.27-.16.29-64.21-.27.16" style="fill:#e5e5e5"/><path d="M950,192.32l-.29,64.21a7,7,0,0,1,1.64-.65l.29-64.21a7,7,0,0,0-1.64.65" style="fill:#e9e9e9"/><path d="M951.68,191.67l-.29,64.21a9.67,9.67,0,0,1,1.9-.3l.29-64.21a9.67,9.67,0,0,0-1.9.3" style="fill:#e5e5e5"/><path d="M953.58,191.37l-.29,64.21a11.23,11.23,0,0,1,1.42,0l.29-64.2a9.64,9.64,0,0,0-1.42,0" style="fill:#e1e1e1"/><path d="M955,191.39l-.29,64.2a10.66,10.66,0,0,1,1.5.24l.29-64.21a10.64,10.64,0,0,0-1.5-.23" style="fill:#dcdcdc"/><path d="M956.5,191.62l-.29,64.21a7.53,7.53,0,0,1,1.74.65l.29-64.21a8,8,0,0,0-1.74-.65" style="fill:#d8d8d8"/></g></g></g><g style="isolation:isolate"><g style="clip-path:url(#clip-path-11)"><g style="isolation:isolate"><path d="M956.23,193.56l-.29,64.21a4.12,4.12,0,0,0-.87-.33l.29-64.2a3.62,3.62,0,0,1,.87.32" style="fill:#d8d8d8"/><path d="M955.36,193.24l-.29,64.2a5.88,5.88,0,0,0-.75-.11l.29-64.21a4.69,4.69,0,0,1,.75.12" style="fill:#dcdcdc"/><path d="M954.61,193.12l-.29,64.21a4.19,4.19,0,0,0-.71,0l.29-64.21a5.61,5.61,0,0,1,.71,0" style="fill:#e1e1e1"/><path d="M953.9,193.11l-.29,64.21a5.08,5.08,0,0,0-1,.15l.29-64.21a4.83,4.83,0,0,1,.95-.15" style="fill:#e5e5e5"/><path d="M953,193.26l-.29,64.21a4.24,4.24,0,0,0-.82.32l.29-64.2a3.7,3.7,0,0,1,.82-.33" style="fill:#e9e9e9"/><path d="M952.13,193.59l-.29,64.2-.13.09.29-64.21a.57.57,0,0,1,.13-.08" style="fill:#e5e5e5"/></g></g></g><g style="isolation:isolate"><g style="clip-path:url(#clip-path-12)"><g style="isolation:isolate"><path d="M952,193.67l-.29,64.21.13-.09.29-64.2a.57.57,0,0,0-.13.08" style="fill:#e5e5e5"/><path d="M952.13,193.59l-.29,64.2a4.24,4.24,0,0,1,.82-.32l.29-64.21a3.7,3.7,0,0,0-.82.33" style="fill:#e9e9e9"/><path d="M953,193.26l-.29,64.21a5.08,5.08,0,0,1,1-.15l.29-64.21a4.83,4.83,0,0,0-.95.15" style="fill:#e5e5e5"/><path d="M953.9,193.11l-.29,64.21a4.19,4.19,0,0,1,.71,0l.29-64.21a5.61,5.61,0,0,0-.71,0" style="fill:#e1e1e1"/><path d="M954.61,193.12l-.29,64.21a5.88,5.88,0,0,1,.75.11l.29-64.2a4.69,4.69,0,0,0-.75-.12" style="fill:#dcdcdc"/><path d="M955.36,193.24l-.29,64.2a4.12,4.12,0,0,1,.87.33l.29-64.21a3.62,3.62,0,0,0-.87-.32" style="fill:#d8d8d8"/></g></g></g><polygon points="530.95 228.64 752.06 87.36 751.77 151.57 530.67 292.85 530.95 228.64" style="fill:#ebebeb"/><polygon points="752.06 87.36 751.77 151.57 530.67 292.85 530.96 228.64 752.06 87.36" style="fill:#2f2f2f"/><polygon points="535.19 228.53 754.28 88.54 753.99 152.75 534.9 292.74 535.19 228.53" style="fill:#ebebeb"/><polygon points="754.28 88.54 753.99 152.75 534.9 292.74 535.19 228.53 754.28 88.54" style="fill:#ebebeb"/><polygon points="756.5 89.72 756.21 153.93 539.14 292.63 539.43 228.42 756.5 89.72" style="fill:#ebebeb"/><polygon points="958.24 192.27 1115.97 276.14 1115.68 340.35 957.95 256.48 958.24 192.27" style="fill:#d7d7d7"/><polygon points="1113.96 277.43 1113.67 341.63 955.94 257.77 956.23 193.56 1113.96 277.43" style="fill:#d7d7d7"/><polygon points="956.23 193.56 1113.96 277.43 1113.67 341.63 955.94 257.77 956.23 193.56" style="fill:#d7d7d7"/><polygon points="954.22 194.85 1111.94 278.71 1111.66 342.92 953.93 259.06 954.22 194.85" style="fill:#2b2b2b"/><polygon points="1111.94 278.71 1111.65 342.92 953.92 259.06 954.21 194.85 1111.94 278.71" style="fill:#d7d7d7"/><g style="isolation:isolate"><g style="clip-path:url(#clip-path-13)"><g style="isolation:isolate"><path d="M1114,277.43l-.29,64.21a1.56,1.56,0,0,1,1,1.3l.29-64.21a1.57,1.57,0,0,0-1-1.3" style="fill:#d8d8d8"/></g></g></g><g style="isolation:isolate"><g style="clip-path:url(#clip-path-14)"><g style="isolation:isolate"><path d="M1114.94,278.73l-.29,64.21a1.56,1.56,0,0,0-1-1.3l.29-64.21a1.56,1.56,0,0,1,1,1.3" style="fill:#d8d8d8"/></g></g></g><g style="isolation:isolate"><g style="clip-path:url(#clip-path-15)"><g style="isolation:isolate"><path d="M1116,276.14l-.29,64.21a3.13,3.13,0,0,1,2,2.6l.29-64.21a3.14,3.14,0,0,0-2-2.6" style="fill:#d8d8d8"/></g></g></g><g style="isolation:isolate"><g style="clip-path:url(#clip-path-16)"><g style="isolation:isolate"><path d="M1114.94,278.73l-.29,64.21a1.5,1.5,0,0,1,0,.2l.29-64.21a1.36,1.36,0,0,0,0-.2" style="fill:#dcdcdc"/><path d="M1114.92,278.93l-.29,64.21a1.09,1.09,0,0,1-.19.43l.29-64.21a1.09,1.09,0,0,0,.19-.43" style="fill:#e1e1e1"/><path d="M1114.73,279.36l-.29,64.21a2,2,0,0,1-.57.53l.29-64.21a2,2,0,0,0,.57-.53" style="fill:#e5e5e5"/></g></g></g><g style="isolation:isolate"><g style="clip-path:url(#clip-path-17)"><g style="isolation:isolate"><path d="M1114.16,279.89l-.29,64.21a2,2,0,0,0,.57-.53l.29-64.21a2,2,0,0,1-.57.53" style="fill:#e5e5e5"/><path d="M1114.73,279.36l-.29,64.21a1.09,1.09,0,0,0,.19-.43l.29-64.21a1.09,1.09,0,0,1-.19.43" style="fill:#e1e1e1"/><path d="M1114.92,278.93l-.29,64.21a1.5,1.5,0,0,0,0-.2l.29-64.21a1.36,1.36,0,0,1,0,.2" style="fill:#dcdcdc"/></g></g></g><g style="isolation:isolate"><g style="clip-path:url(#clip-path-18)"><g style="isolation:isolate"><path d="M1117.94,278.74l-.29,64.21a3,3,0,0,1,0,.41l.28-64.21a1.92,1.92,0,0,0,0-.41" style="fill:#dcdcdc"/><path d="M1117.89,279.15l-.28,64.21a2.61,2.61,0,0,1-.38.86l.29-64.21a2.39,2.39,0,0,0,.37-.86" style="fill:#e1e1e1"/><path d="M1117.52,280l-.29,64.21a3.92,3.92,0,0,1-1.14,1.06l.29-64.21a3.92,3.92,0,0,0,1.14-1.06" style="fill:#e5e5e5"/></g></g></g><polygon points="539.43 228.42 732.7 331.19 732.41 395.39 539.14 292.63 539.43 228.42" style="fill:#d7d7d7"/><polygon points="732.7 331.19 949.77 192.48 949.48 256.69 732.41 395.39 732.7 331.19" style="fill:#ebebeb"/><polygon points="535.19 228.53 732.91 333.66 732.62 397.87 534.9 292.74 535.19 228.53" style="fill:#d7d7d7"/><polygon points="732.91 333.66 732.62 397.87 534.9 292.74 535.19 228.53 732.91 333.66" style="fill:#d7d7d7"/><polygon points="732.91 333.66 952 193.67 951.71 257.88 732.62 397.87 732.91 333.66" style="fill:#ebebeb"/><polygon points="952 193.67 951.71 257.88 732.62 397.87 732.91 333.66 952 193.67" style="fill:#ebebeb"/><polygon points="733.11 336.13 732.82 400.33 530.67 292.85 530.95 228.64 733.11 336.13" style="fill:#d7d7d7"/><polygon points="954.21 194.85 953.92 259.06 732.82 400.33 733.11 336.13 954.21 194.85" style="fill:#ebebeb"/><polygon points="733.11 336.13 954.22 194.85 953.93 259.06 732.82 400.34 733.11 336.13" style="fill:#2f2f2f"/><polygon points="530.96 228.64 733.11 336.13 732.82 400.34 530.67 292.85 530.96 228.64" style="fill:#2b2b2b"/><polygon points="1.84 376.87 589.88 1.13 589.6 65.34 1.55 441.08 1.84 376.87" style="fill:#ebebeb"/><polygon points="592.11 2.31 591.82 66.52 3.78 442.26 4.07 378.06 592.11 2.31" style="fill:#ebebeb"/><polygon points="4.07 378.06 592.11 2.31 591.82 66.52 3.78 442.26 4.07 378.06" style="fill:#ebebeb"/><g style="isolation:isolate"><g style="clip-path:url(#clip-path-19)"><g style="isolation:isolate"><path d="M.29,379.2,0,443.41A1.9,1.9,0,0,1,0,443l.29-64.2a1.81,1.81,0,0,0,0,.4" style="fill:#dcdcdc"/><path d="M.33,378.8,0,443a2.42,2.42,0,0,1,.38-.86l.29-64.21a2.39,2.39,0,0,0-.38.87" style="fill:#e1e1e1"/><path d="M.71,377.93.42,442.14a3.87,3.87,0,0,1,1.13-1.06l.29-64.21a3.87,3.87,0,0,0-1.13,1.06" style="fill:#e5e5e5"/></g></g></g><polygon points="594.33 3.49 594.04 67.7 6 443.44 6.29 379.24 594.33 3.49" style="fill:#ebebeb"/><g style="isolation:isolate"><g style="clip-path:url(#clip-path-20)"><g style="isolation:isolate"><path d="M4.07,378.06l-.29,64.2a2,2,0,0,0-.57.53l.29-64.2a2,2,0,0,1,.57-.53" style="fill:#e5e5e5"/><path d="M3.5,378.59l-.29,64.2a1.31,1.31,0,0,0-.19.44L3.31,379a1.09,1.09,0,0,1,.19-.43" style="fill:#e1e1e1"/><path d="M3.31,379,3,443.23a1.36,1.36,0,0,0,0,.2l.29-64.21a1.5,1.5,0,0,1,0-.2" style="fill:#dcdcdc"/></g></g></g><g style="isolation:isolate"><g style="clip-path:url(#clip-path-21)"><g style="isolation:isolate"><path d="M3.29,379.22,3,443.43a1.36,1.36,0,0,1,0-.2L3.31,379a1.5,1.5,0,0,0,0,.2" style="fill:#dcdcdc"/><path d="M3.31,379,3,443.23a1.31,1.31,0,0,1,.19-.44l.29-64.2a1.09,1.09,0,0,0-.19.43" style="fill:#e1e1e1"/><path d="M3.5,378.59l-.29,64.2a2,2,0,0,1,.57-.53l.29-64.2a2,2,0,0,0-.57.53" style="fill:#e5e5e5"/></g></g></g><polygon points="6.29 379.24 594.33 3.5 594.04 67.7 6 443.44 6.29 379.24" style="fill:#2f2f2f"/><g style="isolation:isolate"><g style="clip-path:url(#clip-path-22)"><g style="isolation:isolate"><path d="M4.27,380.52,4,444.73a1.57,1.57,0,0,1-1-1.3l.29-64.21a1.56,1.56,0,0,0,1,1.3" style="fill:#d8d8d8"/></g></g></g><g style="isolation:isolate"><g style="clip-path:url(#clip-path-22)"><g style="isolation:isolate"><path d="M3.29,379.22,3,443.43a1.57,1.57,0,0,0,1,1.3l.29-64.21a1.56,1.56,0,0,1-1-1.3" style="fill:#d8d8d8"/></g></g></g><g style="isolation:isolate"><g style="clip-path:url(#clip-path-24)"><g style="isolation:isolate"><path d="M2.26,381.81,2,446a3.14,3.14,0,0,1-2-2.61L.29,379.2a3.13,3.13,0,0,0,2,2.61" style="fill:#d8d8d8"/></g></g></g><polygon points="399.23 312.81 601.39 420.29 601.1 484.5 398.94 377.01 399.23 312.81" style="fill:#d7d7d7"/><polygon points="601.39 420.3 601.1 484.5 398.94 377.01 399.23 312.81 601.39 420.3" style="fill:#2b2b2b"/><polygon points="399.44 315.27 597.16 420.4 596.87 484.61 399.15 379.48 399.44 315.27" style="fill:#d7d7d7"/><polygon points="597.16 420.4 596.87 484.61 399.15 379.48 399.44 315.27 597.16 420.4" style="fill:#d7d7d7"/><polygon points="592.91 420.5 592.63 484.71 399.36 381.95 399.64 317.74 592.91 420.5" style="fill:#d7d7d7"/><polygon points="164.02 463.1 399.23 312.81 398.94 377.01 163.73 527.31 164.02 463.1" style="fill:#ebebeb"/><polygon points="6.29 379.24 164.02 463.1 163.73 527.31 6 443.44 6.29 379.24" style="fill:#d7d7d7"/><polygon points="399.23 312.81 398.94 377.01 163.73 527.31 164.02 463.1 399.23 312.81" style="fill:#2f2f2f"/><polygon points="164.02 463.1 163.73 527.31 6 443.44 6.29 379.24 164.02 463.1" style="fill:#2b2b2b"/><polygon points="166.24 464.28 399.44 315.27 399.15 379.48 165.95 528.49 166.24 464.28" style="fill:#ebebeb"/><polygon points="399.44 315.27 399.15 379.48 165.95 528.49 166.24 464.28 399.44 315.27" style="fill:#ebebeb"/><polygon points="162 464.39 161.71 528.6 3.98 444.73 4.27 380.52 162 464.39" style="fill:#d7d7d7"/><polygon points="4.27 380.52 162 464.39 161.71 528.6 3.98 444.73 4.27 380.52" style="fill:#d7d7d7"/><g style="isolation:isolate"><g style="clip-path:url(#clip-path-25)"><g style="isolation:isolate"><path d="M162,464.39l-.29,64.21a3.62,3.62,0,0,0,.87.32l.29-64.21a3.62,3.62,0,0,1-.87-.32" style="fill:#d8d8d8"/><path d="M162.87,464.71l-.29,64.21a4.69,4.69,0,0,0,.75.12l.29-64.21a4.52,4.52,0,0,1-.75-.12" style="fill:#dcdcdc"/><path d="M163.62,464.83,163.33,529a5.61,5.61,0,0,0,.71,0l.29-64.21a5.58,5.58,0,0,1-.71,0" style="fill:#e1e1e1"/><path d="M164.33,464.84,164,529.05a4.83,4.83,0,0,0,1-.15l.29-64.21a5.08,5.08,0,0,1-.95.15" style="fill:#e5e5e5"/><path d="M165.28,464.69,165,528.9a3.7,3.7,0,0,0,.82-.33l.29-64.21a3.7,3.7,0,0,1-.82.33" style="fill:#e9e9e9"/><path d="M166.1,464.36l-.29,64.21.14-.08.29-64.21-.14.08" style="fill:#e5e5e5"/></g></g></g><g style="isolation:isolate"><g style="clip-path:url(#clip-path-26)"><g style="isolation:isolate"><path d="M166.24,464.28,166,528.49l-.14.08.29-64.21.14-.08" style="fill:#e5e5e5"/><path d="M166.1,464.36l-.29,64.21a3.7,3.7,0,0,1-.82.33l.28-64.21a3.6,3.6,0,0,0,.83-.33" style="fill:#e9e9e9"/><path d="M165.27,464.69,165,528.9a5.08,5.08,0,0,1-1,.15l.29-64.21a4.85,4.85,0,0,0,.94-.15" style="fill:#e5e5e5"/><path d="M164.33,464.84,164,529.05a5.61,5.61,0,0,1-.71,0l.29-64.21a5.61,5.61,0,0,0,.71,0" style="fill:#e1e1e1"/><path d="M163.62,464.83,163.33,529a4.88,4.88,0,0,1-.75-.12l.29-64.21a4.69,4.69,0,0,0,.75.12" style="fill:#dcdcdc"/><path d="M162.87,464.71l-.29,64.21a3.62,3.62,0,0,1-.87-.32l.29-64.21a3.62,3.62,0,0,0,.87.32" style="fill:#d8d8d8"/></g></g></g><polygon points="399.64 317.74 399.36 381.95 168.17 529.67 168.46 465.46 399.64 317.74" style="fill:#ebebeb"/><polygon points="159.99 465.68 159.7 529.88 1.97 446.02 2.26 381.81 159.99 465.68" style="fill:#d7d7d7"/><g style="isolation:isolate"><g style="clip-path:url(#clip-path-27)"><g style="isolation:isolate"><path d="M168.46,465.46l-.29,64.21-.28.16.29-64.21.28-.16" style="fill:#e5e5e5"/><path d="M168.18,465.62l-.29,64.21a7,7,0,0,1-1.64.66l.28-64.21a6.94,6.94,0,0,0,1.65-.66" style="fill:#e9e9e9"/><path d="M166.53,466.28l-.28,64.21a9.18,9.18,0,0,1-1.9.29l.29-64.2a9.68,9.68,0,0,0,1.89-.3" style="fill:#e5e5e5"/><path d="M164.64,466.58l-.29,64.2a9.48,9.48,0,0,1-1.41,0l.28-64.21a11.24,11.24,0,0,0,1.42,0" style="fill:#e1e1e1"/><path d="M163.22,466.56l-.28,64.21a9.2,9.2,0,0,1-1.5-.24l.29-64.21a9.26,9.26,0,0,0,1.49.24" style="fill:#dcdcdc"/><path d="M161.73,466.32l-.29,64.21a7.1,7.1,0,0,1-1.74-.65l.29-64.2a7.51,7.51,0,0,0,1.74.64" style="fill:#d8d8d8"/></g></g></g><polygon points="361.73 568.23 592.91 420.5 592.63 484.71 361.44 632.43 361.73 568.23" style="fill:#ebebeb"/><polygon points="597.16 420.4 596.87 484.61 363.67 633.62 363.95 569.41 597.16 420.4" style="fill:#ebebeb"/><polygon points="363.95 569.41 597.16 420.4 596.87 484.61 363.67 633.62 363.95 569.41" style="fill:#ebebeb"/><g style="isolation:isolate"><g style="clip-path:url(#clip-path-28)"><g style="isolation:isolate"><path d="M360.17,570.56l-.29,64.2a1.83,1.83,0,0,1,.05-.4l.29-64.21a1.84,1.84,0,0,0-.05.41" style="fill:#dcdcdc"/><path d="M360.22,570.15l-.29,64.21a2.36,2.36,0,0,1,.37-.87l.29-64.21a2.36,2.36,0,0,0-.37.87" style="fill:#e1e1e1"/><path d="M360.59,569.28l-.29,64.21a3.92,3.92,0,0,1,1.14-1.06l.29-64.21a3.92,3.92,0,0,0-1.14,1.06" style="fill:#e5e5e5"/></g></g></g><polygon points="601.39 420.29 601.1 484.5 365.88 634.8 366.17 570.59 601.39 420.29" style="fill:#ebebeb"/><g style="isolation:isolate"><g style="clip-path:url(#clip-path-29)"><g style="isolation:isolate"><path d="M364,569.41l-.28,64.21a1.73,1.73,0,0,0-.57.53l.28-64.21a2,2,0,0,1,.57-.53" style="fill:#e5e5e5"/><path d="M363.38,569.94l-.28,64.21a1.09,1.09,0,0,0-.19.43l.29-64.21a1.32,1.32,0,0,1,.18-.43" style="fill:#e1e1e1"/><path d="M363.2,570.37l-.29,64.21a.75.75,0,0,0,0,.21l.28-64.21a.76.76,0,0,1,0-.21" style="fill:#dcdcdc"/></g></g></g><g style="isolation:isolate"><g style="clip-path:url(#clip-path-30)"><g style="isolation:isolate"><path d="M363.17,570.58l-.28,64.2a.71.71,0,0,1,0-.2l.29-64.21a1.52,1.52,0,0,0,0,.21" style="fill:#dcdcdc"/><path d="M363.2,570.37l-.29,64.21a1.09,1.09,0,0,1,.19-.43l.28-64.21a1.32,1.32,0,0,0-.18.43" style="fill:#e1e1e1"/><path d="M363.38,569.94l-.28,64.21a1.84,1.84,0,0,1,.57-.53l.28-64.21a2,2,0,0,0-.57.53" style="fill:#e5e5e5"/></g></g></g><polygon points="366.17 570.59 601.39 420.3 601.1 484.5 365.88 634.8 366.17 570.59" style="fill:#2f2f2f"/><g style="isolation:isolate"><g style="clip-path:url(#clip-path-31)"><g style="isolation:isolate"><path d="M364.16,571.88l-.29,64.21a1.54,1.54,0,0,1-1-1.31l.28-64.2a1.58,1.58,0,0,0,1,1.3" style="fill:#d8d8d8"/></g></g></g><g style="isolation:isolate"><g style="clip-path:url(#clip-path-31)"><g style="isolation:isolate"><path d="M363.17,570.58l-.28,64.21a1.54,1.54,0,0,0,1,1.3l.29-64.21a1.58,1.58,0,0,1-1-1.3" style="fill:#d8d8d8"/></g></g></g><g style="isolation:isolate"><g style="clip-path:url(#clip-path-33)"><g style="isolation:isolate"><path d="M362.14,573.16l-.29,64.21a3.13,3.13,0,0,1-2-2.61l.29-64.2a3.13,3.13,0,0,0,2,2.6" style="fill:#d8d8d8"/></g></g></g><polygon points="366.17 570.59 523.9 654.46 523.61 718.66 365.88 634.8 366.17 570.59" style="fill:#d7d7d7"/><polygon points="523.9 654.46 1111.94 278.71 1111.65 342.92 523.61 718.66 523.9 654.46" style="fill:#ebebeb"/><polygon points="1111.94 278.71 523.9 654.46 366.17 570.59 601.39 420.3 399.23 312.81 164.02 463.1 6.29 379.24 594.33 3.5 752.06 87.36 530.96 228.64 733.11 336.13 954.22 194.85 1111.94 278.71" style="fill:#313131"/><polygon points="1111.94 278.71 1111.66 342.92 523.61 718.66 523.9 654.46 1111.94 278.71" style="fill:#2f2f2f"/><polygon points="523.9 654.46 523.61 718.66 365.88 634.8 366.17 570.59 523.9 654.46" style="fill:#2b2b2b"/><polygon points="526.12 655.63 1114.16 279.89 1113.87 344.1 525.83 719.84 526.12 655.63" style="fill:#ebebeb"/><polygon points="1114.16 279.89 1113.87 344.1 525.83 719.84 526.12 655.63 1114.16 279.89" style="fill:#ebebeb"/><polygon points="521.89 655.74 521.6 719.95 363.87 636.09 364.16 571.88 521.89 655.74" style="fill:#d7d7d7"/><polygon points="364.16 571.88 521.89 655.74 521.6 719.95 363.87 636.09 364.16 571.88" style="fill:#d7d7d7"/><g style="isolation:isolate"><g style="clip-path:url(#clip-path-34)"><g style="isolation:isolate"><path d="M521.89,655.74,521.6,720a3.92,3.92,0,0,0,.87.33l.29-64.21a3.74,3.74,0,0,1-.87-.33" style="fill:#d8d8d8"/><path d="M522.76,656.07l-.29,64.21a6,6,0,0,0,.74.11l.29-64.2a4.57,4.57,0,0,1-.74-.12" style="fill:#dcdcdc"/><path d="M523.5,656.19l-.29,64.2a4.22,4.22,0,0,0,.71,0l.29-64.21a5.61,5.61,0,0,1-.71,0" style="fill:#e1e1e1"/><path d="M524.21,656.19l-.29,64.21a4.83,4.83,0,0,0,1-.15l.29-64.21a4.83,4.83,0,0,1-.95.15" style="fill:#e5e5e5"/><path d="M525.16,656l-.29,64.21a3.6,3.6,0,0,0,.83-.33l.28-64.2a3.34,3.34,0,0,1-.82.32" style="fill:#e9e9e9"/><path d="M526,655.72l-.28,64.2.13-.08.29-64.2-.14.08" style="fill:#e5e5e5"/></g></g></g><g style="isolation:isolate"><g style="clip-path:url(#clip-path-35)"><g style="isolation:isolate"><path d="M526.12,655.64l-.29,64.2-.13.09.28-64.21.14-.08" style="fill:#e5e5e5"/><path d="M526,655.72l-.28,64.21a4.09,4.09,0,0,1-.83.32l.29-64.21a3,3,0,0,0,.82-.32" style="fill:#e9e9e9"/><path d="M525.16,656l-.29,64.21a4.83,4.83,0,0,1-1,.15l.29-64.21a3.7,3.7,0,0,0,.95-.15" style="fill:#e5e5e5"/><path d="M524.21,656.19l-.29,64.21a4.22,4.22,0,0,1-.71,0l.29-64.2a4.21,4.21,0,0,0,.71,0" style="fill:#e1e1e1"/><path d="M523.5,656.19l-.29,64.2a6,6,0,0,1-.74-.11l.29-64.21a4.57,4.57,0,0,0,.74.12" style="fill:#dcdcdc"/><path d="M522.76,656.07l-.29,64.21a3.92,3.92,0,0,1-.87-.33l.29-64.21a3.92,3.92,0,0,0,.87.33" style="fill:#d8d8d8"/></g></g></g><path d="M1116,276.14c2.45,1.3,2.63,3.51.41,4.93l-588,375.74a9.26,9.26,0,0,1-8.47.22L362.14,573.16c-2.45-1.3-2.64-3.51-.41-4.94L592.92,420.5,399.64,317.74,168.46,465.46a9.29,9.29,0,0,1-8.47.22L2.26,381.81c-2.45-1.3-2.64-3.52-.42-4.94l588-375.74a9.31,9.31,0,0,1,8.48-.21L756.09,84.79c2.45,1.3,2.63,3.51.41,4.93L539.43,228.42,732.7,331.18l217.07-138.7a9.29,9.29,0,0,1,8.47-.21ZM526.12,655.64l588-375.75c1.11-.71,1-1.81-.2-2.46L956.23,193.56a4.63,4.63,0,0,0-4.23.11l-219.09,140L535.19,228.53l219.09-140c1.11-.71,1-1.81-.21-2.47L596.34,2.21a4.61,4.61,0,0,0-4.23.1L4.07,378.06c-1.11.71-1,1.81.2,2.46L162,464.39a4.66,4.66,0,0,0,4.24-.11l233.2-149L597.16,420.4,364,569.41c-1.11.71-1,1.82.21,2.47l157.73,83.86a4.61,4.61,0,0,0,4.23-.1" style="fill:#f3f3f3"/><path d="M1114,277.43c1.22.65,1.31,1.75.2,2.46l-588,375.75a4.61,4.61,0,0,1-4.23.1L364.16,571.88c-1.23-.65-1.32-1.76-.21-2.47l233.21-149L399.44,315.27l-233.2,149a4.66,4.66,0,0,1-4.24.11L4.27,380.52c-1.22-.65-1.31-1.75-.2-2.46l588-375.75a4.64,4.64,0,0,1,4.23-.1L754.07,86.07c1.23.66,1.32,1.76.21,2.47l-219.09,140L732.91,333.66,952,193.67a4.63,4.63,0,0,1,4.23-.11Zm-590.06,377,588-375.75L954.21,194.85,733.11,336.13,531,228.64,752.06,87.36,594.33,3.49,6.29,379.24,164,463.1,399.23,312.81,601.39,420.29,366.17,570.59,523.9,654.46" style="fill:#f3f3f3"/><polygon points="1116.38 281.07 1116.09 345.28 528.05 721.02 528.34 656.82 1116.38 281.07" style="fill:#ebebeb"/><polygon points="519.87 657.03 519.58 721.24 361.85 637.37 362.14 573.16 519.87 657.03" style="fill:#d7d7d7"/><g style="isolation:isolate"><g style="clip-path:url(#clip-path-36)"><g style="isolation:isolate"><path d="M528.34,656.81,528.05,721l-.27.17.29-64.21.27-.17" style="fill:#e5e5e5"/><path d="M528.07,657l-.29,64.21a7.77,7.77,0,0,1-1.65.65l.29-64.21a7.27,7.27,0,0,0,1.65-.65" style="fill:#e9e9e9"/><path d="M526.42,657.63l-.29,64.21a9.68,9.68,0,0,1-1.89.3l.29-64.21a9.68,9.68,0,0,0,1.89-.3" style="fill:#e5e5e5"/><path d="M524.53,657.93l-.29,64.21a9.62,9.62,0,0,1-1.42,0l.29-64.2a11.21,11.21,0,0,0,1.42,0" style="fill:#e1e1e1"/><path d="M523.11,657.92l-.29,64.2a10.29,10.29,0,0,1-1.49-.23l.28-64.21a10.66,10.66,0,0,0,1.5.24" style="fill:#dcdcdc"/><path d="M521.61,657.68l-.28,64.21a7.91,7.91,0,0,1-1.75-.65l.29-64.21a7.53,7.53,0,0,0,1.74.65" style="fill:#d8d8d8"/></g></g></g></g></g></g></g></g></svg>