<svg xmlns="http://www.w3.org/2000/svg" xmlns:xlink="http://www.w3.org/1999/xlink" viewBox="0 0 1117.94 722.16"><defs><clipPath id="clip-path"><path d="M589.88,1.13a9.31,9.31,0,0,1,8.48-.21l-.29,64.21a9.28,9.28,0,0,0-8.48.21Z" style="fill:none"/></clipPath><clipPath id="clip-path-2"><path d="M596.05,66.41a4.64,4.64,0,0,0-4.23.11l.29-64.21a4.61,4.61,0,0,1,4.23-.1C596.26,21.47,596.14,47.15,596.05,66.41Z" style="fill:none"/></clipPath><clipPath id="clip-path-3"><path d="M592.11,2.31a4.64,4.64,0,0,1,4.23-.1l-.29,64.2a4.64,4.64,0,0,0-4.23.11Z" style="fill:none"/></clipPath><clipPath id="clip-path-4"><path d="M754.77,151.58a1.58,1.58,0,0,0-1-1.3l.29-64.21a1.58,1.58,0,0,1,1,1.3C755,106.64,754.85,132.32,754.77,151.58Z" style="fill:none"/></clipPath><clipPath id="clip-path-5"><path d="M755.06,87.37l-.29,64.21a1.58,1.58,0,0,0-1-1.3l.29-64.21A1.58,1.58,0,0,1,755.06,87.37Z" style="fill:none"/></clipPath><clipPath id="clip-path-6"><path d="M757.76,151.6a3.11,3.11,0,0,0-2-2.61l.29-64.2a3.11,3.11,0,0,1,2,2.6C758,106.65,757.85,132.33,757.76,151.6Z" style="fill:none"/></clipPath><clipPath id="clip-path-7"><path d="M755.06,87.37l-.29,64.21a1.44,1.44,0,0,1-.78,1.17l.29-64.21A1.46,1.46,0,0,0,755.06,87.37Z" style="fill:none"/></clipPath><clipPath id="clip-path-8"><path d="M754.77,151.58a1.46,1.46,0,0,1-.78,1.17l.29-64.21a1.46,1.46,0,0,0,.78-1.17C755,106.64,754.85,132.32,754.77,151.58Z" style="fill:none"/></clipPath><clipPath id="clip-path-9"><path d="M758.05,87.39l-.29,64.21a2.88,2.88,0,0,1-1.55,2.33l.29-64.21A2.89,2.89,0,0,0,758.05,87.39Z" style="fill:none"/></clipPath><clipPath id="clip-path-10"><path d="M949.77,192.48a9.29,9.29,0,0,1,8.47-.21L958,256.48a9.29,9.29,0,0,0-8.47.21Z" style="fill:none"/></clipPath><clipPath id="clip-path-11"><path d="M955.94,257.77a4.63,4.63,0,0,0-4.23.11l.29-64.21a4.63,4.63,0,0,1,4.23-.11C956.14,212.82,956,238.51,955.94,257.77Z" style="fill:none"/></clipPath><clipPath id="clip-path-12"><path d="M952,193.67a4.63,4.63,0,0,1,4.23-.11l-.29,64.21a4.63,4.63,0,0,0-4.23.11Z" style="fill:none"/></clipPath><clipPath id="clip-path-13"><path d="M1114.65,342.94a1.56,1.56,0,0,0-1-1.3l.29-64.21a1.57,1.57,0,0,1,1,1.3C1114.85,298,1114.74,323.67,1114.65,342.94Z" style="fill:none"/></clipPath><clipPath id="clip-path-14"><path d="M1114.94,278.73l-.29,64.21a1.56,1.56,0,0,0-1-1.3l.29-64.21A1.56,1.56,0,0,1,1114.94,278.73Z" style="fill:none"/></clipPath><clipPath id="clip-path-15"><path d="M1117.65,343a3.13,3.13,0,0,0-2-2.6l.29-64.21a3.14,3.14,0,0,1,2,2.6C1117.85,298,1117.73,323.69,1117.65,343Z" style="fill:none"/></clipPath><clipPath id="clip-path-16"><path d="M1114.94,278.73l-.29,64.21a1.44,1.44,0,0,1-.78,1.16l.29-64.21A1.44,1.44,0,0,0,1114.94,278.73Z" style="fill:none"/></clipPath><clipPath id="clip-path-17"><path d="M1114.65,342.94a1.44,1.44,0,0,1-.78,1.16l.29-64.21a1.44,1.44,0,0,0,.78-1.16C1114.85,298,1114.74,323.67,1114.65,342.94Z" style="fill:none"/></clipPath><clipPath id="clip-path-18"><path d="M1117.94,278.74l-.29,64.21a2.9,2.9,0,0,1-1.56,2.33l.29-64.21A2.89,2.89,0,0,0,1117.94,278.74Z" style="fill:none"/></clipPath><clipPath id="clip-path-19"><path d="M.29,379.2a2.89,2.89,0,0,1,1.55-2.33l-.29,64.21A2.89,2.89,0,0,0,0,443.41C.09,424.15.2,398.46.29,379.2Z" style="fill:none"/></clipPath><clipPath id="clip-path-20"><path d="M3.78,442.26A1.45,1.45,0,0,0,3,443.43l.29-64.21a1.44,1.44,0,0,1,.78-1.16C4,397.32,3.87,423,3.78,442.26Z" style="fill:none"/></clipPath><clipPath id="clip-path-21"><path d="M3.29,379.22a1.44,1.44,0,0,1,.78-1.16l-.29,64.2A1.45,1.45,0,0,0,3,443.43C3.09,424.17,3.2,398.49,3.29,379.22Z" style="fill:none"/></clipPath><clipPath id="clip-path-22"><path d="M3,443.43l.29-64.21a1.56,1.56,0,0,0,1,1.3L4,444.73A1.57,1.57,0,0,1,3,443.43Z" style="fill:none"/></clipPath><clipPath id="clip-path-24"><path d="M0,443.41.29,379.2a3.13,3.13,0,0,0,2,2.61L2,446A3.14,3.14,0,0,1,0,443.41Z" style="fill:none"/></clipPath><clipPath id="clip-path-25"><path d="M162,464.39a4.66,4.66,0,0,0,4.24-.11L166,528.49a4.66,4.66,0,0,1-4.24.11Z" style="fill:none"/></clipPath><clipPath id="clip-path-26"><path d="M166.24,464.28,166,528.49a4.66,4.66,0,0,1-4.24.11l.29-64.21A4.66,4.66,0,0,0,166.24,464.28Z" style="fill:none"/></clipPath><clipPath id="clip-path-27"><path d="M168.46,465.46l-.29,64.21a9.26,9.26,0,0,1-8.47.21l.29-64.2A9.29,9.29,0,0,0,168.46,465.46Z" style="fill:none"/></clipPath><clipPath id="clip-path-28"><path d="M360.17,570.56a2.92,2.92,0,0,1,1.56-2.34l-.29,64.21a2.92,2.92,0,0,0-1.56,2.33C360,615.5,360.09,589.82,360.17,570.56Z" style="fill:none"/></clipPath><clipPath id="clip-path-29"><path d="M363.67,633.62a1.44,1.44,0,0,0-.78,1.16l.28-64.2a1.46,1.46,0,0,1,.78-1.17C363.87,588.67,363.75,614.35,363.67,633.62Z" style="fill:none"/></clipPath><clipPath id="clip-path-30"><path d="M363.17,570.58a1.46,1.46,0,0,1,.78-1.17l-.28,64.21a1.44,1.44,0,0,0-.78,1.16C363,615.52,363.09,589.84,363.17,570.58Z" style="fill:none"/></clipPath><clipPath id="clip-path-31"><path d="M362.89,634.78l.28-64.2a1.58,1.58,0,0,0,1,1.3l-.29,64.21A1.54,1.54,0,0,1,362.89,634.78Z" style="fill:none"/></clipPath><clipPath id="clip-path-33"><path d="M359.88,634.76l.29-64.2a3.13,3.13,0,0,0,2,2.6l-.29,64.21A3.13,3.13,0,0,1,359.88,634.76Z" style="fill:none"/></clipPath><clipPath id="clip-path-34"><path d="M521.89,655.74a4.61,4.61,0,0,0,4.23-.1l-.29,64.2a4.64,4.64,0,0,1-4.23.11Z" style="fill:none"/></clipPath><clipPath id="clip-path-35"><path d="M526.12,655.64l-.29,64.2a4.64,4.64,0,0,1-4.23.11l.29-64.21A4.61,4.61,0,0,0,526.12,655.64Z" style="fill:none"/></clipPath><clipPath id="clip-path-36"><path d="M528.34,656.81,528.05,721a9.29,9.29,0,0,1-8.47.22l.29-64.21A9.26,9.26,0,0,0,528.34,656.81Z" style="fill:none"/></clipPath></defs><title>Asset 14</title><g style="isolation:isolate"><g id="Layer_2" data-name="Layer 2"><g id="Layer_1-2" data-name="Layer 1"><g style="mix-blend-mode:color-dodge"><g style="isolation:isolate"><g style="isolation:isolate"><g style="clip-path:url(#clip-path)"><g style="isolation:isolate"><path d="M589.88,1.13l-.29,64.21a7.54,7.54,0,0,1,2.8-1l.29-64.2a7.47,7.47,0,0,0-2.8,1" style="fill:#b3b3b3"/><path d="M592.68.13l-.29,64.2.65-.08L593.33,0l-.65.09" style="fill:#b4b4b4"/><path d="M593.33,0,593,64.25c.18,0,.36,0,.54,0L593.86,0l-.53,0" style="fill:#b5b5b5"/><path d="M593.86,0l-.28,64.21h.47L594.34,0h-.48" style="fill:#b6b6b6"/><path d="M594.34,0l-.29,64.21h.43L594.77,0h-.43" style="fill:#b6b6b6"/><path d="M594.77,0l-.29,64.21c.14,0,.28,0,.41,0L595.18,0l-.41,0" style="fill:#b7b7b7"/><path d="M595.18,0l-.29,64.21.4,0L595.57.08l-.39,0" style="fill:#b8b8b8"/><path d="M595.57.08l-.28,64.21.38,0L596,.14l-.39-.06" style="fill:#b9b9b9"/><path d="M596,.14l-.29,64.2.37.08L596.33.21,596,.14" style="fill:#b9b9b9"/><path d="M596.33.21,596,64.42l.38.08L596.71.29l-.38-.08" style="fill:#bababa"/><path d="M596.71.29l-.29,64.21.38.11L597.09.4l-.38-.11" style="fill:#bbb"/><path d="M597.09.4l-.29,64.21.4.13L597.49.53l-.4-.13" style="fill:#bcbcbc"/><path d="M597.49.53l-.29,64.21.42.17L597.91.7l-.42-.17" style="fill:#bcbcbc"/><path d="M597.91.7l-.29,64.21.45.22L598.36.92,597.91.7" style="fill:#bdbdbd"/></g></g></g><path d="M1115.68,340.35c2.45,1.3,2.64,3.51.41,4.93L528.05,721a9.29,9.29,0,0,1-8.47.22L361.85,637.37c-2.45-1.3-2.64-3.51-.41-4.94L592.63,484.71,399.36,382,168.17,529.67a9.26,9.26,0,0,1-8.47.21L2,446c-2.45-1.31-2.64-3.52-.42-4.94l588-375.74a9.28,9.28,0,0,1,8.48-.21L755.8,149c2.45,1.31,2.63,3.52.41,4.94L539.14,292.63,732.41,395.39l217.07-138.7a9.29,9.29,0,0,1,8.47-.21ZM525.83,719.84l588-375.74c1.11-.71,1-1.81-.2-2.46L955.94,257.77a4.63,4.63,0,0,0-4.23.11l-219.09,140L534.9,292.74,754,152.75c1.11-.71,1-1.82-.21-2.47L596.05,66.41a4.64,4.64,0,0,0-4.23.11L3.78,442.26c-1.11.71-1,1.82.2,2.47L161.71,528.6a4.66,4.66,0,0,0,4.24-.11l233.2-149L596.87,484.61l-233.2,149c-1.12.71-1,1.81.2,2.47L521.6,720a4.64,4.64,0,0,0,4.23-.11" style="fill:#f6f6f6"/><g style="isolation:isolate"><g style="clip-path:url(#clip-path-2)"><g style="isolation:isolate"><path d="M596.34,2.21l-.29,64.2-.22-.1.29-64.21a1.51,1.51,0,0,1,.22.11" style="fill:#bdbdbd"/><path d="M596.12,2.1l-.29,64.21-.21-.09L595.91,2l.21.09" style="fill:#bcbcbc"/><path d="M595.91,2l-.29,64.21-.2-.06L595.71,2l.2.06" style="fill:#bcbcbc"/><path d="M595.71,2l-.29,64.21-.19-.06.29-64.21.19.06" style="fill:#bbb"/><path d="M595.52,1.89l-.29,64.21-.18,0,.28-64.21.19,0" style="fill:#bababa"/><path d="M595.33,1.85l-.28,64.21-.19,0,.29-64.2.18,0" style="fill:#b9b9b9"/><path d="M595.15,1.82,594.86,66l-.19,0L595,1.79l.19,0" style="fill:#b9b9b9"/><path d="M595,1.79,594.67,66l-.2,0,.29-64.21.2,0" style="fill:#b8b8b8"/><path d="M594.76,1.77,594.47,66l-.2,0,.29-64.21.2,0" style="fill:#b7b7b7"/><path d="M594.56,1.75,594.27,66h-.22l.29-64.21h.22" style="fill:#b6b6b6"/><path d="M594.34,1.75,594.05,66h-.24l.29-64.21h.24" style="fill:#b6b6b6"/><path d="M594.1,1.75,593.81,66l-.26,0,.29-64.21.26,0" style="fill:#b5b5b5"/><path d="M593.84,1.77,593.55,66l-.33,0,.29-64.21.33,0" style="fill:#b4b4b4"/><path d="M593.51,1.81,593.22,66a3.65,3.65,0,0,0-1.4.5l.29-64.21a3.82,3.82,0,0,1,1.4-.5" style="fill:#b3b3b3"/></g></g></g><g style="isolation:isolate"><g style="clip-path:url(#clip-path-3)"><g style="isolation:isolate"><path d="M592.11,2.31l-.29,64.21a3.65,3.65,0,0,1,1.4-.5l.29-64.21a3.82,3.82,0,0,0-1.4.5" style="fill:#b3b3b3"/><path d="M593.51,1.81,593.22,66l.33,0,.29-64.21-.33,0" style="fill:#b4b4b4"/><path d="M593.84,1.77,593.55,66l.26,0,.29-64.21-.26,0" style="fill:#b5b5b5"/><path d="M594.1,1.75,593.81,66h.24l.29-64.21h-.24" style="fill:#b6b6b6"/><path d="M594.34,1.75,594.05,66h.22l.29-64.21h-.22" style="fill:#b6b6b6"/><path d="M594.56,1.75,594.27,66l.2,0,.29-64.21-.2,0" style="fill:#b7b7b7"/><path d="M594.76,1.77,594.47,66l.2,0L595,1.79l-.2,0" style="fill:#b8b8b8"/><path d="M595,1.79,594.67,66l.19,0,.29-64.2-.19,0" style="fill:#b9b9b9"/><path d="M595.15,1.82,594.86,66l.19,0,.28-64.21-.18,0" style="fill:#b9b9b9"/><path d="M595.33,1.85l-.28,64.21.18,0,.29-64.2-.19,0" style="fill:#bababa"/><path d="M595.52,1.9l-.29,64.2.19.06L595.71,2l-.19-.05" style="fill:#bbb"/><path d="M595.71,2l-.29,64.21.2.06L595.91,2l-.2-.06" style="fill:#bcbcbc"/><path d="M595.91,2l-.29,64.21.21.09.29-64.21L595.91,2" style="fill:#bcbcbc"/><path d="M596.12,2.1l-.29,64.21.22.1.29-64.2a1.51,1.51,0,0,0-.22-.11" style="fill:#bdbdbd"/></g></g></g><polygon points="598.36 0.92 756.09 84.79 755.8 149 598.07 65.13 598.36 0.92" style="fill:#c4c4c4"/><polygon points="596.34 2.21 754.07 86.07 753.78 150.28 596.05 66.42 596.34 2.21" style="fill:#c4c4c4"/><polygon points="754.07 86.07 753.78 150.28 596.05 66.42 596.34 2.21 754.07 86.07" style="fill:#c4c4c4"/><polygon points="1111.66 342.92 523.61 718.66 365.88 634.8 601.1 484.5 398.94 377.01 163.73 527.31 6 443.44 594.04 67.7 751.77 151.57 530.67 292.85 732.82 400.34 953.93 259.06 1111.66 342.92" style="fill:#f6f6f6"/><path d="M1113.67,341.64c1.23.65,1.31,1.75.2,2.46l-588,375.74a4.64,4.64,0,0,1-4.23.11L363.87,636.09c-1.23-.66-1.32-1.76-.2-2.47l233.2-149L399.15,379.48,166,528.49a4.66,4.66,0,0,1-4.24.11L4,444.73c-1.22-.65-1.31-1.75-.2-2.47l588-375.74a4.64,4.64,0,0,1,4.23-.11l157.73,83.87c1.23.65,1.32,1.76.21,2.47l-219.09,140L732.62,397.87l219.09-140a4.63,4.63,0,0,1,4.23-.11Zm-590.06,377,588-375.74L953.92,259.06,732.82,400.34,530.67,292.85l221.1-141.28L594,67.7,6,443.44l157.73,83.87L398.94,377,601.1,484.5,365.88,634.8l157.73,83.86" style="fill:#f6f6f6"/><polygon points="594.33 3.5 752.06 87.36 751.77 151.57 594.04 67.7 594.33 3.5" style="fill:#c4c4c4"/><polygon points="752.06 87.36 751.77 151.57 594.04 67.7 594.33 3.49 752.06 87.36" style="fill:#c4c4c4"/><g style="isolation:isolate"><g style="clip-path:url(#clip-path-4)"><g style="isolation:isolate"><path d="M754.07,86.07l-.29,64.21h0l.29-64.21h0" style="fill:#bdbdbd"/><path d="M754.09,86.08l-.29,64.21a2,2,0,0,1,.32.2l.29-64.21-.32-.2" style="fill:#bebebe"/><path d="M754.41,86.28l-.29,64.21a2,2,0,0,1,.41.4l.29-64.2a1.77,1.77,0,0,0-.41-.41" style="fill:#bfbfbf"/><path d="M754.82,86.69l-.29,64.2a1.82,1.82,0,0,1,.15.27L755,87a1.35,1.35,0,0,0-.15-.26" style="fill:#bebebe"/><path d="M755,87l-.29,64.21a1.27,1.27,0,0,1,.06.18L755,87.13,755,87" style="fill:#bdbdbd"/><path d="M755,87.13l-.29,64.21a.77.77,0,0,1,0,.15l.29-64.21a.77.77,0,0,0,0-.15" style="fill:#bcbcbc"/><path d="M755.05,87.28l-.29,64.21a.28.28,0,0,1,0,.09l.29-64.21s0-.06,0-.09" style="fill:#bcbcbc"/></g></g></g><g style="isolation:isolate"><g style="clip-path:url(#clip-path-5)"><g style="isolation:isolate"><path d="M755.06,87.37l-.29,64.21a.28.28,0,0,0,0-.09l.29-64.21s0,.06,0,.09" style="fill:#bcbcbc"/><path d="M755.05,87.28l-.29,64.21a.77.77,0,0,0,0-.15L755,87.13a.77.77,0,0,1,0,.15" style="fill:#bcbcbc"/><path d="M755,87.13l-.29,64.21-.06-.18L755,87l.06.18" style="fill:#bdbdbd"/><path d="M755,87l-.29,64.21a1.82,1.82,0,0,0-.15-.27l.29-64.21A1.82,1.82,0,0,1,755,87" style="fill:#bebebe"/><path d="M754.82,86.68l-.29,64.21a2,2,0,0,0-.41-.4l.29-64.21a2.23,2.23,0,0,1,.41.4" style="fill:#bfbfbf"/><path d="M754.41,86.28l-.29,64.21a2.49,2.49,0,0,0-.32-.2l.29-64.21.32.2" style="fill:#bebebe"/><path d="M754.09,86.08l-.29,64.21h0l.29-64.21h0" style="fill:#bdbdbd"/></g></g></g><g style="isolation:isolate"><g style="clip-path:url(#clip-path-6)"><g style="isolation:isolate"><path d="M756.09,84.79,755.8,149l0,0,.29-64.21h0" style="fill:#bdbdbd"/><path d="M756.12,84.8,755.83,149a4.4,4.4,0,0,1,.64.41l.29-64.21a6.42,6.42,0,0,0-.64-.41" style="fill:#bebebe"/><path d="M756.76,85.21l-.29,64.21a3.91,3.91,0,0,1,.82.8L757.58,86a3.91,3.91,0,0,0-.82-.8" style="fill:#bfbfbf"/><path d="M757.58,86l-.29,64.21a3.12,3.12,0,0,1,.3.53l.29-64.21a3.12,3.12,0,0,0-.3-.53" style="fill:#bebebe"/><path d="M757.88,86.54l-.29,64.21a2.53,2.53,0,0,1,.12.36L758,86.9a2.53,2.53,0,0,0-.12-.36" style="fill:#bdbdbd"/><path d="M758,86.9l-.29,64.21c0,.1,0,.2,0,.3L758,87.2a1.54,1.54,0,0,0,0-.3" style="fill:#bcbcbc"/><path d="M758,87.2l-.28,64.21v.19l.29-64.21a1.15,1.15,0,0,0,0-.19" style="fill:#bcbcbc"/></g></g></g><g style="isolation:isolate"><g style="clip-path:url(#clip-path-7)"><g style="isolation:isolate"><path d="M755.06,87.37l-.29,64.21a1.44,1.44,0,0,1-.78,1.17l.29-64.21a1.46,1.46,0,0,0,.78-1.17" style="fill:#b3b3b3"/></g></g></g><g style="isolation:isolate"><g style="clip-path:url(#clip-path-8)"><g style="isolation:isolate"><path d="M754.28,88.54,754,152.75a1.46,1.46,0,0,0,.78-1.17l.29-64.21a1.46,1.46,0,0,1-.78,1.17" style="fill:#b3b3b3"/></g></g></g><g style="isolation:isolate"><g style="clip-path:url(#clip-path-9)"><g style="isolation:isolate"><path d="M758.05,87.39l-.29,64.21a2.88,2.88,0,0,1-1.55,2.33l.29-64.21a2.89,2.89,0,0,0,1.55-2.33" style="fill:#b3b3b3"/></g></g></g><g style="isolation:isolate"><g style="clip-path:url(#clip-path-10)"><g style="isolation:isolate"><path d="M949.77,192.48l-.29,64.21a7.4,7.4,0,0,1,2.8-1l.29-64.21a7.4,7.4,0,0,0-2.8,1" style="fill:#b3b3b3"/><path d="M952.57,191.48l-.29,64.21c.21,0,.43-.06.64-.08l.29-64.21-.64.08" style="fill:#b4b4b4"/><path d="M953.21,191.4l-.29,64.21.54,0,.29-64.21-.54,0" style="fill:#b5b5b5"/><path d="M953.75,191.36l-.29,64.21h.47l.29-64.21h-.47" style="fill:#b6b6b6"/><path d="M954.22,191.35l-.29,64.21h.44l.29-64.21h-.44" style="fill:#b6b6b6"/><path d="M954.66,191.36l-.29,64.21.41,0,.29-64.21-.41,0" style="fill:#b7b7b7"/><path d="M955.07,191.39l-.29,64.21.39,0,.29-64.21-.39,0" style="fill:#b8b8b8"/><path d="M955.46,191.43l-.29,64.21.38.06.29-64.21-.38-.06" style="fill:#b9b9b9"/><path d="M955.84,191.49l-.29,64.21.38.07.29-64.21-.38-.07" style="fill:#b9b9b9"/><path d="M956.22,191.56l-.29,64.21c.12,0,.25,0,.37.09l.29-64.21-.37-.09" style="fill:#bababa"/><path d="M956.59,191.65l-.29,64.21.38.1.29-64.2-.38-.11" style="fill:#bbb"/><path d="M957,191.76l-.29,64.2.4.14.29-64.21-.4-.13" style="fill:#bcbcbc"/><path d="M957.37,191.89l-.29,64.21a3.07,3.07,0,0,1,.42.17l.29-64.21-.42-.17" style="fill:#bcbcbc"/><path d="M957.79,192.06l-.29,64.21a3.1,3.1,0,0,1,.45.21l.29-64.21a4.69,4.69,0,0,0-.45-.21" style="fill:#bdbdbd"/></g></g></g><g style="isolation:isolate"><g style="clip-path:url(#clip-path-11)"><g style="isolation:isolate"><path d="M956.23,193.56l-.29,64.21-.23-.11.29-64.21.23.11" style="fill:#bdbdbd"/><path d="M956,193.45l-.29,64.21a1,1,0,0,0-.21-.08l.29-64.21.21.08" style="fill:#bcbcbc"/><path d="M955.79,193.37l-.29,64.21-.19-.07.29-64.21.19.07" style="fill:#bcbcbc"/><path d="M955.6,193.3l-.29,64.21-.19-.05.29-64.21.19.05" style="fill:#bbb"/><path d="M955.41,193.25l-.29,64.21-.19,0,.29-64.2.19,0" style="fill:#bababa"/><path d="M955.22,193.21l-.29,64.2-.19,0,.29-64.21.19,0" style="fill:#b9b9b9"/><path d="M955,193.17l-.29,64.21-.19,0,.29-64.21.19,0" style="fill:#b9b9b9"/><path d="M954.84,193.14l-.29,64.21-.19,0,.28-64.21.2,0" style="fill:#b8b8b8"/><path d="M954.64,193.12l-.28,64.21h-.21l.29-64.21h.2" style="fill:#b7b7b7"/><path d="M954.44,193.11l-.29,64.21h-.22l.29-64.21h.22" style="fill:#b6b6b6"/><path d="M954.22,193.1l-.29,64.21h-.23l.29-64.2h.23" style="fill:#b6b6b6"/><path d="M954,193.11l-.29,64.2-.27,0,.29-64.21H954" style="fill:#b5b5b5"/><path d="M953.72,193.12l-.29,64.21-.32,0,.29-64.2.32,0" style="fill:#b4b4b4"/><path d="M953.4,193.17l-.29,64.2a3.83,3.83,0,0,0-1.4.51l.29-64.21a3.59,3.59,0,0,1,1.4-.5" style="fill:#b3b3b3"/></g></g></g><g style="isolation:isolate"><g style="clip-path:url(#clip-path-12)"><g style="isolation:isolate"><path d="M952,193.67l-.29,64.21a3.83,3.83,0,0,1,1.4-.51l.29-64.2a3.59,3.59,0,0,0-1.4.5" style="fill:#b3b3b3"/><path d="M953.4,193.17l-.29,64.2.32,0,.29-64.21-.32,0" style="fill:#b4b4b4"/><path d="M953.72,193.12l-.29,64.21.27,0,.29-64.2h-.27" style="fill:#b5b5b5"/><path d="M954,193.11l-.29,64.2h.23l.29-64.21H954" style="fill:#b6b6b6"/><path d="M954.22,193.1l-.29,64.21h.22l.29-64.21h-.22" style="fill:#b6b6b6"/><path d="M954.44,193.11l-.29,64.21h.21l.28-64.21h-.2" style="fill:#b7b7b7"/><path d="M954.64,193.12l-.28,64.21.19,0,.29-64.21-.2,0" style="fill:#b8b8b8"/><path d="M954.84,193.14l-.29,64.21.19,0,.29-64.21-.19,0" style="fill:#b9b9b9"/><path d="M955,193.17l-.29,64.21.19,0,.29-64.2-.19,0" style="fill:#b9b9b9"/><path d="M955.22,193.21l-.29,64.2.19,0,.29-64.21-.19,0" style="fill:#bababa"/><path d="M955.41,193.25l-.29,64.21.19.05.29-64.21-.19-.05" style="fill:#bbb"/><path d="M955.6,193.3l-.29,64.21.19.07.29-64.21-.19-.07" style="fill:#bcbcbc"/><path d="M955.79,193.37l-.29,64.21a1,1,0,0,1,.21.08l.29-64.21-.21-.08" style="fill:#bcbcbc"/><path d="M956,193.45l-.29,64.21.23.11.29-64.21-.23-.11" style="fill:#bdbdbd"/></g></g></g><polygon points="530.95 228.64 752.06 87.36 751.77 151.57 530.67 292.85 530.95 228.64" style="fill:#b3b3b3"/><polygon points="752.06 87.36 751.77 151.57 530.67 292.85 530.96 228.64 752.06 87.36" style="fill:#b3b3b3"/><polygon points="535.19 228.53 754.28 88.54 753.99 152.75 534.9 292.74 535.19 228.53" style="fill:#b3b3b3"/><polygon points="754.28 88.54 753.99 152.75 534.9 292.74 535.19 228.53 754.28 88.54" style="fill:#b3b3b3"/><polygon points="756.5 89.72 756.21 153.93 539.14 292.63 539.43 228.42 756.5 89.72" style="fill:#b3b3b3"/><polygon points="958.24 192.27 1115.97 276.14 1115.68 340.35 957.95 256.48 958.24 192.27" style="fill:#c4c4c4"/><polygon points="1113.96 277.43 1113.67 341.63 955.94 257.77 956.23 193.56 1113.96 277.43" style="fill:#c4c4c4"/><polygon points="956.23 193.56 1113.96 277.43 1113.67 341.63 955.94 257.77 956.23 193.56" style="fill:#c4c4c4"/><polygon points="954.22 194.85 1111.94 278.71 1111.66 342.92 953.93 259.06 954.22 194.85" style="fill:#c4c4c4"/><polygon points="1111.94 278.71 1111.65 342.92 953.92 259.06 954.21 194.85 1111.94 278.71" style="fill:#c4c4c4"/><g style="isolation:isolate"><g style="clip-path:url(#clip-path-13)"><g style="isolation:isolate"><path d="M1114,277.43l-.29,64.21h0l.29-64.2h0" style="fill:#bdbdbd"/><path d="M1114,277.44l-.29,64.2.33.21.29-64.21a2.63,2.63,0,0,0-.33-.2" style="fill:#bebebe"/><path d="M1114.3,277.64l-.29,64.21a1.89,1.89,0,0,1,.4.4l.29-64.21a1.89,1.89,0,0,0-.4-.4" style="fill:#bfbfbf"/><path d="M1114.7,278l-.29,64.21a.76.76,0,0,1,.15.26l.29-64.21a1.16,1.16,0,0,0-.15-.26" style="fill:#bebebe"/><path d="M1114.85,278.3l-.29,64.21a.64.64,0,0,1,.06.18l.29-64.21a.64.64,0,0,0-.06-.18" style="fill:#bdbdbd"/><path d="M1114.91,278.48l-.29,64.21,0,.15.29-64.21,0-.15" style="fill:#bcbcbc"/><path d="M1114.94,278.63l-.29,64.21v.1l.29-64.21v-.1" style="fill:#bcbcbc"/></g></g></g><g style="isolation:isolate"><g style="clip-path:url(#clip-path-14)"><g style="isolation:isolate"><path d="M1114.94,278.73l-.29,64.21v-.1l.29-64.21v.1" style="fill:#bcbcbc"/><path d="M1114.94,278.63l-.29,64.21,0-.15.29-64.21,0,.15" style="fill:#bcbcbc"/><path d="M1114.91,278.48l-.29,64.21a.64.64,0,0,0-.06-.18l.29-64.21a.64.64,0,0,1,.06.18" style="fill:#bdbdbd"/><path d="M1114.85,278.3l-.29,64.21a1,1,0,0,0-.15-.26l.29-64.21a1.35,1.35,0,0,1,.15.26" style="fill:#bebebe"/><path d="M1114.7,278l-.29,64.21a1.89,1.89,0,0,0-.4-.4l.28-64.21a1.74,1.74,0,0,1,.41.4" style="fill:#bfbfbf"/><path d="M1114.29,277.64l-.28,64.21a2.66,2.66,0,0,0-.33-.21l.29-64.2a2,2,0,0,1,.32.2" style="fill:#bebebe"/><path d="M1114,277.44l-.29,64.2h0l.29-64.21h0" style="fill:#bdbdbd"/></g></g></g><g style="isolation:isolate"><g style="clip-path:url(#clip-path-15)"><g style="isolation:isolate"><path d="M1116,276.14l-.29,64.21,0,0,.29-64.21,0,0" style="fill:#bdbdbd"/><path d="M1116,276.16l-.29,64.21a5.11,5.11,0,0,1,.65.4l.29-64.21a5.11,5.11,0,0,0-.65-.4" style="fill:#bebebe"/><path d="M1116.65,276.56l-.29,64.21a3.85,3.85,0,0,1,.81.8l.29-64.21a4.1,4.1,0,0,0-.81-.8" style="fill:#bfbfbf"/><path d="M1117.46,277.36l-.29,64.21a2.17,2.17,0,0,1,.3.53l.29-64.21a2.37,2.37,0,0,0-.3-.53" style="fill:#bebebe"/><path d="M1117.76,277.89l-.29,64.21a2.53,2.53,0,0,1,.12.36l.29-64.21a2.53,2.53,0,0,0-.12-.36" style="fill:#bdbdbd"/><path d="M1117.88,278.25l-.29,64.21c0,.1,0,.2.05.3l.29-64.21c0-.1,0-.2,0-.3" style="fill:#bcbcbc"/><path d="M1117.93,278.55l-.29,64.21c0,.06,0,.13,0,.19l.29-64.21c0-.06,0-.13,0-.19" style="fill:#bcbcbc"/></g></g></g><g style="isolation:isolate"><g style="clip-path:url(#clip-path-16)"><g style="isolation:isolate"><path d="M1114.94,278.73l-.29,64.21a1.44,1.44,0,0,1-.78,1.16l.29-64.21a1.44,1.44,0,0,0,.78-1.16" style="fill:#b3b3b3"/></g></g></g><g style="isolation:isolate"><g style="clip-path:url(#clip-path-17)"><g style="isolation:isolate"><path d="M1114.16,279.89l-.29,64.21a1.44,1.44,0,0,0,.78-1.16l.29-64.21a1.44,1.44,0,0,1-.78,1.16" style="fill:#b3b3b3"/></g></g></g><g style="isolation:isolate"><g style="clip-path:url(#clip-path-18)"><g style="isolation:isolate"><path d="M1117.94,278.74l-.29,64.21a2.9,2.9,0,0,1-1.56,2.33l.29-64.21a2.89,2.89,0,0,0,1.56-2.33" style="fill:#b3b3b3"/></g></g></g><polygon points="539.43 228.42 732.7 331.19 732.41 395.39 539.14 292.63 539.43 228.42" style="fill:#c4c4c4"/><polygon points="732.7 331.19 949.77 192.48 949.48 256.69 732.41 395.39 732.7 331.19" style="fill:#b3b3b3"/><polygon points="535.19 228.53 732.91 333.66 732.62 397.87 534.9 292.74 535.19 228.53" style="fill:#c4c4c4"/><polygon points="732.91 333.66 732.62 397.87 534.9 292.74 535.19 228.53 732.91 333.66" style="fill:#c4c4c4"/><polygon points="732.91 333.66 952 193.67 951.71 257.88 732.62 397.87 732.91 333.66" style="fill:#b3b3b3"/><polygon points="952 193.67 951.71 257.88 732.62 397.87 732.91 333.66 952 193.67" style="fill:#b3b3b3"/><polygon points="733.11 336.13 732.82 400.33 530.67 292.85 530.95 228.64 733.11 336.13" style="fill:#c4c4c4"/><polygon points="954.21 194.85 953.92 259.06 732.82 400.33 733.11 336.13 954.21 194.85" style="fill:#b3b3b3"/><polygon points="733.11 336.13 954.22 194.85 953.93 259.06 732.82 400.34 733.11 336.13" style="fill:#b3b3b3"/><polygon points="530.96 228.64 733.11 336.13 732.82 400.34 530.67 292.85 530.96 228.64" style="fill:#c4c4c4"/><polygon points="1.84 376.87 589.88 1.13 589.6 65.34 1.55 441.08 1.84 376.87" style="fill:#b3b3b3"/><polygon points="592.11 2.31 591.82 66.52 3.78 442.26 4.07 378.06 592.11 2.31" style="fill:#b3b3b3"/><polygon points="4.07 378.06 592.11 2.31 591.82 66.52 3.78 442.26 4.07 378.06" style="fill:#b3b3b3"/><g style="isolation:isolate"><g style="clip-path:url(#clip-path-19)"><g style="isolation:isolate"><path d="M.29,379.2,0,443.41a2.89,2.89,0,0,1,1.55-2.33l.29-64.21A2.89,2.89,0,0,0,.29,379.2" style="fill:#b3b3b3"/></g></g></g><polygon points="594.33 3.49 594.04 67.7 6 443.44 6.29 379.24 594.33 3.49" style="fill:#b3b3b3"/><g style="isolation:isolate"><g style="clip-path:url(#clip-path-20)"><g style="isolation:isolate"><path d="M4.07,378.06l-.29,64.2A1.45,1.45,0,0,0,3,443.43l.29-64.21a1.44,1.44,0,0,1,.78-1.16" style="fill:#b3b3b3"/></g></g></g><g style="isolation:isolate"><g style="clip-path:url(#clip-path-21)"><g style="isolation:isolate"><path d="M3.29,379.22,3,443.43a1.45,1.45,0,0,1,.78-1.17l.29-64.2a1.44,1.44,0,0,0-.78,1.16" style="fill:#b3b3b3"/></g></g></g><polygon points="6.29 379.24 594.33 3.5 594.04 67.7 6 443.44 6.29 379.24" style="fill:#b3b3b3"/><g style="isolation:isolate"><g style="clip-path:url(#clip-path-22)"><g style="isolation:isolate"><path d="M4.27,380.52,4,444.73H4l.29-64.2h0" style="fill:#bdbdbd"/><path d="M4.26,380.52,4,444.72a2,2,0,0,1-.32-.2l.29-64.21a3,3,0,0,0,.32.21" style="fill:#bebebe"/><path d="M3.94,380.31l-.29,64.21a1.74,1.74,0,0,1-.41-.4l.29-64.21a1.74,1.74,0,0,0,.41.4" style="fill:#bfbfbf"/><path d="M3.53,379.91l-.29,64.21a1.74,1.74,0,0,1-.15-.26l.29-64.21a1.35,1.35,0,0,0,.15.26" style="fill:#bebebe"/><path d="M3.38,379.65l-.29,64.21a.64.64,0,0,1-.06-.18l.29-64.21a.64.64,0,0,0,.06.18" style="fill:#bdbdbd"/><path d="M3.32,379.47,3,443.68a.77.77,0,0,1,0-.15l.28-64.21,0,.15" style="fill:#bcbcbc"/><path d="M3.29,379.32,3,443.53a.38.38,0,0,1,0-.1l.29-64.21v.1" style="fill:#bcbcbc"/></g></g></g><g style="isolation:isolate"><g style="clip-path:url(#clip-path-22)"><g style="isolation:isolate"><path d="M3.29,379.22,3,443.43a.38.38,0,0,0,0,.1l.28-64.21v-.1" style="fill:#bcbcbc"/><path d="M3.29,379.32,3,443.53a.77.77,0,0,0,0,.15l.29-64.21,0-.15" style="fill:#bcbcbc"/><path d="M3.32,379.47,3,443.68a.64.64,0,0,0,.06.18l.29-64.21a.64.64,0,0,1-.06-.18" style="fill:#bdbdbd"/><path d="M3.38,379.65l-.29,64.21a1.74,1.74,0,0,0,.15.26l.29-64.21a1.35,1.35,0,0,1-.15-.26" style="fill:#bebebe"/><path d="M3.53,379.91l-.29,64.21a1.74,1.74,0,0,0,.41.4l.29-64.21a1.74,1.74,0,0,1-.41-.4" style="fill:#bfbfbf"/><path d="M3.94,380.31l-.29,64.21a2,2,0,0,0,.32.2l.29-64.2a3,3,0,0,1-.32-.21" style="fill:#bebebe"/><path d="M4.26,380.52,4,444.72H4l.29-64.21h0" style="fill:#bdbdbd"/></g></g></g><g style="isolation:isolate"><g style="clip-path:url(#clip-path-24)"><g style="isolation:isolate"><path d="M2.26,381.81,2,446l0,0,.29-64.21,0,0" style="fill:#bdbdbd"/><path d="M2.23,381.79,1.94,446a5.15,5.15,0,0,1-.65-.41l.29-64.2a5.11,5.11,0,0,0,.65.4" style="fill:#bebebe"/><path d="M1.58,381.39l-.29,64.2a3.42,3.42,0,0,1-.81-.8l.29-64.21a3.65,3.65,0,0,0,.81.81" style="fill:#bfbfbf"/><path d="M.77,380.58.48,444.79a2.61,2.61,0,0,1-.31-.53l.29-64.21a2.61,2.61,0,0,0,.31.53" style="fill:#bebebe"/><path d="M.46,380.05.17,444.26a2.47,2.47,0,0,1-.11-.36l.29-64.21a1.65,1.65,0,0,0,.11.36" style="fill:#bdbdbd"/><path d="M.35,379.69.06,443.9a1.57,1.57,0,0,1,0-.3L.3,379.39a1.57,1.57,0,0,0,0,.3" style="fill:#bcbcbc"/><path d="M.3,379.39,0,443.6a1.21,1.21,0,0,1,0-.19L.29,379.2a1.15,1.15,0,0,0,0,.19" style="fill:#bcbcbc"/></g></g></g><polygon points="399.23 312.81 601.39 420.29 601.1 484.5 398.94 377.01 399.23 312.81" style="fill:#c4c4c4"/><polygon points="601.39 420.3 601.1 484.5 398.94 377.01 399.23 312.81 601.39 420.3" style="fill:#c4c4c4"/><polygon points="399.44 315.27 597.16 420.4 596.87 484.61 399.15 379.48 399.44 315.27" style="fill:#c4c4c4"/><polygon points="597.16 420.4 596.87 484.61 399.15 379.48 399.44 315.27 597.16 420.4" style="fill:#c4c4c4"/><polygon points="592.91 420.5 592.63 484.71 399.36 381.95 399.64 317.74 592.91 420.5" style="fill:#c4c4c4"/><polygon points="164.02 463.1 399.23 312.81 398.94 377.01 163.73 527.31 164.02 463.1" style="fill:#b3b3b3"/><polygon points="6.29 379.24 164.02 463.1 163.73 527.31 6 443.44 6.29 379.24" style="fill:#c4c4c4"/><polygon points="399.23 312.81 398.94 377.01 163.73 527.31 164.02 463.1 399.23 312.81" style="fill:#b3b3b3"/><polygon points="164.02 463.1 163.73 527.31 6 443.44 6.29 379.24 164.02 463.1" style="fill:#c4c4c4"/><polygon points="166.24 464.28 399.44 315.27 399.15 379.48 165.95 528.49 166.24 464.28" style="fill:#b3b3b3"/><polygon points="399.44 315.27 399.15 379.48 165.95 528.49 166.24 464.28 399.44 315.27" style="fill:#b3b3b3"/><polygon points="162 464.39 161.71 528.6 3.98 444.73 4.27 380.52 162 464.39" style="fill:#c4c4c4"/><polygon points="4.27 380.52 162 464.39 161.71 528.6 3.98 444.73 4.27 380.52" style="fill:#c4c4c4"/><g style="isolation:isolate"><g style="clip-path:url(#clip-path-25)"><g style="isolation:isolate"><path d="M162,464.39l-.29,64.21.23.11.29-64.21-.23-.11" style="fill:#bdbdbd"/><path d="M162.23,464.5l-.29,64.21.21.08.29-64.21-.21-.08" style="fill:#bcbcbc"/><path d="M162.44,464.58l-.29,64.21.2.07.28-64.21-.19-.07" style="fill:#bcbcbc"/><path d="M162.63,464.65l-.28,64.21.19,0,.28-64.21-.19-.05" style="fill:#bbb"/><path d="M162.82,464.7l-.28,64.21.18,0,.29-64.2-.19-.05" style="fill:#bababa"/><path d="M163,464.75l-.29,64.2.19,0,.29-64.21-.19,0" style="fill:#b9b9b9"/><path d="M163.2,464.78,162.91,529l.19,0,.29-64.21-.19,0" style="fill:#b9b9b9"/><path d="M163.39,464.81,163.1,529l.2,0,.28-64.21-.19,0" style="fill:#b8b8b8"/><path d="M163.58,464.83,163.3,529h.2l.29-64.21h-.21" style="fill:#b7b7b7"/><path d="M163.79,464.84l-.29,64.21h.22l.28-64.21h-.21" style="fill:#b6b6b6"/><path d="M164,464.85l-.28,64.21H164l.29-64.21H164" style="fill:#b6b6b6"/><path d="M164.24,464.84,164,529.05l.27,0,.29-64.2h-.27" style="fill:#b5b5b5"/><path d="M164.51,464.83l-.29,64.2.32,0,.29-64.21-.32.05" style="fill:#b4b4b4"/><path d="M164.83,464.78,164.54,529a3.64,3.64,0,0,0,1.41-.5l.29-64.21a3.7,3.7,0,0,1-1.41.5" style="fill:#b3b3b3"/></g></g></g><g style="isolation:isolate"><g style="clip-path:url(#clip-path-26)"><g style="isolation:isolate"><path d="M166.24,464.28,166,528.49a3.64,3.64,0,0,1-1.41.5l.29-64.2a4,4,0,0,0,1.41-.51" style="fill:#b3b3b3"/><path d="M164.83,464.79l-.29,64.2-.32,0,.29-64.2.32,0" style="fill:#b4b4b4"/><path d="M164.51,464.83l-.29,64.2-.27,0,.29-64.21h.27" style="fill:#b5b5b5"/><path d="M164.24,464.84,164,529.05h-.23l.29-64.21h.23" style="fill:#b6b6b6"/><path d="M164,464.85l-.29,64.21h-.22l.29-64.21H164" style="fill:#b6b6b6"/><path d="M163.79,464.84l-.29,64.21h-.2l.28-64.21h.21" style="fill:#b7b7b7"/><path d="M163.58,464.83,163.3,529l-.2,0,.29-64.21.19,0" style="fill:#b8b8b8"/><path d="M163.39,464.81,163.1,529l-.19,0,.29-64.21.19,0" style="fill:#b9b9b9"/><path d="M163.2,464.78,162.91,529l-.19,0,.29-64.2.19,0" style="fill:#b9b9b9"/><path d="M163,464.75l-.29,64.2-.18,0,.29-64.21.18.05" style="fill:#bababa"/><path d="M162.83,464.7l-.29,64.21-.19,0,.29-64.21.19.05" style="fill:#bbb"/><path d="M162.64,464.65l-.29,64.21-.2-.07.29-64.21.2.07" style="fill:#bcbcbc"/><path d="M162.44,464.58l-.29,64.21-.21-.08.29-64.21.21.08" style="fill:#bcbcbc"/><path d="M162.23,464.5l-.29,64.21-.23-.11.29-64.21.23.11" style="fill:#bdbdbd"/></g></g></g><polygon points="399.64 317.74 399.36 381.95 168.17 529.67 168.46 465.46 399.64 317.74" style="fill:#b3b3b3"/><polygon points="159.99 465.68 159.7 529.88 1.97 446.02 2.26 381.81 159.99 465.68" style="fill:#c4c4c4"/><g style="isolation:isolate"><g style="clip-path:url(#clip-path-27)"><g style="isolation:isolate"><path d="M168.46,465.46l-.29,64.21a7.59,7.59,0,0,1-2.81,1l.29-64.21a7.59,7.59,0,0,0,2.81-1" style="fill:#b3b3b3"/><path d="M165.65,466.47l-.29,64.21-.65.08.29-64.21.65-.08" style="fill:#b4b4b4"/><path d="M165,466.55l-.29,64.21c-.17,0-.35,0-.53,0l.29-64.2.53,0" style="fill:#b5b5b5"/><path d="M164.47,466.59l-.29,64.2h-.47l.29-64.21c.15,0,.31,0,.47,0" style="fill:#b6b6b6"/><path d="M164,466.59l-.29,64.21h-.44l.29-64.21H164" style="fill:#b6b6b6"/><path d="M163.56,466.58l-.29,64.21c-.13,0-.27,0-.4,0l.28-64.2.41,0" style="fill:#b7b7b7"/><path d="M163.15,466.56l-.28,64.2-.4,0,.29-64.21.39.05" style="fill:#b8b8b8"/><path d="M162.76,466.51l-.29,64.21-.38-.05.29-64.21.38.05" style="fill:#b9b9b9"/><path d="M162.38,466.46l-.29,64.21-.37-.07.29-64.21.37.07" style="fill:#b9b9b9"/><path d="M162,466.39l-.29,64.21-.37-.09.28-64.21.38.09" style="fill:#bababa"/><path d="M161.63,466.3l-.28,64.21-.39-.11.29-64.21.38.11" style="fill:#bbb"/><path d="M161.25,466.19,161,530.4l-.39-.13.29-64.21.39.13" style="fill:#bcbcbc"/><path d="M160.86,466.06l-.29,64.21-.42-.17.29-64.21.42.17" style="fill:#bcbcbc"/><path d="M160.44,465.89l-.29,64.21-.45-.22.29-64.2a4.69,4.69,0,0,0,.45.21" style="fill:#bdbdbd"/></g></g></g><polygon points="361.73 568.23 592.91 420.5 592.63 484.71 361.44 632.43 361.73 568.23" style="fill:#b3b3b3"/><polygon points="597.16 420.4 596.87 484.61 363.67 633.62 363.95 569.41 597.16 420.4" style="fill:#b3b3b3"/><polygon points="363.95 569.41 597.16 420.4 596.87 484.61 363.67 633.62 363.95 569.41" style="fill:#b3b3b3"/><g style="isolation:isolate"><g style="clip-path:url(#clip-path-28)"><g style="isolation:isolate"><path d="M360.17,570.56l-.29,64.2a2.92,2.92,0,0,1,1.56-2.33l.29-64.21a2.92,2.92,0,0,0-1.56,2.34" style="fill:#b3b3b3"/></g></g></g><polygon points="601.39 420.29 601.1 484.5 365.88 634.8 366.17 570.59 601.39 420.29" style="fill:#b3b3b3"/><g style="isolation:isolate"><g style="clip-path:url(#clip-path-29)"><g style="isolation:isolate"><path d="M364,569.41l-.28,64.21a1.44,1.44,0,0,0-.78,1.17l.28-64.21a1.46,1.46,0,0,1,.78-1.17" style="fill:#b3b3b3"/></g></g></g><g style="isolation:isolate"><g style="clip-path:url(#clip-path-30)"><g style="isolation:isolate"><path d="M363.17,570.58l-.28,64.2a1.44,1.44,0,0,1,.78-1.16l.28-64.21a1.46,1.46,0,0,0-.78,1.17" style="fill:#b3b3b3"/></g></g></g><polygon points="366.17 570.59 601.39 420.3 601.1 484.5 365.88 634.8 366.17 570.59" style="fill:#b3b3b3"/><g style="isolation:isolate"><g style="clip-path:url(#clip-path-31)"><g style="isolation:isolate"><path d="M364.16,571.88l-.29,64.21h0l.29-64.21h0" style="fill:#bdbdbd"/><path d="M364.14,571.87l-.29,64.21a2.53,2.53,0,0,1-.32-.21l.29-64.2a2.49,2.49,0,0,0,.32.2" style="fill:#bebebe"/><path d="M363.82,571.67l-.29,64.2a1.74,1.74,0,0,1-.41-.4l.29-64.2a2.23,2.23,0,0,0,.41.4" style="fill:#bfbfbf"/><path d="M363.41,571.27l-.29,64.2a1.35,1.35,0,0,1-.15-.26l.29-64.21a1.82,1.82,0,0,0,.15.27" style="fill:#bebebe"/><path d="M363.26,571,363,635.21l-.06-.18.29-64.21.06.18" style="fill:#bdbdbd"/><path d="M363.2,570.82,362.91,635a.77.77,0,0,1,0-.15l.29-64.21a.77.77,0,0,0,0,.15" style="fill:#bcbcbc"/><path d="M363.18,570.67l-.29,64.21v-.1l.28-64.2s0,.06,0,.09" style="fill:#bcbcbc"/></g></g></g><g style="isolation:isolate"><g style="clip-path:url(#clip-path-31)"><g style="isolation:isolate"><path d="M363.17,570.58l-.28,64.21v.09l.29-64.21s0-.06,0-.09" style="fill:#bcbcbc"/><path d="M363.18,570.67l-.29,64.21a.77.77,0,0,0,0,.15l.29-64.21a.77.77,0,0,1,0-.15" style="fill:#bcbcbc"/><path d="M363.2,570.82,362.91,635l.06.18.29-64.21-.06-.18" style="fill:#bdbdbd"/><path d="M363.26,571,363,635.21a1.35,1.35,0,0,0,.15.26l.29-64.2a1.82,1.82,0,0,1-.15-.27" style="fill:#bebebe"/><path d="M363.41,571.27l-.29,64.2a1.74,1.74,0,0,0,.41.4l.29-64.2a2.23,2.23,0,0,1-.41-.4" style="fill:#bfbfbf"/><path d="M363.82,571.67l-.29,64.2a2.53,2.53,0,0,0,.32.21l.29-64.21a2.49,2.49,0,0,1-.32-.2" style="fill:#bebebe"/><path d="M364.14,571.87l-.29,64.21h0l.29-64.21h0" style="fill:#bdbdbd"/></g></g></g><g style="isolation:isolate"><g style="clip-path:url(#clip-path-33)"><g style="isolation:isolate"><path d="M362.14,573.16l-.29,64.21,0,0,.29-64.2h0" style="fill:#bdbdbd"/><path d="M362.11,573.15l-.29,64.2a5,5,0,0,1-.64-.4l.29-64.21a6.42,6.42,0,0,0,.64.41" style="fill:#bebebe"/><path d="M361.47,572.74,361.18,637a3.91,3.91,0,0,1-.82-.8l.29-64.21a3.91,3.91,0,0,0,.82.8" style="fill:#bfbfbf"/><path d="M360.65,571.94l-.29,64.21a3.64,3.64,0,0,1-.3-.54l.29-64.2a2.85,2.85,0,0,0,.3.53" style="fill:#bebebe"/><path d="M360.35,571.41l-.29,64.2a1.9,1.9,0,0,1-.12-.36l.29-64.2a2.53,2.53,0,0,0,.12.36" style="fill:#bdbdbd"/><path d="M360.23,571.05l-.29,64.2c0-.1,0-.2-.05-.3l.29-64.2c0,.1,0,.2.05.3" style="fill:#bcbcbc"/><path d="M360.18,570.75l-.29,64.2c0-.06,0-.12,0-.19l.29-64.2c0,.06,0,.12,0,.19" style="fill:#bcbcbc"/></g></g></g><polygon points="366.17 570.59 523.9 654.46 523.61 718.66 365.88 634.8 366.17 570.59" style="fill:#c4c4c4"/><polygon points="523.9 654.46 1111.94 278.71 1111.65 342.92 523.61 718.66 523.9 654.46" style="fill:#b3b3b3"/><polygon points="1111.94 278.71 523.9 654.46 366.17 570.59 601.39 420.3 399.23 312.81 164.02 463.1 6.29 379.24 594.33 3.5 752.06 87.36 530.96 228.64 733.11 336.13 954.22 194.85 1111.94 278.71" style="fill:#f6f6f6"/><polygon points="1111.94 278.71 1111.66 342.92 523.61 718.66 523.9 654.46 1111.94 278.71" style="fill:#b3b3b3"/><polygon points="523.9 654.46 523.61 718.66 365.88 634.8 366.17 570.59 523.9 654.46" style="fill:#c4c4c4"/><polygon points="526.12 655.63 1114.16 279.89 1113.87 344.1 525.83 719.84 526.12 655.63" style="fill:#b3b3b3"/><polygon points="1114.16 279.89 1113.87 344.1 525.83 719.84 526.12 655.63 1114.16 279.89" style="fill:#b3b3b3"/><polygon points="521.89 655.74 521.6 719.95 363.87 636.09 364.16 571.88 521.89 655.74" style="fill:#c4c4c4"/><polygon points="364.16 571.88 521.89 655.74 521.6 719.95 363.87 636.09 364.16 571.88" style="fill:#c4c4c4"/><g style="isolation:isolate"><g style="clip-path:url(#clip-path-34)"><g style="isolation:isolate"><path d="M521.89,655.74,521.6,720l.22.11.29-64.21a1.51,1.51,0,0,1-.22-.11" style="fill:#bdbdbd"/><path d="M522.11,655.85l-.29,64.21.21.08.29-64.2-.21-.09" style="fill:#bcbcbc"/><path d="M522.32,655.94l-.29,64.2.2.07.29-64.21-.2-.06" style="fill:#bcbcbc"/><path d="M522.52,656l-.29,64.21.19,0,.29-64.2-.19-.06" style="fill:#bbb"/><path d="M522.71,656.06l-.29,64.2.19,0,.28-64.21-.18,0" style="fill:#bababa"/><path d="M522.89,656.1l-.28,64.21.18,0,.29-64.21-.19,0" style="fill:#b9b9b9"/><path d="M523.08,656.13l-.29,64.21.19,0,.29-64.21-.19,0" style="fill:#b9b9b9"/><path d="M523.27,656.16,523,720.37l.2,0,.29-64.21-.2,0" style="fill:#b8b8b8"/><path d="M523.47,656.18l-.29,64.21h.2l.29-64.2-.2,0" style="fill:#b7b7b7"/><path d="M523.67,656.2l-.29,64.2h.22l.29-64.21h-.22" style="fill:#b6b6b6"/><path d="M523.89,656.2l-.29,64.21h.24l.28-64.21h-.23" style="fill:#b6b6b6"/><path d="M524.12,656.2l-.28,64.21.26,0,.29-64.21-.27,0" style="fill:#b5b5b5"/><path d="M524.39,656.18l-.29,64.21.33,0,.29-64.21-.33,0" style="fill:#b4b4b4"/><path d="M524.72,656.14l-.29,64.21a3.83,3.83,0,0,0,1.4-.51l.29-64.2a3.82,3.82,0,0,1-1.4.5" style="fill:#b3b3b3"/></g></g></g><g style="isolation:isolate"><g style="clip-path:url(#clip-path-35)"><g style="isolation:isolate"><path d="M526.12,655.64l-.29,64.2a3.83,3.83,0,0,1-1.4.51l.29-64.21a3.82,3.82,0,0,0,1.4-.5" style="fill:#b3b3b3"/><path d="M524.72,656.14l-.29,64.21-.33,0,.29-64.21.33,0" style="fill:#b4b4b4"/><path d="M524.39,656.18l-.29,64.21-.26,0,.28-64.21.27,0" style="fill:#b5b5b5"/><path d="M524.12,656.2l-.28,64.21h-.24l.29-64.21h.23" style="fill:#b6b6b6"/><path d="M523.89,656.2l-.29,64.21h-.22l.29-64.21h.22" style="fill:#b6b6b6"/><path d="M523.67,656.2l-.29,64.21-.2,0,.29-64.21.2,0" style="fill:#b7b7b7"/><path d="M523.47,656.18l-.29,64.21-.2,0,.29-64.21.2,0" style="fill:#b8b8b8"/><path d="M523.27,656.16,523,720.37l-.19,0,.29-64.21.19,0" style="fill:#b9b9b9"/><path d="M523.08,656.13l-.29,64.21-.18,0,.29-64.21.18,0" style="fill:#b9b9b9"/><path d="M522.9,656.1l-.29,64.21-.19,0,.29-64.2.19,0" style="fill:#bababa"/><path d="M522.71,656.06l-.29,64.2-.19,0,.29-64.21.19.06" style="fill:#bbb"/><path d="M522.52,656l-.29,64.21-.2-.07.29-64.2.2.06" style="fill:#bcbcbc"/><path d="M522.32,655.94l-.29,64.2-.21-.08.29-64.21.21.09" style="fill:#bcbcbc"/><path d="M522.11,655.85l-.29,64.21-.22-.11.29-64.21a1.51,1.51,0,0,0,.22.11" style="fill:#bdbdbd"/></g></g></g><path d="M1116,276.14c2.45,1.3,2.63,3.51.41,4.93l-588,375.74a9.26,9.26,0,0,1-8.47.22L362.14,573.16c-2.45-1.3-2.64-3.51-.41-4.94L592.92,420.5,399.64,317.74,168.46,465.46a9.29,9.29,0,0,1-8.47.22L2.26,381.81c-2.45-1.3-2.64-3.52-.42-4.94l588-375.74a9.31,9.31,0,0,1,8.48-.21L756.09,84.79c2.45,1.3,2.63,3.51.41,4.93L539.43,228.42,732.7,331.18l217.07-138.7a9.29,9.29,0,0,1,8.47-.21ZM526.12,655.64l588-375.75c1.11-.71,1-1.81-.2-2.46L956.23,193.56a4.63,4.63,0,0,0-4.23.11l-219.09,140L535.19,228.53l219.09-140c1.11-.71,1-1.81-.21-2.47L596.34,2.21a4.61,4.61,0,0,0-4.23.1L4.07,378.06c-1.11.71-1,1.81.2,2.46L162,464.39a4.66,4.66,0,0,0,4.24-.11l233.2-149L597.16,420.4,364,569.41c-1.11.71-1,1.82.21,2.47l157.73,83.86a4.61,4.61,0,0,0,4.23-.1" style="fill:#f6f6f6"/><path d="M1114,277.43c1.22.65,1.31,1.75.2,2.46l-588,375.75a4.61,4.61,0,0,1-4.23.1L364.16,571.88c-1.23-.65-1.32-1.76-.21-2.47l233.21-149L399.44,315.27l-233.2,149a4.66,4.66,0,0,1-4.24.11L4.27,380.52c-1.22-.65-1.31-1.75-.2-2.46l588-375.75a4.64,4.64,0,0,1,4.23-.1L754.07,86.07c1.23.66,1.32,1.76.21,2.47l-219.09,140L732.91,333.66,952,193.67a4.63,4.63,0,0,1,4.23-.11Zm-590.06,377,588-375.75L954.21,194.85,733.11,336.13,531,228.64,752.06,87.36,594.33,3.49,6.29,379.24,164,463.1,399.23,312.81,601.39,420.29,366.17,570.59,523.9,654.46" style="fill:#f6f6f6"/><polygon points="1116.38 281.07 1116.09 345.28 528.05 721.02 528.34 656.82 1116.38 281.07" style="fill:#b3b3b3"/><polygon points="519.87 657.03 519.58 721.24 361.85 637.37 362.14 573.16 519.87 657.03" style="fill:#c4c4c4"/><g style="isolation:isolate"><g style="clip-path:url(#clip-path-36)"><g style="isolation:isolate"><path d="M528.34,656.81,528.05,721a7.46,7.46,0,0,1-2.81,1l.29-64.21a7.29,7.29,0,0,0,2.81-1" style="fill:#b3b3b3"/><path d="M525.53,657.82,525.24,722l-.64.08.29-64.21c.21,0,.43,0,.64-.08" style="fill:#b4b4b4"/><path d="M524.89,657.9l-.29,64.21-.54,0,.29-64.21.54,0" style="fill:#b5b5b5"/><path d="M524.35,657.94l-.29,64.21h-.47l.29-64.21h.47" style="fill:#b6b6b6"/><path d="M523.88,658l-.29,64.21-.43,0,.29-64.2h.43" style="fill:#b6b6b6"/><path d="M523.45,657.94l-.29,64.2-.41,0,.29-64.21.41,0" style="fill:#b7b7b7"/><path d="M523,657.91l-.29,64.21-.39,0,.29-64.21.39,0" style="fill:#b8b8b8"/><path d="M522.65,657.87l-.29,64.21L522,722l.29-64.21.38.06" style="fill:#b9b9b9"/><path d="M522.27,657.81,522,722l-.38-.07.29-64.21.38.07" style="fill:#b9b9b9"/><path d="M521.89,657.74,521.6,722l-.37-.09.29-64.21c.12,0,.25.06.37.09" style="fill:#bababa"/><path d="M521.52,657.65l-.29,64.21-.38-.1.29-64.21.38.1" style="fill:#bbb"/><path d="M521.14,657.55l-.29,64.21-.4-.14.29-64.2.4.13" style="fill:#bcbcbc"/><path d="M520.74,657.42l-.29,64.2a3.69,3.69,0,0,1-.42-.17l.29-64.2.42.17" style="fill:#bcbcbc"/><path d="M520.32,657.25l-.29,64.2-.45-.21.29-64.21.45.22" style="fill:#bdbdbd"/></g></g></g></g></g></g></g></g></svg>