<svg xmlns="http://www.w3.org/2000/svg" xmlns:xlink="http://www.w3.org/1999/xlink" viewBox="0 0 20.06 41.56"><defs><linearGradient id="linear-gradient" x1="-228.17" y1="595.51" x2="-223.51" y2="600.16" gradientTransform="translate(213.02 609.79) rotate(141.24)" gradientUnits="userSpaceOnUse"><stop offset="0.33" stop-color="#a7a59f"/><stop offset="0.78" stop-color="#63615f"/></linearGradient><linearGradient id="Neues_Verlaufsfeld_11" x1="44.32" y1="-19.34" x2="48.77" y2="-14.89" gradientTransform="matrix(0.42, -0.42, 0.74, 0.57, 7.51, 33.5)" gradientUnits="userSpaceOnUse"><stop offset="0.01" stop-color="#a7a59f"/><stop offset="0.39" stop-color="#fff"/><stop offset="0.83" stop-color="#a7a59f"/></linearGradient><linearGradient id="Neues_Verlaufsfeld_12" x1="-331.13" y1="12.2" x2="-326.35" y2="12.2" gradientTransform="translate(333.72 21.65)" gradientUnits="userSpaceOnUse"><stop offset="0.14" stop-color="#181b1a"/><stop offset="0.57" stop-color="#395156"/><stop offset="0.94" stop-color="#4d6266"/></linearGradient><linearGradient id="Neues_Verlaufsfeld_12-2" x1="-179.19" y1="-85.88" x2="-174.37" y2="-85.88" gradientTransform="translate(185.73 121.68)" xlink:href="#Neues_Verlaufsfeld_12"/><linearGradient id="linear-gradient-2" x1="-327.09" y1="10.73" x2="-321.28" y2="10.73" gradientTransform="translate(333.1 20.65)" gradientUnits="userSpaceOnUse"><stop offset="0.31" stop-color="#8b151a"/><stop offset="0.73" stop-color="#bf0c1d"/><stop offset="0.94" stop-color="#d0031c"/></linearGradient><linearGradient id="linear-gradient-3" x1="-170.17" y1="-98.88" x2="-185.84" y2="-98.88" gradientTransform="translate(185.73 121.68)" gradientUnits="userSpaceOnUse"><stop offset="0.46" stop-color="#bf0c1d"/><stop offset="0.68" stop-color="#8b151a"/><stop offset="1" stop-color="#8b151a"/></linearGradient><linearGradient id="linear-gradient-4" x1="-543.18" y1="302.67" x2="-540.13" y2="305.72" gradientTransform="matrix(0.37, 0.83, -0.79, 0.52, 455.66, 319.11)" gradientUnits="userSpaceOnUse"><stop offset="0.16" stop-color="#a7a59f"/><stop offset="0.96" stop-color="#63615f"/></linearGradient><linearGradient id="linear-gradient-5" x1="-335.11" y1="3.85" x2="-320.73" y2="3.85" gradientTransform="translate(331.69 21.65) scale(0.99 1)" gradientUnits="userSpaceOnUse"><stop offset="0.17" stop-color="#fff"/><stop offset="0.63" stop-color="#a7a59f"/><stop offset="0.8" stop-color="#e3e1da"/><stop offset="1" stop-color="#fff"/></linearGradient><linearGradient id="linear-gradient-6" x1="-326.12" y1="-0.53" x2="-320.3" y2="-0.53" gradientTransform="translate(333.72 21.65)" gradientUnits="userSpaceOnUse"><stop offset="0.3" stop-color="#bf0c1d"/><stop offset="0.49" stop-color="#d0031c"/><stop offset="0.72" stop-color="#e1071c"/></linearGradient><linearGradient id="linear-gradient-7" x1="-329.55" y1="-7.33" x2="-321.18" y2="-7.33" gradientTransform="translate(333.72 21.65)" gradientUnits="userSpaceOnUse"><stop offset="0.23" stop-color="#fff"/><stop offset="0.45" stop-color="#a7a59f"/><stop offset="0.75" stop-color="#e3e1da"/><stop offset="0.85" stop-color="#ebeae5"/><stop offset="1" stop-color="#fff"/></linearGradient><linearGradient id="linear-gradient-8" x1="-328.97" y1="-10.02" x2="-322.61" y2="-10.02" gradientTransform="translate(333.72 21.65)" gradientUnits="userSpaceOnUse"><stop offset="0" stop-color="#fff"/><stop offset="0.56" stop-color="#e3e1da"/><stop offset="0.87" stop-color="#fff"/><stop offset="1" stop-color="#a7a59f"/></linearGradient><linearGradient id="linear-gradient-9" x1="-324.56" y1="-7.69" x2="-317.77" y2="-7.69" gradientTransform="translate(333.72 21.65)" gradientUnits="userSpaceOnUse"><stop offset="0.16" stop-color="#e3e1da"/><stop offset="0.29" stop-color="#e3e1da"/><stop offset="0.44" stop-color="#ecebe6"/><stop offset="0.73" stop-color="#fafaf8"/><stop offset="0.94" stop-color="#fff"/></linearGradient><linearGradient id="linear-gradient-10" x1="-325.77" y1="-15.15" x2="-319.47" y2="-15.15" gradientTransform="matrix(1.02, 0.01, 0.01, 1, 335.15, 23.98)" gradientUnits="userSpaceOnUse"><stop offset="0.49" stop-color="#bf0c1d"/><stop offset="0.89" stop-color="#e1071c"/></linearGradient><linearGradient id="linear-gradient-11" x1="-327.58" y1="-3.68" x2="-318.64" y2="-3.68" gradientTransform="matrix(0.96, 0.03, 0.03, 1.02, 319.31, 21.51)" gradientUnits="userSpaceOnUse"><stop offset="0.05" stop-color="#fff"/><stop offset="0.32" stop-color="#a7a59f"/><stop offset="0.52" stop-color="#fff"/><stop offset="0.68" stop-color="#fcfcfb"/><stop offset="0.84" stop-color="#f3f2ef"/><stop offset="1" stop-color="#e4e2db"/><stop offset="1" stop-color="#e3e1da"/></linearGradient><linearGradient id="linear-gradient-12" x1="276.06" y1="224.68" x2="281.24" y2="238.91" gradientTransform="matrix(-0.32, -0.95, -0.75, 0.21, 277.75, 249.21)" gradientUnits="userSpaceOnUse"><stop offset="0.26" stop-color="#9c5521"/><stop offset="0.73" stop-color="#5f3919"/></linearGradient><linearGradient id="linear-gradient-13" x1="-561.51" y1="306.44" x2="-558.45" y2="309.49" gradientTransform="matrix(0.34, 0.71, -0.56, 0.67, 377.77, 195.42)" xlink:href="#linear-gradient-4"/><linearGradient id="linear-gradient-14" x1="-506.17" y1="323.11" x2="-501.51" y2="327.77" gradientTransform="matrix(0.35, 0.94, -0.94, 0.35, 495.14, 388.15)" xlink:href="#linear-gradient"/><linearGradient id="Neues_Verlaufsfeld_11-2" x1="-162.24" y1="15.29" x2="-168.29" y2="15.29" gradientTransform="translate(179.33 12.59)" xlink:href="#Neues_Verlaufsfeld_11"/></defs><title>Asset 2</title><g id="Layer_2" data-name="Layer 2"><g id="Teil_oben" data-name="Teil oben"><path d="M14.19,7.41c-1.35,2.33-2.17,2.27-3,1.77S9.67,7.91,11,5.57s3.15-3.81,4-3.3S15.53,5.07,14.19,7.41Z" style="fill:#e1071c"/><path d="M13.41.67c1-1.08,1.7-.7,2.48,0s1.36,1.51.37,2.58S13.83,4.64,13,3.92,12.42,1.74,13.41.67Z" style="fill:url(#linear-gradient)"/><path d="M7.92,15.9c-2.29,2-3.23,1.51-4.09.5s-1.33-2.16,1-4.14,4.86-2.75,5.72-1.75S10.21,13.93,7.92,15.9Z" style="fill:#561111"/><path d="M12.24,3.78l.35.06a5,5,0,0,1,2.32,1.58l.1.16c.56.06.71-.26.33-.8A5,5,0,0,0,13,3.21C12.27,3,12,3.25,12.24,3.78Z" style="fill:#8b151a"/><path d="M12.11,3.88a1.34,1.34,0,0,1,.41,0,2.94,2.94,0,0,1,2.42,1.57,1,1,0,0,1,.08.22.93.93,0,0,0,.69-1.41,3,3,0,0,0-2.42-1.57C12.41,2.63,11.92,3.16,12.11,3.88Z" style="fill:url(#Neues_Verlaufsfeld_11)"/><path d="M13.42,9.16a2.36,2.36,0,0,1-1.86-1.05c-.21-.31-.63-1.27-.86-1.29a3.3,3.3,0,0,0-3.4-.33,4.19,4.19,0,0,0-2.24,4.76c.27,1.79,2.31,3,4.56,2.63,1.6-.25,2.11-1,2.17-2.07a2.58,2.58,0,0,0,.47-1,2.2,2.2,0,0,0,1.6-.55A.67.67,0,0,0,13.42,9.16Z" style="fill:#fbcc95"/><path d="M13.63,10a2.06,2.06,0,0,1-1.5.5.11.11,0,1,0,0,.22,2.26,2.26,0,0,0,1.68-.59.11.11,0,0,0-.18-.13Z" style="fill:#f6b17e"/><path d="M11.42,9.81A3.3,3.3,0,0,0,12,8.63a2.72,2.72,0,0,1-.46-.52c-.2-.29-.58-1.15-.82-1.27a2,2,0,0,1-.28.55C9.3,8.85,6.76,10,5,9.6a5.7,5.7,0,0,0,0,1.65,3.07,3.07,0,0,0,.14.52,3.1,3.1,0,0,0,.67.21A6.28,6.28,0,0,0,11.42,9.81Z" style="fill:#f6b17e"/><path d="M10.05,39c-1.54.77-2.27.5-2.84.1s-.79-.81.75-1.58A9.61,9.61,0,0,1,9.13,37a3.43,3.43,0,0,1,1.31-1.21c1.55-.76,2.74-.7,3.42-.22s0,1.49-1.56,2.26Z" style="fill:#181b1a"/><path d="M4.26,35.63c-1.33.89-.88,1.31-.17,1.64s1.4.46,2.72-.43a6.32,6.32,0,0,0,.84-.68,6.06,6.06,0,0,0,2.08-.8c1.33-.89,1.22-1.54.39-1.93s-2.57,0-3.9.9Z" style="fill:#181b1a"/><path d="M6.27,32.56a3.38,3.38,0,0,1-3.07.13c-.79-.46-.7-1.25.22-1.78a3.46,3.46,0,0,1,3.08-.13C7.28,31.24,7.19,32,6.27,32.56Z" style="fill:#395156"/><path d="M10.12,33a3.81,3.81,0,0,0-2.75.29,4.27,4.27,0,0,0-.87-2.51c-.79-.45-2.72.07-3.63.6s-.07,4.71.72,5.16h0a2.1,2.1,0,0,0,.47.29c.71.33,1.4.45,2.72-.44a5.6,5.6,0,0,0,.84-.67,6.5,6.5,0,0,0,2.08-.8C11.06,34,11,33.39,10.12,33Z" style="fill:url(#Neues_Verlaufsfeld_12)"/><path d="M6,32.32a3,3,0,0,1-2.69.12c-.7-.4-.61-1.1.19-1.56a3,3,0,0,1,2.69-.11C6.91,31.17,6.83,31.86,6,32.32Z" style="fill:#181b1a"/><path d="M10.54,34.48a3.46,3.46,0,0,1-3.08.13c-.79-.46-.69-1.26.22-1.78a3.43,3.43,0,0,1,3.08-.13C11.55,33.16,11.45,34,10.54,34.48Z" style="fill:#4d6266"/><path d="M13.89,34.79a2.12,2.12,0,0,0-2.49-.52c0-.78-.22-1.42-.64-1.57a5.07,5.07,0,0,0-3.43.42c-.81.47-1,4-.53,5.09l.06.11.06.07a1.48,1.48,0,0,0,.29.24c.57.41,1.3.67,2.84-.09L12.3,37.4C13.84,36.64,14.55,35.82,13.89,34.79Z" style="fill:url(#Neues_Verlaufsfeld_12-2)"/><path d="M10.94,36.69c-.09.2-.25.32-.32.09a13.18,13.18,0,0,1,.17-2.52c.09-.2.21-.11.29.05A10,10,0,0,1,10.94,36.69Z" style="fill:#fff"/><path d="M10.36,34.26a3,3,0,0,1-2.7.11c-.69-.39-.6-1.09.2-1.55a3,3,0,0,1,2.69-.11C11.24,33.11,11.15,33.8,10.36,34.26Z" style="fill:#181b1a"/><path d="M6.22,30.69c0-2,1.08-2.32,2.57-2.32s2.81.28,2.81,2.32-1.2,3.7-2.69,3.7S6.22,32.74,6.22,30.69Z" style="fill:url(#linear-gradient-2)"/><path d="M1.89,28.72c0-2,1.07-2.32,2.56-2.32s2.81.28,2.81,2.32-1.2,3.71-2.69,3.71S1.89,30.77,1.89,28.72Z" style="fill:#8b151a"/><path d="M6.44,32.15a4.87,4.87,0,0,0,.21.53c.37,0,.76,0,1.15,0a9.42,9.42,0,0,0,3.57-.53,5.09,5.09,0,0,0,.14-.56,9.25,9.25,0,0,1-3.71.58C7.34,32.2,6.88,32.18,6.44,32.15Z" style="fill:#8b151a"/><path d="M14.69,25c0,6.38-2.8,7.24-6.64,7.24S.76,31.34.76,25s3.11-11.56,7-11.56S14.69,18.57,14.69,25Z" style="fill:url(#linear-gradient-3)"/><path d="M11.41,15.27a11.24,11.24,0,0,1,2.38,4.12,17.82,17.82,0,0,1,.9,5.69,9.11,9.11,0,0,1-1,4.92,4.27,4.27,0,0,1-2.77,1.85c-.85.21-2.11-.65-2.11-7,0-3.19-.15-5.24-.25-6.64a8,8,0,0,1,0-2.69C9,14.2,10.34,14.17,11.41,15.27Z" style="fill:#bf0c1d"/><path d="M8.61,15.48c.44-1.24,1.76-1.27,2.81-.18a10.89,10.89,0,0,1,2.35,4.07,17.62,17.62,0,0,1,.91,5.71,9.15,9.15,0,0,1-1,4.93,4.25,4.25,0,0,1-2.73,1.82,1,1,0,0,1-1.13-.56c-.54-.8-1-2.62-1-6.45,0-3-.14-5-.24-6.38a2.45,2.45,0,0,1,0-.27A7.07,7.07,0,0,1,8.61,15.48Z" style="fill:#c00c1d"/><path d="M8.67,15.48c.46-1.21,1.73-1.24,2.77-.16a11,11,0,0,1,2.32,4,18.06,18.06,0,0,1,.9,5.75,9.1,9.1,0,0,1-1,4.92A4.24,4.24,0,0,1,11,31.81a1,1,0,0,1-1.14-.54c-.54-.79-1-2.58-1-6.44,0-3-.14-5-.24-6.39q0-.15,0-.27A6.85,6.85,0,0,1,8.67,15.48Z" style="fill:#c10c1d"/><path d="M8.72,15.48c.48-1.17,1.72-1.2,2.74-.13a10.68,10.68,0,0,1,2.28,4,17.92,17.92,0,0,1,.91,5.78,9.05,9.05,0,0,1-1,4.92A4.11,4.11,0,0,1,11,31.78a1,1,0,0,1-1.14-.51c-.55-.77-.93-2.53-.93-6.43,0-3-.15-5-.26-6.41a2.45,2.45,0,0,0,0-.27A6.54,6.54,0,0,1,8.72,15.48Z" style="fill:#c20c1d"/><path d="M8.77,15.48c.5-1.13,1.7-1.16,2.7-.11a10.53,10.53,0,0,1,2.25,3.92,18,18,0,0,1,.91,5.8,9.13,9.13,0,0,1-1,4.92A4.09,4.09,0,0,1,11,31.76a1,1,0,0,1-1.14-.5C9.32,30.52,9,28.78,9,24.84c0-3-.16-5-.27-6.41,0-.09,0-.18,0-.27A6.46,6.46,0,0,1,8.77,15.48Z" style="fill:#c30b1d"/><path d="M8.83,15.49c.51-1.1,1.67-1.13,2.66-.1a10.62,10.62,0,0,1,2.22,3.87,18.15,18.15,0,0,1,.91,5.83,9.17,9.17,0,0,1-1,4.93A4.07,4.07,0,0,1,11,31.74a1,1,0,0,1-1.14-.48C9.35,30.53,9,28.83,9,24.85c0-3-.17-5-.28-6.42,0-.1,0-.19,0-.28A5.9,5.9,0,0,1,8.83,15.49Z" style="fill:#c30b1d"/><path d="M8.88,15.49c.52-1.06,1.66-1.09,2.63-.07a10.41,10.41,0,0,1,2.19,3.82,18.42,18.42,0,0,1,.91,5.85,9.12,9.12,0,0,1-1,4.93,4,4,0,0,1-2.51,1.7,1.07,1.07,0,0,1-1.15-.46c-.55-.71-.87-2.39-.87-6.4,0-2.94-.18-5-.29-6.43l0-.28A5.65,5.65,0,0,1,8.88,15.49Z" style="fill:#c40b1d"/><path d="M8.94,15.49c.53-1,1.63-1.05,2.58-.05a10.3,10.3,0,0,1,2.16,3.77,18.33,18.33,0,0,1,.91,5.88,9.09,9.09,0,0,1-1,4.93,4,4,0,0,1-2.47,1.68A1.06,1.06,0,0,1,10,31.25c-.56-.68-.86-2.34-.86-6.38,0-2.94-.18-5-.3-6.45a2.45,2.45,0,0,0,0-.27A5.28,5.28,0,0,1,8.94,15.49Z" style="fill:#c50b1d"/><path d="M9,15.49c.55-1,1.61-1,2.55,0a10.11,10.11,0,0,1,2.12,3.71,18.47,18.47,0,0,1,.92,5.91,9.14,9.14,0,0,1-1,4.93,3.86,3.86,0,0,1-2.43,1.65A1.05,1.05,0,0,1,10,31.25c-.56-.67-.84-2.29-.84-6.38,0-2.92-.18-5-.31-6.45,0-.09,0-.19,0-.28A5.2,5.2,0,0,1,9,15.49Z" style="fill:#c60b1d"/><path d="M9.05,15.49c.55-.94,1.59-1,2.51,0a10.26,10.26,0,0,1,2.09,3.67,18.5,18.5,0,0,1,.92,5.93,9.18,9.18,0,0,1-1,4.94,3.84,3.84,0,0,1-2.39,1.62,1.07,1.07,0,0,1-1.15-.4C9.46,30.6,9.2,29,9.2,24.88c0-2.92-.19-5-.32-6.46,0-.1,0-.19,0-.28A4.79,4.79,0,0,1,9.05,15.49Z" style="fill:#c70b1d"/><path d="M9.1,15.49c.57-.9,1.57-.93,2.47,0a9.73,9.73,0,0,1,2.06,3.61,18.69,18.69,0,0,1,.92,6c0,2.42-.36,3.95-1,4.94a3.8,3.8,0,0,1-2.34,1.6,1.09,1.09,0,0,1-1.16-.39c-.56-.62-.8-2.19-.8-6.35,0-2.91-.21-5-.33-6.48l0-.28A4.69,4.69,0,0,1,9.1,15.49Z" style="fill:#c70b1d"/><path d="M9.16,15.49c.57-.86,1.54-.89,2.43,0a9.79,9.79,0,0,1,2,3.57,18.73,18.73,0,0,1,.92,6,9.21,9.21,0,0,1-1,4.94,3.76,3.76,0,0,1-2.3,1.58,1.1,1.1,0,0,1-1.16-.37c-.57-.6-.78-2.15-.78-6.34,0-2.91-.22-5-.34-6.49l0-.28C8.82,16.69,8.86,16,9.16,15.49Z" style="fill:#c80b1d"/><path d="M9.21,15.49c.58-.83,1.53-.85,2.4.07a9.82,9.82,0,0,1,2,3.52,18.87,18.87,0,0,1,.93,6,9.23,9.23,0,0,1-1,4.95,3.69,3.69,0,0,1-2.26,1.54,1.12,1.12,0,0,1-1.16-.34c-.57-.59-.77-2.1-.77-6.34,0-2.89-.22-5-.35-6.49,0-.1,0-.19,0-.28C8.85,16.69,8.9,15.94,9.21,15.49Z" style="fill:#c90b1d"/><path d="M9.27,15.49c.58-.79,1.5-.81,2.36.1a9.79,9.79,0,0,1,2,3.46,19,19,0,0,1,.92,6c0,2.44-.36,4-1,4.95a3.64,3.64,0,0,1-2.21,1.52,1.16,1.16,0,0,1-1.18-.33c-.56-.56-.74-2.05-.74-6.32,0-2.88-.23-5-.36-6.5,0-.1,0-.2,0-.29C8.89,16.68,8.94,15.94,9.27,15.49Z" style="fill:#ca0b1d"/><path d="M9.32,15.49c.44-.84,1.48-.77,2.32.12A9.49,9.49,0,0,1,13.57,19a19.12,19.12,0,0,1,.93,6.07c0,2.44-.36,4-1,4.94a3.53,3.53,0,0,1-2.17,1.5,1.15,1.15,0,0,1-1.17-.31c-.57-.54-.73-2-.73-6.31a63.84,63.84,0,0,0-.37-6.52l0-.28C8.91,16.67,8.91,15.86,9.32,15.49Z" style="fill:#cb0a1d"/><path d="M9.38,15.49c.44-.81,1.46-.73,2.28.15A9.46,9.46,0,0,1,13.56,19a19.23,19.23,0,0,1,.92,6.1c0,2.45-.36,4-1,4.94a3.55,3.55,0,0,1-2.13,1.48,1.18,1.18,0,0,1-1.18-.3c-.57-.52-.7-1.95-.7-6.3a63.82,63.82,0,0,0-.38-6.52l0-.29C9,16.66,9,15.85,9.38,15.49Z" style="fill:#cb0a1d"/><path d="M9.43,15.49c.44-.78,1.44-.69,2.25.17A9.37,9.37,0,0,1,13.54,19a19,19,0,0,1,.93,6.12c0,2.46-.36,4-1,4.95a3.45,3.45,0,0,1-2.08,1.44,1.2,1.2,0,0,1-1.19-.27c-.57-.5-.68-1.91-.68-6.29a62.91,62.91,0,0,0-.4-6.53c0-.1,0-.2,0-.29C9,16.66,9,15.84,9.43,15.49Z" style="fill:#cc0a1d"/><path d="M9.49,15.5c.44-.76,1.41-.66,2.2.19A9.22,9.22,0,0,1,13.52,19a19.2,19.2,0,0,1,.94,6.15c0,2.46-.36,4-1,4.95a3.41,3.41,0,0,1-2,1.42,1.24,1.24,0,0,1-1.19-.25c-.57-.48-.66-1.86-.66-6.28a57.8,57.8,0,0,0-.41-6.54l0-.29C9,16.65,9,15.82,9.49,15.5Z" style="fill:#cd0a1d"/><path d="M9.54,15.5c.45-.72,1.4-.62,2.17.21a9.14,9.14,0,0,1,1.8,3.22,19.21,19.21,0,0,1,.93,6.17c0,2.47-.35,4-1,4.95a3.33,3.33,0,0,1-2,1.4,1.24,1.24,0,0,1-1.19-.24c-.57-.45-.65-1.81-.65-6.26a61.09,61.09,0,0,0-.41-6.56l0-.29C9.06,16.64,9.06,15.81,9.54,15.5Z" style="fill:#ce0a1d"/><path d="M9.6,15.5c.44-.69,1.37-.58,2.13.24a8.8,8.8,0,0,1,1.76,3.16,19.39,19.39,0,0,1,.94,6.2c0,2.48-.36,4-1,4.95a3.29,3.29,0,0,1-2,1.38,1.28,1.28,0,0,1-1.19-.22c-.58-.44-.63-1.76-.63-6.26a61,61,0,0,0-.42-6.56l0-.29C9.1,16.63,9.1,15.8,9.6,15.5Z" style="fill:#cf0a1d"/><path d="M9.65,15.5c.45-.66,1.35-.54,2.09.26a8.85,8.85,0,0,1,1.74,3.11,19.54,19.54,0,0,1,.94,6.23c0,2.49-.36,4-1,5a3.32,3.32,0,0,1-1.91,1.35,1.34,1.34,0,0,1-1.2-.2c-.58-.42-.61-1.72-.61-6.25a58,58,0,0,0-.44-6.57c0-.1,0-.2,0-.3C9.14,16.62,9.14,15.78,9.65,15.5Z" style="fill:#cf0a1d"/><path d="M9.71,15.5c.44-.63,1.33-.51,2,.28a8.77,8.77,0,0,1,1.7,3.07,19.58,19.58,0,0,1,.94,6.25c0,2.5-.35,4-1,5a3.18,3.18,0,0,1-1.87,1.32,1.3,1.3,0,0,1-1.2-.18c-.58-.39-.59-1.67-.59-6.23a58.29,58.29,0,0,0-.45-6.59l0-.29C9.17,16.62,9.18,15.77,9.71,15.5Z" style="fill:#d00a1d"/><path d="M9.76,15.5c.45-.59,1.31-.47,2,.31a8.68,8.68,0,0,1,1.67,3,19.73,19.73,0,0,1,.94,6.28c0,2.51-.35,4-1,5a3.14,3.14,0,0,1-1.83,1.3,1.35,1.35,0,0,1-1.2-.16c-.58-.38-.57-1.62-.57-6.22a58.44,58.44,0,0,0-.46-6.6l0-.29C9.2,16.61,9.21,15.76,9.76,15.5Z" style="fill:#d1091d"/><path d="M9.82,15.5c.44-.56,1.28-.43,2,.33a8.44,8.44,0,0,1,1.64,3,19.79,19.79,0,0,1,1,6.3c0,2.52-.36,4-1,5a3.13,3.13,0,0,1-1.78,1.27,1.47,1.47,0,0,1-1.21-.14c-.59-.36-.55-1.58-.55-6.22a58.2,58.2,0,0,0-.47-6.6l0-.3C9.23,16.6,9.25,15.75,9.82,15.5Z" style="fill:#d2091d"/><path d="M9.87,15.5c.45-.53,1.27-.39,1.94.36a8.42,8.42,0,0,1,1.61,2.91,19.92,19.92,0,0,1,.94,6.33c0,2.52-.35,4-.95,5a3.05,3.05,0,0,1-1.74,1.25,1.5,1.5,0,0,1-1.21-.13c-.59-.33-.54-1.52-.54-6.2a56.49,56.49,0,0,0-.47-6.61,1.69,1.69,0,0,1,0-.3C9.27,16.59,9.29,15.73,9.87,15.5Z" style="fill:#d3091d"/><path d="M9.93,15.5c.45-.5,1.24-.35,1.9.38a8.41,8.41,0,0,1,1.57,2.86,20.1,20.1,0,0,1,.95,6.36c0,2.53-.35,4-.95,5a3,3,0,0,1-1.7,1.22,1.49,1.49,0,0,1-1.21-.1C9.9,30.87,10,29.71,10,25a56.31,56.31,0,0,0-.49-6.63l0-.3C9.3,16.59,9.33,15.72,9.93,15.5Z" style="fill:#d3091d"/><path d="M10,15.5c.45-.47,1.22-.31,1.86.41a8.19,8.19,0,0,1,1.55,2.81,20.17,20.17,0,0,1,.94,6.39c0,2.53-.35,4.05-.94,5a2.9,2.9,0,0,1-1.66,1.2,1.56,1.56,0,0,1-1.21-.08c-.59-.3-.5-1.43-.5-6.18a56.51,56.51,0,0,0-.5-6.64l0-.3C9.35,16.58,9.37,15.71,10,15.5Z" style="fill:#d4091d"/><path d="M10,15.5c.45-.43,1.2-.27,1.82.43a8.08,8.08,0,0,1,1.51,2.76,20.31,20.31,0,0,1,1,6.42c0,2.54-.35,4.06-.94,5a2.9,2.9,0,0,1-1.61,1.17,1.63,1.63,0,0,1-1.22-.07c-.59-.27-.48-1.38-.48-6.17a54.41,54.41,0,0,0-.51-6.64q0-.16,0-.3C9.38,16.57,9.41,15.7,10,15.5Z" style="fill:#d5091d"/><path d="M10.09,15.51c.45-.41,1.18-.24,1.79.44a8.19,8.19,0,0,1,1.48,2.72,20.39,20.39,0,0,1,1,6.44c0,2.55-.35,4.07-.94,5a2.91,2.91,0,0,1-1.57,1.15,1.72,1.72,0,0,1-1.22-.05c-.6-.26-.46-1.34-.46-6.16a54.44,54.44,0,0,0-.52-6.65c0-.11,0-.21,0-.31C9.42,16.56,9.44,15.68,10.09,15.51Z" style="fill:#d6091d"/><path d="M10.15,15.51c.45-.38,1.15-.2,1.75.47a8,8,0,0,1,1.44,2.66,20.55,20.55,0,0,1,.95,6.47c0,2.56-.34,4.07-.93,5a2.83,2.83,0,0,1-1.53,1.13,1.77,1.77,0,0,1-1.22,0c-.6-.24-.44-1.29-.44-6.15a54.71,54.71,0,0,0-.54-6.67l0-.3C9.45,16.55,9.48,15.67,10.15,15.51Z" style="fill:#d7081d"/><path d="M10.2,15.51c.45-.35,1.14-.16,1.71.49a7.72,7.72,0,0,1,1.41,2.61,20.39,20.39,0,0,1,1,6.5c0,2.57-.35,4.08-.94,5a2.63,2.63,0,0,1-1.47,1.1,1.82,1.82,0,0,1-1.24,0C10,31,10.21,29.93,10.21,25a54.91,54.91,0,0,0-.54-6.68l0-.31C9.49,16.55,9.52,15.66,10.2,15.51Z" style="fill:#d8081d"/><path d="M10.26,15.51c.45-.32,1.11-.12,1.67.52a7.68,7.68,0,0,1,1.38,2.56,20.72,20.72,0,0,1,1,6.52c0,2.57-.35,4.09-.93,5a2.64,2.64,0,0,1-1.44,1.07,1.94,1.94,0,0,1-1.24,0c-.59-.2-.4-1.19-.4-6.13a55.14,55.14,0,0,0-.55-6.68l0-.31C9.52,16.54,9.56,15.64,10.26,15.51Z" style="fill:#d8081d"/><path d="M10.31,15.51c.45-.28,1.09-.08,1.64.54a7.76,7.76,0,0,1,1.34,2.51,20.63,20.63,0,0,1,1,6.55c0,2.58-.34,4.1-.93,5a2.54,2.54,0,0,1-1.39,1.05,2,2,0,0,1-1.24,0c-.59-.17-.38-1.14-.38-6.11a53.6,53.6,0,0,0-.56-6.7c0-.1,0-.2,0-.3C9.56,16.53,9.6,15.63,10.31,15.51Z" style="fill:#d9081d"/><path d="M10.37,15.51c.45-.25,1.06,0,1.59.57a7.46,7.46,0,0,1,1.32,2.46,20.92,20.92,0,0,1,1,6.57c0,2.59-.34,4.1-.93,5a2.51,2.51,0,0,1-1.35,1,2.08,2.08,0,0,1-1.24,0c-.6-.15-.36-1.09-.36-6.1a51.57,51.57,0,0,0-.58-6.71l0-.31C9.59,16.52,9.64,15.62,10.37,15.51Z" style="fill:#da081d"/><path d="M10.42,15.51A1.49,1.49,0,0,1,12,16.1a7.25,7.25,0,0,1,1.28,2.41,20.83,20.83,0,0,1,1,6.6c0,2.6-.34,4.11-.92,5a2.45,2.45,0,0,1-1.3,1,2.19,2.19,0,0,1-1.25.07c-.6-.14-.34-1.05-.34-6.09a51.83,51.83,0,0,0-.59-6.72l0-.31C9.63,16.52,9.7,15.72,10.42,15.51Z" style="fill:#db081d"/><path d="M10.48,15.51a1.52,1.52,0,0,1,1.52.61,7.54,7.54,0,0,1,1.25,2.36,21.27,21.27,0,0,1,1,6.63c0,2.61-.34,4.12-.92,5a2.33,2.33,0,0,1-1.26,1,2.28,2.28,0,0,1-1.25.08c-.6-.11-.33-1-.33-6.08a52,52,0,0,0-.59-6.72c0-.11,0-.21,0-.32C9.66,16.51,9.73,15.7,10.48,15.51Z" style="fill:#dc081d"/><path d="M10.53,15.51a1.53,1.53,0,0,1,1.48.64,7.12,7.12,0,0,1,1.22,2.31,21,21,0,0,1,1,6.65c0,2.62-.34,4.13-.92,5a2.29,2.29,0,0,1-1.22.95,2.48,2.48,0,0,1-1.25.1c-.6-.1-.31-.95-.31-6.07a52.62,52.62,0,0,0-.6-6.74c0-.1,0-.21,0-.31C9.7,16.5,9.77,15.68,10.53,15.51Z" style="fill:#dc071d"/><path d="M10.59,15.51a1.57,1.57,0,0,1,1.44.66,7.11,7.11,0,0,1,1.19,2.26,21.47,21.47,0,0,1,1,6.68c0,2.63-.33,4.13-.91,5A2.32,2.32,0,0,1,12.1,31a2.76,2.76,0,0,1-1.26.12c-.6-.08-.29-.91-.29-6.06a50.58,50.58,0,0,0-.62-6.75l0-.31C9.73,16.49,9.8,15.65,10.59,15.51Z" style="fill:#dd071c"/><path d="M10.64,15.51a1.64,1.64,0,0,1,1.41.69,7,7,0,0,1,1.15,2.21,21.26,21.26,0,0,1,1,6.71c0,2.62-.34,4.13-.91,5a2.31,2.31,0,0,1-1.13.9,2.76,2.76,0,0,1-1.26.13c-.61-.05-.27-.85-.27-6A50.87,50.87,0,0,0,10,18.34l0-.32C9.76,16.48,9.84,15.62,10.64,15.51Z" style="fill:#de071c"/><path d="M10.7,15.51a1.67,1.67,0,0,1,1.36.71,7,7,0,0,1,1.13,2.16,21.42,21.42,0,0,1,1,6.74c0,2.63-.34,4.14-.91,5a2.2,2.2,0,0,1-1.09.87,2.9,2.9,0,0,1-1.26.16c-.61,0-.25-.81-.25-6A51.33,51.33,0,0,0,10,18.33c0-.1,0-.21,0-.31C9.8,16.48,9.87,15.59,10.7,15.51Z" style="fill:#df071c"/><path d="M10.75,15.52a1.67,1.67,0,0,1,1.33.73,7.06,7.06,0,0,1,1.09,2.1,21.58,21.58,0,0,1,1,6.77c0,2.64-.33,4.15-.9,5a2.09,2.09,0,0,1-1,.85,3.29,3.29,0,0,1-1.27.18c-.61,0-.23-.76-.23-6a51.47,51.47,0,0,0-.65-6.78c0-.11,0-.21,0-.32C9.84,16.47,9.91,15.55,10.75,15.52Z" style="fill:#e0071c"/><path d="M14.13,25.12c0,2.65-.33,4.15-.9,5a2.12,2.12,0,0,1-1,.83,3.46,3.46,0,0,1-1.27.19c-.61,0-.22-.71-.22-6a52,52,0,0,0-.65-6.79c-.22-1.74-.2-2.81.72-2.81a1.72,1.72,0,0,1,1.29.75,6.8,6.8,0,0,1,1.05,2.06A21.35,21.35,0,0,1,14.13,25.12Z" style="fill:#e1071c"/><path d="M10.81,23.33,7.72,22.8Z" style="fill:none"/><path d="M7.37,24.24l.35-1.44Z" style="fill:none"/><path d="M2.09,30.11a4.75,4.75,0,0,0,.37.89,5.17,5.17,0,0,0,2.47,1.39,2.27,2.27,0,0,0,.82-.34A5.42,5.42,0,0,1,2.09,30.11Z" style="fill:#8b151a"/><path d="M7.37,24.24l.35-1.44Z" style="fill:none"/><path d="M7.37,24.24l.35-1.44Z" style="fill:none"/><path d="M15.31,28.92c-1.07-.46-1-.94-.79-1.51s.62-1,1.69-.57,1.74,1.3,1.49,1.87S16.38,29.38,15.31,28.92Z" style="fill:url(#linear-gradient-4)"/><path d="M13,21.1c-.61-4.72-1.6-5.24-2.6-5.11s.15,1.2.77,5.92.12,8.12,1.13,8S13.59,25.83,13,21.1Z" style="fill:#ea6d4c"/><path d="M7.87,20.9c-.29-3.31.65-3.84,2-4s2.57.23,2.86,3.54-.57,6.08-1.9,6.2S8.16,24.21,7.87,20.9Z" style="fill:#8b151a"/><path d="M12.67,24.77c-3.06,1.78-7.68,2-10.32.43A3.59,3.59,0,0,1,.83,23.67C.2,25,.68,26.47,2.35,27.45,5,29,9.61,28.8,12.67,27c2.19-1.28,3-3,2.26-4.5A5.53,5.53,0,0,1,12.67,24.77Z" style="fill:url(#linear-gradient-5)"/><path d="M10.79,25.9c-1.38-2.32-.93-3-.06-3.52s1.83-.67,3.21,1.65,1.78,4.61.91,5.13S12.16,28.21,10.79,25.9Z" style="fill:#e1071c"/><path d="M8.16,20.83c-.83-2.91,0-3.57,1.26-3.93s2.52-.29,3.35,2.62.46,5.57-.81,5.93S9,23.74,8.16,20.83Z" style="fill:url(#linear-gradient-6)"/><path d="M11.26,20.05c-.59-2.09-.45-2.43-.15-2.51s.64.12,1.23,2.21.83,3.84.54,3.93S11.86,22.14,11.26,20.05Z" style="fill:#ea6d4c"/><path d="M11.67,12.57A3.59,3.59,0,0,1,11,13,6.5,6.5,0,0,1,5.4,13,3.27,3.27,0,0,1,5,12.77c-1,.84-.89,1.94.36,2.66a6.5,6.5,0,0,0,5.63,0C12.51,14.64,12.74,13.43,11.67,12.57Z" style="fill:url(#linear-gradient-7)"/><path d="M9.35,14.25c3.91-1.38.67-1.28.38-3.2S10.17,8.43,8,8.76s-4,1.88-3.71,3.8S7.25,15,9.35,14.25Z" style="fill:url(#linear-gradient-8)"/><path d="M13.61,12.1c1.75,1.87,2.5,4,1.69,4.77s-2.4.07-4-1.33c-.23-.21.23-.49.56-1a1.37,1.37,0,0,0,.19-1.17c-.14-.17-.23,2.14-2.74.75-.66-.36.7-.81,1.3-1.38C11.45,12,11.86,10.22,13.61,12.1Z" style="fill:#8ba1a8"/><path d="M13.7,11.77c1.89,2,2.76,4.28,1.94,5s-2.47,0-4.17-1.55c-.25-.22.22-.49.54-1A1.39,1.39,0,0,0,12.16,13c-.15-.17-.15,2.23-2.82.68-.69-.41.7-.82,1.3-1.39C11.46,11.55,11.81,9.74,13.7,11.77Z" style="fill:url(#linear-gradient-9)"/><path d="M10.79,6.08A4.22,4.22,0,0,0,9.15,4.13a2.73,2.73,0,0,0-1.75-1c-2-.57-3.82-.24-4.1.73-.15.55.23,1.19,1,1.74a4,4,0,0,0,0,3.2c.82,2,2.55,1.6,4.36.85S11.61,8.08,10.79,6.08Z" style="fill:url(#linear-gradient-10)"/><path d="M5.22,4.32A3.71,3.71,0,0,0,4,7.67,5.9,5.9,0,0,0,5.13,5.75C5.43,5,5.41,4.57,5.22,4.32Z" style="fill:#8b151a"/><path d="M2.76,4.33c1-1.47,1.58-1.37,2.2-1s1,1,0,2.46S2.65,8.18,2,7.76,1.75,5.81,2.76,4.33Z" style="fill:#bf0c1d"/><path d="M8.3,6c.86,1,1.25,1,1.63.81s.61-.5-.25-1.51S7.82,3.62,7.44,3.81,7.44,5,8.3,6Z" style="fill:#ea6f4e"/><path d="M3.47,9c-.46.92-1.37.9-2.29.44S-.29,8.26.16,7.35s1.37-.9,2.29-.44S3.93,8.09,3.47,9Z" style="fill:#a7a59f"/><path d="M3.44,9c-.45.91-1.35.9-2.26.45S-.28,8.26.17,7.35s1.35-.88,2.26-.42S3.89,8.08,3.44,9Z" style="fill:#a9a7a2"/><path d="M3.41,9c-.45.9-1.32.89-2.23.44S-.27,8.26.18,7.35s1.33-.86,2.23-.41S3.86,8.08,3.41,9Z" style="fill:#acaaa5"/><path d="M3.38,9c-.45.9-1.3.9-2.2.45S-.26,8.25.19,7.35,1.5,6.51,2.39,7,3.83,8.08,3.38,9Z" style="fill:#aeaca7"/><path d="M3.35,9c-.44.89-1.28.9-2.17.45S-.25,8.25.2,7.35,1.48,6.53,2.38,7,3.8,8.07,3.35,9Z" style="fill:#b1afaa"/><path d="M3.32,9c-.44.89-1.25.9-2.15.46S-.24,8.24.2,7.35,1.47,6.55,2.36,7,3.77,8.07,3.32,9Z" style="fill:#b3b1ac"/><path d="M3.29,9c-.44.89-1.23.9-2.12.46s-1.4-1.17-1-2.06S1.46,6.57,2.34,7,3.73,8.07,3.29,9Z" style="fill:#b6b4af"/><path d="M3.26,8.94c-.44.89-1.21.91-2.09.47S-.22,8.23.22,7.35,1.44,6.59,2.32,7,3.7,8.06,3.26,8.94Z" style="fill:#b9b6b2"/><path d="M3.23,8.94c-.43.87-1.18.9-2.06.46S-.21,8.23.23,7.35,1.43,6.61,2.31,7,3.67,8.06,3.23,8.94Z" style="fill:#bbb9b4"/><path d="M3.2,8.93c-.43.87-1.16.9-2,.47S-.2,8.22.24,7.35s1.18-.72,2.05-.29S3.64,8.05,3.2,8.93Z" style="fill:#bebbb7"/><path d="M3.17,8.92c-.43.87-1.14.9-2,.47s-1.36-1.17-.92-2,1.15-.7,2-.27S3.61,8.05,3.17,8.92Z" style="fill:#c1beb9"/><path d="M3.15,8.91c-.44.86-1.12.91-2,.48s-1.33-1.18-.9-2,1.13-.68,2-.25S3.58,8.05,3.15,8.91Z" style="fill:#c3c0bc"/><path d="M3.12,8.9c-.43.86-1.1.91-2,.48s-1.32-1.17-.9-2,1.12-.67,2-.24S3.54,8,3.12,8.9Z" style="fill:#c6c3bf"/><path d="M3.09,8.89c-.43.86-1.08.91-1.93.49a1.47,1.47,0,0,1-.89-2c.43-.85,1.1-.65,2-.22S3.51,8,3.09,8.89Z" style="fill:#c8c5c2"/><path d="M3.06,8.89c-.43.85-1.05.9-1.9.48a1.46,1.46,0,0,1-.88-2c.43-.85,1.07-.63,1.92-.2S3.48,8,3.06,8.89Z" style="fill:#cbc8c4"/><path d="M3,8.88c-.42.84-1,.91-1.87.49a1.46,1.46,0,0,1-.87-2c.42-.84,1.05-.61,1.89-.19S3.45,8,3,8.88Z" style="fill:#cdcac7"/><path d="M3,8.87c-.42.84-1,.91-1.85.49a1.45,1.45,0,0,1-.85-2c.42-.84,1-.59,1.87-.17S3.42,8,3,8.87Z" style="fill:#d0cdca"/><path d="M3,8.86c-.42.84-1,.91-1.82.5a1.45,1.45,0,0,1-.84-2c.41-.84,1-.57,1.84-.15S3.38,8,3,8.86Z" style="fill:#d2d0cc"/><path d="M2.94,8.85c-.42.83-1,.91-1.79.5a1.43,1.43,0,0,1-.83-2c.41-.83,1-.55,1.81-.14S3.35,8,2.94,8.85Z" style="fill:#d5d2cf"/><path d="M2.91,8.84c-.41.83-.94.92-1.76.51a1.44,1.44,0,0,1-.83-2c.42-.83,1-.53,1.79-.12S3.32,8,2.91,8.84Z" style="fill:#d7d5d2"/><path d="M2.88,8.84c-.41.82-.91.91-1.73.5a1.43,1.43,0,0,1-.82-2c.41-.82.94-.51,1.76-.1S3.29,8,2.88,8.84Z" style="fill:#dad7d5"/><path d="M2.85,8.83c-.41.82-.89.91-1.71.5a1.42,1.42,0,0,1-.8-2c.41-.82.92-.49,1.74-.08S3.26,8,2.85,8.83Z" style="fill:#dcdad7"/><path d="M2.82,8.82c-.41.81-.86.92-1.68.51a1.43,1.43,0,0,1-.79-2c.41-.81.9-.47,1.71-.07S3.22,8,2.82,8.82Z" style="fill:#dfddda"/><path d="M2.79,8.81c-.4.81-.84.92-1.65.52a1.42,1.42,0,0,1-.78-2c.4-.81.87-.45,1.68,0S3.19,8,2.79,8.81Z" style="fill:#e1dfdd"/><path d="M2.76,8.8c-.4.81-.82.92-1.62.52a1.41,1.41,0,0,1-.77-2c.4-.8.85-.43,1.65,0S3.16,8,2.76,8.8Z" style="fill:#e4e2e0"/><path d="M2.73,8.8c-.4.79-.79.91-1.59.51a1.4,1.4,0,0,1-.76-2c.4-.8.83-.41,1.63,0S3.13,8,2.73,8.8Z" style="fill:#e6e4e2"/><path d="M2.7,8.79c-.4.79-.77.91-1.57.52a1.41,1.41,0,0,1-.75-2c.4-.79.82-.4,1.61,0S3.1,8,2.7,8.79Z" style="fill:#e9e7e5"/><path d="M2.67,8.78c-.39.79-.75.92-1.54.52a1.4,1.4,0,0,1-.74-2c.4-.79.79-.38,1.58,0S3.07,8,2.67,8.78Z" style="fill:#ebeae8"/><path d="M2.64,8.77c-.39.78-.72.92-1.51.53a1.4,1.4,0,0,1-.73-2c.39-.78.77-.36,1.55,0S3,8,2.64,8.77Z" style="fill:#eeeceb"/><path d="M2.61,8.76c-.39.78-.7.92-1.48.53A1.39,1.39,0,0,1,.41,7.35c.39-.78.75-.34,1.53.05S3,8,2.61,8.76Z" style="fill:#f0efee"/><path d="M2.58,8.75c-.38.78-.68.93-1.45.54A1.38,1.38,0,0,1,.42,7.35c.39-.77.72-.32,1.5.07S3,8,2.58,8.75Z" style="fill:#f3f2f0"/><path d="M2.55,8.75c-.38.77-.65.92-1.42.53a1.37,1.37,0,0,1-.7-1.93c.38-.77.7-.3,1.47.09S2.94,8,2.55,8.75Z" style="fill:#f5f4f3"/><path d="M2.52,8.74c-.38.76-.63.92-1.4.54A1.38,1.38,0,0,1,.44,7.35c.38-.77.68-.28,1.44.1S2.91,8,2.52,8.74Z" style="fill:#f8f7f6"/><path d="M2.49,8.73c-.38.76-.61.92-1.37.54A1.38,1.38,0,0,1,.44,7.35c.39-.76.66-.26,1.43.12S2.87,8,2.49,8.73Z" style="fill:#fafaf9"/><path d="M2.46,8.72c-.37.76-.58.93-1.34.55A1.38,1.38,0,0,1,.45,7.35c.38-.76.64-.24,1.4.14S2.84,8,2.46,8.72Z" style="fill:#fdfcfc"/><path d="M2.43,8.71c-.37.76-.56.93-1.31.55A1.37,1.37,0,0,1,.46,7.35c.38-.75.62-.22,1.37.15S2.81,8,2.43,8.71Z" style="fill:#fff"/><path d="M9.73,11.05c-.18-1.21,0-2.19-.32-2.67A4.34,4.34,0,0,1,5.89,9.47c-.36.52-1.3.86-1.5,1.76A4.21,4.21,0,0,0,5.87,12a5.91,5.91,0,0,0,3.89-.79Z" style="fill:#fff"/><path d="M10.77,5.94c.1.22-.14.79-.34,1C9.15,8.55,6.25,9.82,4.51,9.11c-.16-.06-.16-.22-.3-.28a1.83,1.83,0,0,0,1.5,2.78,6.52,6.52,0,0,0,5.67-2.23C12.55,8,12.22,6.46,10.77,5.94Z" style="fill:url(#linear-gradient-11)"/><path d="M12.89,31.06c-.87,1.4-.73,4.77-2.38,6.17-3.76,3.17,1.14,3.9,4,4.23,3.29.37,5.4-.06,5.52-5S16.87,26,16.11,29C15.78,30.24,13.88,29.46,12.89,31.06Z" style="fill:url(#linear-gradient-12)"/><path d="M18.15,32.51a12.55,12.55,0,0,1,.39,2.83c0,.85-.37,2.42.53,2.28s.31-3.66,0-4.75c-1.33-4.22-1.43-3.46-1.43-3.46S17.82,31,18.15,32.51Z" style="fill:#d67b1d"/><path d="M17.44,35.35l-.71-.49Z" style="fill:none"/><path d="M12.54,3c-.85-.21-.86-.68-.71-1.28S12.22.61,13.07.82s1.42.86,1.27,1.47S13.39,3.22,12.54,3Z" style="fill:url(#linear-gradient-13)"/><path d="M12.93,29.64c-.71-1.28-.13-1.82.8-2.34s1.87-.81,2.58.47.52,2.73-.41,3.25S13.63,30.92,12.93,29.64Z" style="fill:url(#linear-gradient-14)"/><path d="M14.9,26a1.51,1.51,0,0,1-.16.41,2.43,2.43,0,0,1-2.5,1.25,1,1,0,0,1-.24-.07,1.22,1.22,0,0,0,1,1.56,2.45,2.45,0,0,0,2.5-1.26A1.26,1.26,0,0,0,14.9,26Z" style="fill:#8b151a"/><path d="M14.88,25.81a2.54,2.54,0,0,1-.09.54,1.94,1.94,0,0,1-2.55,1.34,1.43,1.43,0,0,1-.28-.13,2.27,2.27,0,0,0,1.4,2.27,1.94,1.94,0,0,0,2.55-1.35A2.34,2.34,0,0,0,14.88,25.81Z" style="fill:url(#Neues_Verlaufsfeld_11-2)"/></g></g></svg>