<svg xmlns="http://www.w3.org/2000/svg" viewBox="0 0 1116.88 671.59"><title>Asset 7</title><g id="Layer_2" data-name="Layer 2"><g id="Layer_1-2" data-name="Layer 1"><g style="opacity:0.27"><g style="isolation:isolate"><polygon points="767.87 88.47 767.8 112.92 618.82 26.91 618.89 2.46 767.87 88.47" style="fill:#898989"/><polygon points="767.87 88.47 767.8 112.92 535.92 247.68 535.99 223.22 767.87 88.47" style="fill:#c5c5c5"/><polygon points="772.11 88.47 772.04 112.92 540.16 247.67 540.23 223.22 772.11 88.47" style="fill:#c5c5c5"/><polygon points="1112.64 287.52 1112.57 311.98 963.59 225.97 963.66 201.51 1112.64 287.52" style="fill:#898989"/><polygon points="731.78 336.26 731.72 360.72 535.92 247.68 535.99 223.22 731.78 336.26" style="fill:#898989"/><polygon points="963.66 201.51 963.59 225.97 731.72 360.72 731.78 336.26 963.66 201.51" style="fill:#c5c5c5"/><polygon points="618.89 2.46 618.82 26.91 4.24 384.07 4.31 359.61 618.89 2.46" style="fill:#c5c5c5"/><polygon points="595.76 415.31 595.69 439.77 399.9 326.73 399.97 302.27 595.76 415.31" style="fill:#898989"/><polygon points="591.51 415.31 591.45 439.77 399.9 329.18 399.97 304.73 591.51 415.31" style="fill:#898989"/><polygon points="153.29 445.63 153.22 470.08 4.24 384.07 4.31 359.61 153.29 445.63" style="fill:#898989"/><polygon points="399.97 302.27 399.9 326.73 153.22 470.08 153.29 445.63 399.97 302.27" style="fill:#c5c5c5"/><polygon points="399.97 304.73 399.9 329.18 153.23 472.53 153.3 448.08 399.97 304.73" style="fill:#c5c5c5"/><polygon points="153.3 448.08 153.23 472.53 0 384.06 0.07 359.61 153.3 448.08" style="fill:#898989"/><polygon points="595.76 415.31 595.69 439.76 349.01 583.12 349.08 558.67 595.76 415.31" style="fill:#c5c5c5"/><polygon points="498.06 644.68 497.99 669.13 349.01 583.12 349.08 558.67 498.06 644.68" style="fill:#898989"/><polygon points="1112.64 287.52 1112.57 311.98 497.99 669.13 498.06 644.68 1112.64 287.52" style="fill:#c5c5c5"/><polygon points="1112.64 287.52 498.06 644.68 349.08 558.67 595.76 415.31 399.97 302.27 153.29 445.63 4.31 359.61 618.89 2.46 767.87 88.47 535.99 223.22 731.78 336.26 963.66 201.51 1112.64 287.52" style="fill:#dcdcdc"/><polygon points="498.07 647.13 498 671.59 344.77 583.12 344.84 558.66 498.07 647.13" style="fill:#898989"/><polygon points="1116.88 287.52 1116.81 311.98 498 671.59 498.07 647.13 1116.88 287.52" style="fill:#c5c5c5"/><path d="M963.65,199.05l153.23,88.47L498.07,647.13,344.84,558.66,591.51,415.31,400,304.73,153.3,448.08.07,359.61,618.87,0,772.11,88.47,540.23,223.22,731.77,333.8ZM498.06,644.68l614.58-357.16-149-86L731.78,336.26,536,223.22,767.87,88.47l-149-86L4.31,359.61l149,86L400,302.27l195.79,113L349.08,558.67l149,86" style="fill:#dcdcdc"/></g></g></g></g></svg>