<svg viewBox="0 0 27.05 35.05" xmlns="http://www.w3.org/2000/svg" xmlns:xlink="http://www.w3.org/1999/xlink"><linearGradient id="a" gradientTransform="matrix(.91587293 -.40146828 .40146828 .91587293 165.48 258.9)" gradientUnits="userSpaceOnUse" x1="-42.73" x2="-37.92" y1="-270.07" y2="-270.07"><stop offset=".14" stop-color="#171a1a"/><stop offset=".57" stop-color="#385056"/></linearGradient><linearGradient id="b" gradientTransform="matrix(.91587293 -.40146828 .40146828 .91587293 169.88 262.52)" gradientUnits="userSpaceOnUse" x1="-44.19" x2="-39.38" y1="-272.95" y2="-272.95"><stop offset=".14" stop-color="#171a1a"/><stop offset=".57" stop-color="#385056"/><stop offset=".94" stop-color="#4c6166"/></linearGradient><linearGradient id="c" gradientTransform="matrix(.91587293 -.40146828 .40146828 .91587293 264.31 110.84)" gradientUnits="userSpaceOnUse" x1="-192.09" x2="-186.29" y1="-176.33" y2="-176.33"><stop offset=".31" stop-color="#871719"/><stop offset=".73" stop-color="#c12026"/><stop offset=".94" stop-color="#d41f26"/></linearGradient><linearGradient id="d" gradientTransform="matrix(.46 -.77 1.43 .19 107.89 352.62)" gradientUnits="userSpaceOnUse" x1="372.16" x2="377.34" y1="-197.29" y2="-183.06"><stop offset=".26" stop-color="#5e3919"/><stop offset=".65" stop-color="#9b5521"/></linearGradient><linearGradient id="e" gradientTransform="matrix(.85 .3 -.33 .92 230.87 239.98)" gradientUnits="userSpaceOnUse" x1="-303.05" x2="-318.71" y1="-140.21" y2="-140.21"><stop offset=".46" stop-color="#c12026"/><stop offset=".68" stop-color="#871719"/><stop offset="1" stop-color="#871719"/></linearGradient><linearGradient id="f" gradientTransform="matrix(.84 .3 -.33 .92 388.2 193.01)" gradientUnits="userSpaceOnUse" x1="-470.37" x2="-455.99" y1="-38.29" y2="-38.29"><stop offset=".17" stop-color="#fff"/><stop offset=".63" stop-color="#a6a49e"/><stop offset=".8" stop-color="#e2e0d9"/><stop offset="1" stop-color="#fff"/></linearGradient><linearGradient id="g" gradientTransform="matrix(-.03 .91 -.94 .12 413.1 406.39)" gradientUnits="userSpaceOnUse" x1="-481.32" x2="-478.26" y1="433.9" y2="436.96"><stop offset=".16" stop-color="#a6a49e"/><stop offset=".96" stop-color="#62615f"/></linearGradient><linearGradient id="h" gradientTransform="matrix(.9011527 .43350181 -.43350181 .9011527 415.15 207.43)" gradientUnits="userSpaceOnUse" x1="-444.54" x2="-438.72" y1="1.06" y2="1.06"><stop offset=".3" stop-color="#c12026"/><stop offset=".49" stop-color="#d41f26"/><stop offset=".72" stop-color="#ea2326"/></linearGradient><linearGradient id="i" gradientTransform="matrix(1 -.09 .09 1 333.65 135.68)" gradientUnits="userSpaceOnUse" x1="-308.56" x2="-300.18" y1="-153.64" y2="-153.64"><stop offset=".23" stop-color="#fff"/><stop offset=".45" stop-color="#a6a49e"/><stop offset=".75" stop-color="#e2e0d9"/><stop offset=".85" stop-color="#eae9e4"/><stop offset="1" stop-color="#fff"/></linearGradient><linearGradient id="j" gradientTransform="matrix(1 -.09 .09 1 333.65 135.68)" gradientUnits="userSpaceOnUse" x1="-307.97" x2="-301.61" y1="-156.33" y2="-156.33"><stop offset="0" stop-color="#fff"/><stop offset=".56" stop-color="#e2e0d9"/><stop offset=".87" stop-color="#fff"/><stop offset="1" stop-color="#a6a49e"/></linearGradient><linearGradient id="k" gradientTransform="matrix(1 -.09 .09 1 333.65 135.68)" gradientUnits="userSpaceOnUse" x1="-303.56" x2="-296.78" y1="-154.01" y2="-154.01"><stop offset=".16" stop-color="#e2e0d9"/><stop offset=".29" stop-color="#e2e0d9"/><stop offset=".45" stop-color="#ecebe6"/><stop offset=".73" stop-color="#fafaf8"/><stop offset=".94" stop-color="#fff"/></linearGradient><linearGradient id="l" gradientTransform="matrix(1.02 -.09 .1 .99 335.19 137.44)" gradientUnits="userSpaceOnUse" x1="-303.76" x2="-297.46" y1="-161.72" y2="-161.72"><stop offset=".49" stop-color="#c12026"/><stop offset=".89" stop-color="#ea2326"/></linearGradient><linearGradient id="m" gradientTransform="matrix(.96 -.06 .12 1.02 325.65 136.71)" gradientUnits="userSpaceOnUse" x1="-308.04" x2="-299.1" y1="-147.54" y2="-147.54"><stop offset=".05" stop-color="#fff"/><stop offset=".32" stop-color="#a6a49e"/><stop offset=".52" stop-color="#fff"/><stop offset=".68" stop-color="#fcfcfb"/><stop offset=".83" stop-color="#f3f2ef"/><stop offset=".99" stop-color="#e3e1db"/><stop offset="1" stop-color="#e2e0d9"/></linearGradient><linearGradient id="n" gradientTransform="matrix(-.09 1 -1 -.09 418.28 455.48)" gradientUnits="userSpaceOnUse" x1="-392.27" x2="-387.62" y1="436.75" y2="441.41"><stop offset=".33" stop-color="#a6a49e"/><stop offset=".78" stop-color="#62615f"/></linearGradient><linearGradient id="o" gradientTransform="matrix(.9011527 .43350181 -.43350181 .9011527 279.94 132.34)" gradientUnits="userSpaceOnUse" x1="-280.66" x2="-286.71" y1="16.88" y2="16.88"><stop offset=".01" stop-color="#a6a49e"/><stop offset=".39" stop-color="#fff"/><stop offset=".83" stop-color="#a6a49e"/></linearGradient><path d="m22.37 30.23c-1.11 1.32-1.87 1.37-2.57 1.23s-1-.43.07-1.75a8.38 8.38 0 0 1 .87-.91 3.37 3.37 0 0 1 .72-1.63c1.11-1.32 2.23-1.74 3-1.58s1 1.58-.14 2.9c-.38.51-1.77 1.51-1.95 1.74z" fill="#171a1a"/><path d="m21 25.92a3.43 3.43 0 0 1 -2.77 1.35c-.9-.1-1.13-.87-.51-1.72a3.46 3.46 0 0 1 2.78-1.35c.91.1 1.14.87.5 1.72z" fill="#4c6166"/><path d="m24.21 24.85a2.13 2.13 0 0 0 -2.49.53c-.34-.71-.77-1.22-1.22-1.18a5.08 5.08 0 0 0 -3 1.76c-.56.75.65 4.11 1.56 4.87a.39.39 0 0 0 .1.08h.08a1.53 1.53 0 0 0 .36.11c.69.14 1.46.09 2.56-1.23.19-.21 1.56-1.29 2-1.79 1.12-1.28 1.07-2.46.05-3.15z" fill="url(#a)"/><path d="m22.27 27.78c0 .22-.1.4-.25.21a12.34 12.34 0 0 1 -.86-2.38c0-.22.15-.18.28-.06a9.52 9.52 0 0 1 .83 2.23z" fill="#fff"/><path d="m20.76 25.79a3 3 0 0 1 -2.42 1.21c-.79-.08-1-.76-.45-1.5a3 3 0 0 1 2.42-1.18c.8.06 1 .73.45 1.47z" fill="#171a1a"/><path d="m15.54 24.18c-.82-1.87.06-2.56 1.42-3.15s2.69-.88 3.51 1 .38 3.87-1 4.47-3.11-.45-3.93-2.32z" fill="#871719"/><path d="m24.27 31.79c-1.1 1.32-1.87 1.37-2.56 1.23s-1.05-.42.06-1.74a8.45 8.45 0 0 1 .88-.91 3.33 3.33 0 0 1 .71-1.64c1.11-1.32 2.23-1.74 3.05-1.57s1 1.58-.15 2.9c-.42.5-1.81 1.52-1.99 1.73z" fill="#171a1a"/><path d="m22.92 27.48a3.4 3.4 0 0 1 -2.77 1.35c-.91-.1-1.14-.86-.51-1.71a3.41 3.41 0 0 1 2.77-1.35c.9.1 1.13.86.51 1.71z" fill="#4c6166"/><path d="m26.12 26.42a2.14 2.14 0 0 0 -2.5.52c-.34-.7-.76-1.21-1.21-1.17a5 5 0 0 0 -3 1.75c-.56.76.65 4.11 1.56 4.88a.27.27 0 0 0 .1.08h.07a1.89 1.89 0 0 0 .36.1c.7.15 1.46.1 2.57-1.22.18-.22 1.55-1.29 2-1.79 1.11-1.28 1.06-2.47.05-3.15z" fill="url(#b)"/><path d="m24.17 29.34c0 .23-.1.4-.25.22a13 13 0 0 1 -.86-2.38c0-.22.15-.19.28-.07a9.25 9.25 0 0 1 .83 2.23z" fill="#fff"/><path d="m22.67 27.36a3 3 0 0 1 -2.43 1.18c-.79-.09-1-.76-.44-1.5a3 3 0 0 1 2.42-1.18c.78.08.99.76.45 1.5z" fill="#171a1a"/><path d="m17.45 25.75c-.82-1.88.05-2.56 1.41-3.16s2.69-.88 3.51 1 .38 3.87-1 4.47-3.1-.44-3.92-2.31z" fill="url(#c)"/><path d="m12.61 26.3c1.8 1.17 5.87 1.28 6.3 3.17.91 4-1.51 5-6.71 5.43s-11.2.1-12.11-3.9 5.07-9.95 6.91-7.49c.76 1.04 3.55 1.49 5.61 2.79z" fill="url(#d)"/><path d="m13.09 26.5a8.54 8.54 0 0 0 -.69 4.5 4.57 4.57 0 0 0 2 3.09c1.14.5 4.75-1.1 4.41-4.28-.4-3.68-2.77-8.18-3.24-5.92-.19.99-1.79 1.38-2.48 2.61z" fill="#9b5521"/><path d="m13.15 26.53a8.53 8.53 0 0 0 -.68 4.47 4.5 4.5 0 0 0 2 3.06c1.14.5 4.69-1.13 4.36-4.26-.4-3.68-2.74-8.12-3.21-5.9-.23.97-1.79 1.4-2.47 2.63z" fill="#9c5621"/><path d="m13.22 26.56a8.6 8.6 0 0 0 -.67 4.44 4.45 4.45 0 0 0 1.94 3c1.13.49 4.64-1.16 4.31-4.26-.4-3.67-2.7-8-3.18-5.87-.21.98-1.74 1.46-2.4 2.69z" fill="#9d5621"/><path d="m13.29 26.58a8.75 8.75 0 0 0 -.67 4.42 4.36 4.36 0 0 0 1.91 3c1.13.49 4.59-1.19 4.26-4.25-.4-3.66-2.67-8-3.16-5.84-.2.93-1.69 1.45-2.34 2.67z" fill="#9e5722"/><path d="m13.35 26.61a8.85 8.85 0 0 0 -.66 4.39 4.29 4.29 0 0 0 1.88 3c1.13.5 4.53-1.22 4.21-4.23-.41-3.66-2.64-7.91-3.13-5.82-.21.88-1.65 1.44-2.3 2.66z" fill="#9f5822"/><path d="m13.42 26.64a8.81 8.81 0 0 0 -.65 4.36 4.24 4.24 0 0 0 1.84 3c1.12.49 4.48-1.26 4.16-4.23-.41-3.65-2.61-7.84-3.1-5.79-.21.84-1.67 1.43-2.25 2.66z" fill="#a05822"/><path d="m13.48 26.66a9 9 0 0 0 -.64 4.34 4.13 4.13 0 0 0 1.82 2.95c1.11.49 4.42-1.28 4.1-4.22-.41-3.64-2.58-7.76-3.07-5.76-.22.84-1.6 1.47-2.21 2.69z" fill="#a15922"/><path d="m13.55 26.69a9 9 0 0 0 -.63 4.25 4.06 4.06 0 0 0 1.78 2.93c1.1.48 4.36-1.32 4.05-4.22-.41-3.63-2.54-7.69-3-5.72-.26.87-1.61 1.54-2.2 2.76z" fill="#a25a23"/><path d="m13.61 26.72a9.11 9.11 0 0 0 -.62 4.2 4 4 0 0 0 1.75 2.91c1.1.48 4.32-1.35 4-4.2-.41-3.63-2.51-7.63-3-5.7-.23.86-1.54 1.57-2.13 2.79z" fill="#a35a23"/><path d="m13.68 26.74a9.3 9.3 0 0 0 -.62 4.17 3.92 3.92 0 0 0 1.72 2.88c1.1.48 4.26-1.37 4-4.19-.41-3.62-2.48-7.56-3-5.67-.26.85-1.53 1.6-2.1 2.81z" fill="#a45b23"/><path d="m13.75 26.77a9.31 9.31 0 0 0 -.61 4.13 3.83 3.83 0 0 0 1.68 2.86c1.09.48 4.21-1.41 3.9-4.19-.41-3.61-2.45-7.48-2.95-5.64-.23.85-1.47 1.62-2.02 2.84z" fill="#a55c23"/><path d="m13.81 26.8a9.45 9.45 0 0 0 -.6 4.08 3.78 3.78 0 0 0 1.65 2.84c1.09.48 4.16-1.44 3.85-4.17-.41-3.61-2.42-7.42-2.92-5.62-.24.84-1.44 1.65-1.98 2.87z" fill="#a65c23"/><path d="m13.88 26.82a9.54 9.54 0 0 0 -.59 4.05 3.7 3.7 0 0 0 1.61 2.82c1.09.47 4.11-1.48 3.8-4.17-.41-3.6-2.39-7.35-2.89-5.59-.24.83-1.4 1.68-1.93 2.89z" fill="#a75d24"/><path d="m13.94 26.85a9.89 9.89 0 0 0 -.58 4 3.63 3.63 0 0 0 1.58 2.79c1.08.47 4-1.5 3.75-4.16-.41-3.59-2.36-7.27-2.86-5.56-.24.83-1.37 1.72-1.89 2.93z" fill="#a85e24"/><path d="m14 26.86a10.13 10.13 0 0 0 -.57 4 3.58 3.58 0 0 0 1.55 2.77c1.07.47 4-1.54 3.7-4.15-.42-3.58-2.33-7.21-2.84-5.53-.29.77-1.38 1.7-1.84 2.91z" fill="#a95e24"/><path d="m14 26.89a9.9 9.9 0 0 0 -.57 3.92 3.48 3.48 0 0 0 1.57 2.75c1 .44 3.91-1.56 3.61-4.14-.41-3.57-2.29-7.14-2.8-5.5-.25.79-1.3 1.76-1.81 2.97z" fill="#aa5f24"/><path d="m14.08 26.91a10.21 10.21 0 0 0 -.56 3.89 3.43 3.43 0 0 0 1.48 2.72c1.07.47 3.9-1.59 3.6-4.13-.42-3.57-2.27-7.06-2.78-5.47-.25.78-1.26 1.78-1.74 2.99z" fill="#ab6025"/><path d="m14.14 26.94a10.66 10.66 0 0 0 -.55 3.84 3.42 3.42 0 0 0 1.41 2.71c1.06.46 3.84-1.63 3.55-4.13-.42-3.56-2.24-7-2.75-5.44-.21.77-1.19 1.81-1.66 3.02z" fill="#ac6025"/><path d="m14.2 27a10.56 10.56 0 0 0 -.53 3.81 3.25 3.25 0 0 0 1.41 2.68c1.06.46 3.78-1.66 3.49-4.11-.42-3.56-2.21-6.93-2.71-5.42-.26.72-1.2 1.8-1.66 3.04z" fill="#ad6125"/><path d="m14.27 27a10.63 10.63 0 0 0 -.53 3.77 3.19 3.19 0 0 0 1.38 2.65c1.05.46 3.73-1.69 3.44-4.1-.42-3.55-2.18-6.86-2.69-5.39-.26.74-1.16 1.85-1.6 3.07z" fill="#ae6225"/><path d="m14.33 27a11.17 11.17 0 0 0 -.52 3.72 3.18 3.18 0 0 0 1.35 2.64c1 .45 3.67-1.73 3.39-4.1-.42-3.54-2.16-6.79-2.66-5.36-.27.76-1.13 1.91-1.56 3.1z" fill="#af6225"/><path d="m14.39 27a11.36 11.36 0 0 0 -.51 3.69 3.08 3.08 0 0 0 1.31 2.61c1 .45 3.62-1.75 3.34-4.09-.42-3.53-2.12-6.72-2.63-5.33-.26.77-1.09 1.96-1.51 3.12z" fill="#b06326"/><path d="m14.45 27.07a11.7 11.7 0 0 0 -.5 3.64 3 3 0 0 0 1.28 2.59c1 .45 3.57-1.78 3.29-4.08-.42-3.52-2.1-6.64-2.6-5.3-.27.72-1.06 1.95-1.47 3.15z" fill="#b16426"/><path d="m14.52 27.09a12.26 12.26 0 0 0 -.52 3.61 2.94 2.94 0 0 0 1.25 2.56c1 .46 3.51-1.81 3.24-4.06-.43-3.52-2.08-6.58-2.57-5.28-.26.72-1.01 1.97-1.4 3.17z" fill="#b26426"/><path d="m14.58 27.12a12.4 12.4 0 0 0 -.49 3.56 2.93 2.93 0 0 0 1.22 2.55c1 .45 3.46-1.85 3.19-4.06-.43-3.51-2.05-6.51-2.55-5.25-.28.71-.95 2-1.37 3.2z" fill="#b36526"/><path d="m14.64 27.16a12.94 12.94 0 0 0 -.48 3.52 2.84 2.84 0 0 0 1.19 2.52c1 .45 3.4-1.88 3.13-4.05-.43-3.5-2.24-6.5-2.51-5.22a16.73 16.73 0 0 0 -1.33 3.23z" fill="#b46627"/><path d="m14.71 27.18a13.23 13.23 0 0 0 -.47 3.49 2.73 2.73 0 0 0 1.14 2.49c1 .45 3.36-1.9 3.09-4-.47-3.53-2.22-6.48-2.47-5.23a15.45 15.45 0 0 0 -1.29 3.25z" fill="#b56627"/><path d="m14.77 27.21a13.44 13.44 0 0 0 -.46 3.44 2.72 2.72 0 0 0 1.11 2.48c1 .44 3.3-1.94 3-4-.42-3.52-2.17-6.41-2.42-5.2a14.56 14.56 0 0 0 -1.23 3.28z" fill="#b66727"/><path d="m14.83 27.23a14.93 14.93 0 0 0 -.45 3.41 2.64 2.64 0 0 0 1.08 2.45c1 .44 3.24-2 3-4-.46-3.51-2.2-6.33-2.46-5.16a13.83 13.83 0 0 0 -1.17 3.3z" fill="#b76827"/><path d="m14.89 27.26a15.9 15.9 0 0 0 -.44 3.36 2.59 2.59 0 0 0 1.05 2.44c1 .43 3.19-2 2.93-4-.43-3.5-2.16-6.26-2.43-5.13a13.72 13.72 0 0 0 -1.11 3.33z" fill="#b86827"/><path d="m15 27.29a15.62 15.62 0 0 0 -.44 3.32c0 .94.26 2.08 1 2.41 1 .44 3.13-2 2.88-4-.44-3.47-2.14-6.17-2.37-5.08a12.83 12.83 0 0 0 -1.07 3.35z" fill="#b86928"/><path d="m15 27.31a17 17 0 0 0 -.42 3.29c0 .93.22 2 1 2.38 1 .44 3.08-2.06 2.83-4-.44-3.47-2.12-6.11-2.34-5.06a12.41 12.41 0 0 0 -1.07 3.39z" fill="#b96a28"/><path d="m15.09 27.34a17.57 17.57 0 0 0 -.42 3.24c-.05.93.19 2 .95 2.37 1 .43 3-2.1 2.78-4-.44-3.46-2.1-6-2.31-5a11.52 11.52 0 0 0 -1 3.39z" fill="#ba6a28"/><path d="m15.15 27.37a19.22 19.22 0 0 0 -.41 3.2c-.05.91.15 2 .92 2.34 1 .43 3-2.13 2.73-4-.45-3.45-2.08-6-2.29-5-.46.56-.69 2.27-.95 3.46z" fill="#bb6b28"/><path d="m15.21 27.39a21.45 21.45 0 0 0 -.4 3.17c-.05.9.12 2 .88 2.31 1 .43 2.92-2.16 2.69-4-.45-3.44-2.06-5.9-2.26-5-.47.59-.66 2.34-.91 3.52z" fill="#bc6c28"/><path d="m15.28 27.42a22.68 22.68 0 0 0 -.39 3.12c-.06.9.08 2 .84 2.3 1 .42 2.87-2.19 2.63-4-.44-3.44-2-5.84-2.22-4.94-.48.55-.62 2.34-.86 3.52z" fill="#bd6c29"/><path d="m15.34 27.44a24.43 24.43 0 0 0 -.34 3.09c-.06.88 0 1.93.81 2.27 1 .42 2.81-2.22 2.58-3.95-.45-3.43-2-5.77-2.19-4.91-.53.5-.63 2.33-.86 3.5z" fill="#be6d29"/><path d="m15.41 27.47a28.89 28.89 0 0 0 -.38 3c-.07.88 0 1.92.78 2.25 1 .43 2.76-2.25 2.53-3.94-.45-3.42-2-5.7-2.17-4.88-.49.52-.55 2.39-.76 3.57z" fill="#bf6e29"/><path d="m15.47 27.5c-.19 1.13-.29 2.14-.36 3s0 1.89.75 2.23c1 .42 2.69-2.29 2.47-3.94-.45-3.41-2-5.63-2.14-4.85-.5.47-.52 2.38-.72 3.56z" fill="#c06e29"/><path d="m15.54 27.52c-.19 1.13-.28 2.13-.36 3s0 1.86.72 2.2c1 .42 2.64-2.31 2.42-3.92-.45-3.41-1.95-5.57-2.11-4.83-.51.43-.48 2.38-.67 3.55z" fill="#c16f2a"/><path d="m15.6 27.55c-.17 1.13-.26 2.11-.34 2.92s-.09 1.85.68 2.18c1 .42 2.59-2.34 2.37-3.91-.46-3.4-1.93-5.5-2.08-4.8-.52.45-.45 2.44-.63 3.61z" fill="#c2702a"/><path d="m15.67 27.58c-.16 1.13-.26 2.09-.34 2.88s-.12 1.82.65 2.16c.95.41 2.54-2.38 2.33-3.91-.47-3.39-1.92-5.43-2.06-4.77-.53.44-.41 2.47-.58 3.64z" fill="#c3702a"/><path d="m15.74 27.6c-.15 1.14-.25 2.08-.33 2.85s-.16 1.79.61 2.13c.95.42 2.48-2.4 2.28-3.89-.47-3.39-1.89-5.37-2-4.75-.56.43-.41 2.5-.56 3.66z" fill="#c4712a"/><path d="m15.81 27.63c-.14 1.14-.23 2.07-.33 2.8s-.19 1.78.59 2.12c.94.41 2.42-2.44 2.22-3.89-.47-3.38-1.87-5.3-2-4.72-.54.41-.29 2.52-.48 3.69z" fill="#c5722a"/><path d="m15.88 27.66c-.13 1.13-.22 2.05-.32 2.76s-.23 1.75.55 2.09c.94.41 2.37-2.47 2.17-3.88-.47-3.37-1.85-5.23-2-4.68-.52.39-.28 2.54-.4 3.71z" fill="#c6722b"/><path d="m16 27.68c-.12 1.14-.21 2-.31 2.73s-.26 1.72.52 2.06c.93.41 2.31-2.49 2.12-3.87-.48-3.36-1.83-5.16-1.94-4.65-.61.38-.33 2.57-.39 3.73z" fill="#c7732b"/><path d="m16 27.71c-.11 1.14-.2 2-.3 2.68s-.3 1.71.48 2c.93.4 2.26-2.53 2.07-3.86-.47-3.36-1.81-5.1-1.9-4.63-.56.42-.23 2.65-.35 3.81z" fill="#c8742b"/><path d="m16.09 27.74c-.09 1.14-.19 2-.29 2.64s-.34 1.68.45 2 2.2-2.56 2-3.85c-.48-3.35-1.79-5-1.88-4.6-.56.38-.19 2.65-.28 3.81z" fill="#c9742b"/><path d="m16.16 27.77c-.08 1.14-.18 2-.28 2.6s-.37 1.65.42 2 2.15-2.59 2-3.84c-.49-3.35-1.77-5-1.85-4.58-.62.35-.21 2.66-.29 3.82z" fill="#ca752c"/><path d="m16.23 27.79a22.34 22.34 0 0 1 -.23 2.57c-.14.76-.41 1.63.38 2s2.1-2.62 1.92-3.83c-.49-3.34-1.75-4.9-1.82-4.55-.63.31-.18 2.66-.25 3.81z" fill="#cb762c"/><path d="m16.3 27.82a17.46 17.46 0 0 1 -.3 2.52c-.15.75-.44 1.61.35 2s2-2.66 1.87-3.83c-.49-3.32-1.73-4.82-1.79-4.51-.57.28-.07 2.67-.13 3.82z" fill="#cc762c"/><path d="m16.38 27.85a16.29 16.29 0 0 1 -.26 2.48c-.15.74-.47 1.59.32 1.93s2-2.68 1.82-3.81c-.5-3.32-1.71-4.76-1.77-4.49-.61.31-.07 2.74-.11 3.89z" fill="#cd772c"/><path d="m16.45 27.88a13.48 13.48 0 0 1 -.25 2.44c-.16.73-.51 1.56.29 1.91s1.93-2.72 1.76-3.81c-.5-3.31-1.68-4.69-1.73-4.46-.62.3-.04 2.77-.07 3.92z" fill="#ce782c"/><path d="m16.57 27.92a12 12 0 0 1 -.24 2.4c-.17.72-.54 1.54.25 1.89s1.88-2.75 1.72-3.8c-.51-3.3-1.67-4.62-1.71-4.43-.59.28 0 2.79-.02 3.94z" fill="#cf782d"/><path d="m16.63 28a10.24 10.24 0 0 1 -.23 2.36c-.17.71-.57 1.52.22 1.86s1.82-2.77 1.67-3.78c-.51-3.3-1.65-4.56-1.68-4.41-.61.22.03 2.77.02 3.97z" fill="#d0792d"/><path d="m16.7 28a9.32 9.32 0 0 1 -.22 2.32c-.19.7-.62 1.49.18 1.84s1.77-2.81 1.62-3.78c-.52-3.29-1.63-4.49-1.65-4.38-.63.24.07 2.83.07 4z" fill="#d17a2d"/><path d="m16.76 28a8 8 0 0 1 -.21 2.28c-.19.69-.65 1.47.15 1.82s1.71-2.84 1.57-3.77c-.52-3.28-1.61-4.42-1.62-4.35-.65.25.1 2.88.11 4.02z" fill="#d27a2d"/><path d="m16.83 28a7.73 7.73 0 0 1 -.2 2.24c-.21.68-.69 1.45.11 1.8s1.66-2.87 1.52-3.77c-.53-3.27-1.58-4.27-1.59-4.27-.67.22.13 2.88.16 4z" fill="#d37b2e"/><path d="m16.89 28.06a6.5 6.5 0 0 1 -.19 2.2c-.21.66-.72 1.42.09 1.77s1.59-2.9 1.46-3.75c-.53-3.28-1.56-4.28-1.56-4.28-.69.21.17 2.91.2 4.06z" fill="#d47c2e"/><path d="m18.49 22.61c-2.12 5.84-4.78 5.79-8 4.64s-5.91-3-3.79-8.81 6.5-9.65 9.76-8.5 4.15 6.83 2.03 12.67z" fill="url(#e)"/><path d="m19.08 12.8a8.76 8.76 0 0 1 .84 7.2c-.91 2.93-2.45 3.39-4.5 3-.75-.15-1.64-1.11-.4-5.12s1.11-5.35 1.63-5.93 1.75-.2 2.43.85z" fill="#c12026"/><path d="m19.06 12.8a8.64 8.64 0 0 1 .84 7.2c-.9 3-2.45 3.42-4.48 3-.74-.15-1.6-1.09-.37-5.08s1.1-5.3 1.62-5.9 1.71-.25 2.39.78z" fill="#c22126"/><path d="m19 12.79a8.58 8.58 0 0 1 .89 7.21c-.92 3-2.45 3.4-4.47 3-.74-.15-1.56-1.08-.33-5.05s1.08-5.26 1.59-5.87 1.68-.3 2.32.71z" fill="#c32126"/><path d="m19 12.79a8.52 8.52 0 0 1 .87 7.21c-.92 3-2.44 3.39-4.45 3-.73-.15-1.52-1.07-.3-5s1.07-5.21 1.57-5.83 1.65-.37 2.31.62z" fill="#c42126"/><path d="m19 12.78a8.43 8.43 0 0 1 .85 7.22c-.91 3-2.43 3.39-4.43 3-.72-.15-1.48-1.05-.27-5 1.17-3.79 1.06-5.17 1.56-5.8s1.61-.39 2.29.58z" fill="#c52126"/><path d="m19 12.78a8.38 8.38 0 0 1 .84 7.22c-.92 3-2.43 3.39-4.42 3-.72-.15-1.45-1-.23-5 1.15-3.74 1-5.13 1.53-5.77s1.58-.41 2.28.55z" fill="#c62126"/><path d="m19 12.77a8.31 8.31 0 0 1 .82 7.23c-.92 3-2.43 3.38-4.4 2.95-.71-.15-1.41-1-.2-4.93 1.14-3.68 1-5.07 1.51-5.73s1.55-.45 2.27.48z" fill="#c72126"/><path d="m19 12.77a8.26 8.26 0 0 1 .81 7.23c-.93 3-2.43 3.38-4.39 3-.71-.15-1.37-1-.17-4.9 1.12-3.63 1-5 1.5-5.7s1.51-.55 2.25.37z" fill="#c82126"/><path d="m18.93 12.77a8.15 8.15 0 0 1 .86 7.23c-.93 3-2.42 3.38-4.37 2.95-.7-.16-1.33-1-.13-4.87 1.1-3.57 1-5 1.47-5.68s1.48-.53 2.17.37z" fill="#c82126"/><path d="m18.92 12.76a8.1 8.1 0 0 1 .85 7.24c-.93 3-2.41 3.39-4.35 2.94-.69-.15-1.29-1-.1-4.84 1.09-3.51 1-4.94 1.45-5.64s1.45-.58 2.15.3z" fill="#c92126"/><path d="m18.87 12.7c1.31 1.63 1.71 4.44.86 7.21-.94 3-2.41 3.39-4.34 2.94-.69-.16-1.26-1-.07-4.81 1.07-3.46 1-4.9 1.43-5.61s1.42-.59 2.12.27z" fill="#ca2126"/><path d="m18.85 12.7c1.31 1.59 1.72 4.41.86 7.2-.94 3-2.41 3.38-4.32 2.93-.69-.16-1.22-.95 0-4.78 1.06-3.41 1-4.85 1.41-5.57s1.35-.63 2.05.22z" fill="#cb2126"/><path d="m18.83 12.69c1.32 1.56 1.73 4.4.86 7.2-.94 3.05-2.4 3.38-4.3 2.93-.68-.17-1.18-.94 0-4.76 1-3.35 1-4.8 1.39-5.54s1.35-.66 2.05.17z" fill="#cc2126"/><path d="m18.81 12.68c1.33 1.53 1.74 4.38.86 7.2-.94 3.06-2.4 3.38-4.28 2.92-.68-.16-1.15-.92 0-4.72 1-3.3.94-4.76 1.37-5.51s1.34-.7 2.05.11z" fill="#cd2126"/><path d="m18.79 12.67c1.33 1.5 1.74 4.36.86 7.2-.94 3.07-2.39 3.38-4.26 2.91-.67-.16-1.11-.91.06-4.69 1-3.24.93-4.71 1.35-5.48s1.28-.73 1.99.06z" fill="#ce2126"/><path d="m18.77 12.67c1.34 1.46 1.75 4.33.87 7.19-.95 3.08-2.39 3.38-4.26 2.91-.66-.17-1.06-.9.1-4.66 1-3.19.92-4.67 1.33-5.45s1.25-.77 1.96.01z" fill="#cf2126"/><path d="m18.75 12.66c1.35 1.43 1.76 4.32.87 7.19-.95 3.09-2.39 3.38-4.24 2.9-.66-.17-1-.88.13-4.63 1-3.13.91-4.62 1.31-5.41s1.18-.8 1.93-.05z" fill="#d02226"/><path d="m18.73 12.65c1.36 1.41 1.77 4.3.87 7.19-1 3.1-2.38 3.38-4.22 2.89-.65-.16-1-.86.16-4.59.95-3.08.9-4.58 1.29-5.39s1.17-.83 1.9-.1z" fill="#d12226"/><path d="m18.71 12.65c1.36 1.37 1.78 4.27.87 7.19-.95 3.1-2.37 3.37-4.2 2.88-.65-.17-1-.85.19-4.57.94-3 .89-4.53 1.27-5.35s1.16-.87 1.87-.15z" fill="#d22226"/><path d="m18.69 12.64c1.37 1.34 1.78 4.26.88 7.19-1 3.11-2.38 3.37-4.19 2.88-.64-.18-.92-.84.23-4.54.91-3 .87-4.48 1.25-5.32s1.14-.91 1.83-.21z" fill="#d32226"/><path d="m18.68 12.64c1.37 1.31 1.78 4.23.87 7.18-1 3.12-2.37 3.36-4.17 2.87-.64-.17-.88-.82.26-4.51.9-2.91.86-4.43 1.23-5.28s1.13-.9 1.81-.26z" fill="#d42226"/><path d="m18.66 12.63c1.38 1.28 1.79 4.22.87 7.18-1 3.13-2.36 3.36-4.15 2.87-.63-.18-.84-.81.29-4.48.89-2.86.85-4.39 1.21-5.26s1.06-.94 1.78-.31z" fill="#d52226"/><path d="m18.64 12.63c1.39 1.25 1.8 4.19.88 7.17-1 3.14-2.36 3.37-4.14 2.86-.63-.17-.8-.79.33-4.45.86-2.8.83-4.34 1.18-5.22s1.03-.99 1.75-.36z" fill="#d62226"/><path d="m18.62 12.62c1.4 1.22 1.81 4.18.88 7.18s-2.35 3.36-4.12 2.85c-.62-.18-.76-.78.36-4.42.85-2.75.82-4.29 1.17-5.19s.99-1.04 1.71-.42z" fill="#d72226"/><path d="m18.6 12.62c1.41 1.18 1.82 4.16.89 7.17-1 3.16-2.36 3.36-4.11 2.85-.61-.18-.73-.77.39-4.39.84-2.7.81-4.25 1.15-5.16s.96-1.09 1.68-.47z" fill="#d82226"/><path d="m18.59 12.62c1.41 1.15 1.82 4.13.88 7.16s-2.35 3.36-4.09 2.85c-.61-.18-.69-.76.43-4.36.81-2.65.8-4.21 1.12-5.13s.93-1.14 1.66-.52z" fill="#d92226"/><path d="m18.57 12.61c1.42 1.13 1.83 4.12.89 7.17s-2.35 3.36-4.08 2.83c-.6-.18-.65-.74.46-4.33.8-2.58.79-4.15 1.11-5.09s.9-1.19 1.62-.58z" fill="#da2226"/><path d="m18.55 12.61c1.43 1.09 1.84 4.1.89 7.16s-2.34 3.36-4.06 2.83c-.59-.18-.61-.73.49-4.3.79-2.53.78-4.11 1.09-5.06s.87-1.18 1.59-.63z" fill="#db2226"/><path d="m18.54 12.61c1.43 1.06 1.84 4.07.89 7.16s-2.34 3.35-4 2.82c-.59-.18-.57-.71.53-4.27.76-2.48.77-4.06 1.06-5s.79-1.25 1.52-.71z" fill="#dc2226"/><path d="m18.52 12.61c1.44 1 1.85 4.05.89 7.15s-2.33 3.36-4 2.82c-.59-.19-.54-.7.55-4.24.75-2.42.76-4 1-5s.83-1.25 1.56-.73z" fill="#dd2226"/><path d="m18.5 12.61c1.45 1 1.86 4 .9 7.15s-2.33 3.35-4 2.81c-.58-.19-.5-.69.59-4.21a49.59 49.59 0 0 0 1-5c.29-.94.78-1.26 1.51-.75z" fill="#de2226"/><path d="m18.49 12.6c1.45 1 1.87 4 .89 7.15s-2.32 3.36-4 2.81c-.57-.19-.46-.67.62-4.18a45 45 0 0 0 1-4.93c.28-.99.76-1.33 1.49-.85z" fill="#df2326"/><path d="m18.47 12.6c1.46.93 1.88 4 .9 7.15s-2.32 3.35-4 2.8c-.57-.19-.42-.66.66-4.15a42.56 42.56 0 0 0 1-4.9c.26-1 .71-1.36 1.44-.9z" fill="#e02326"/><path d="m18.46 12.6c1.46.9 1.88 4 .9 7.15s-2.32 3.35-4 2.79c-.57-.19-.39-.64.68-4.12a38.78 38.78 0 0 0 1-4.87c.26-1.01.68-1.4 1.42-.95z" fill="#e12326"/><path d="m18.47 12.65c1.48.87 1.89 4 .9 7.14s-2.31 3.35-3.94 2.79c-.56-.19-.35-.63.72-4.09a38.92 38.92 0 0 0 1-4.84c.18-1.01.59-1.43 1.32-1z" fill="#e22326"/><path d="m18.46 12.65c1.48.83 1.89 3.93.9 7.14s-2.31 3.35-3.93 2.77c-.55-.19-.31-.61.76-4a37.19 37.19 0 0 0 .92-4.81c.23-1.08.61-1.52 1.35-1.1z" fill="#e32326"/><path d="m18.44 12.64c1.49.8 1.9 3.92.9 7.14s-2.3 3.35-3.91 2.77c-.55-.19-.27-.6.79-4a34.1 34.1 0 0 0 .9-4.77c.22-1.07.58-1.53 1.32-1.14z" fill="#e42326"/><path d="m18.42 12.64c1.5.77 1.91 3.89.91 7.13s-2.3 3.35-3.9 2.77c-.54-.2-.23-.59.82-4a33.43 33.43 0 0 0 .89-4.74c.2-1.05.54-1.54 1.28-1.16z" fill="#e52326"/><path d="m18.4 12.63c1.51.74 1.92 3.88.91 7.14s-2.31 3.34-3.88 2.75c-.53-.19-.19-.57.86-4a33.14 33.14 0 0 0 .86-4.71c.19-1.02.51-1.54 1.25-1.18z" fill="#e62326"/><path d="m18.39 12.63c1.51.7 1.92 3.85.9 7.13s-2.29 3.34-3.86 2.75c-.53-.2-.15-.56.89-3.94a29.45 29.45 0 0 0 .84-4.67c.19-1.07.49-1.61 1.23-1.27z" fill="#e72326"/><path d="m18.37 12.63c1.52.66 1.93 3.83.91 7.12s-2.28 3.34-3.85 2.75c-.52-.2-.12-.55.92-3.91a27.69 27.69 0 0 0 .82-4.59c.18-1.13.46-1.7 1.2-1.37z" fill="#e82326"/><path d="m18.35 12.62c1.53.64 1.94 3.81.91 7.12s-2.26 3.34-3.83 2.74c-.52-.2-.08-.53.95-3.87a28 28 0 0 0 .81-4.61c.17-1.09.42-1.69 1.16-1.38z" fill="#e92326"/><path d="m19.25 19.74c-1 3.32-2.28 3.34-3.82 2.73-.51-.2 0-.52 1-3.85s.38-6.61 1.91-6 1.94 3.79.91 7.12z" fill="#ea2326"/><path d="m16.84 21.83c-3.19.72-7.18-.49-8.92-2.7a3.48 3.48 0 0 1 -.78-1.85 2.84 2.84 0 0 0 0 3.91c1.73 2.21 5.72 3.41 8.91 2.69 2.3-.52 3.54-1.89 3.42-3.44a5.25 5.25 0 0 1 -2.63 1.39z" fill="url(#f)"/><path d="m20.78 5.59a2.34 2.34 0 0 1 -1.94-.87c-.25-.29-.75-1.2-1-1.2a3.3 3.3 0 0 0 -3.41 0 4.2 4.2 0 0 0 -1.79 4.95c.44 1.76 2.58 2.74 4.79 2.19 1.57-.39 2-1.19 2-2.25a2.71 2.71 0 0 0 .37-1 2.15 2.15 0 0 0 1.54-.7.67.67 0 0 0 -.56-1.12z" fill="#fdc791"/><path d="m21.07 6.38a2.12 2.12 0 0 1 -1.45.62.11.11 0 0 0 -.1.12.1.1 0 0 0 .12.09 2.26 2.26 0 0 0 1.62-.75.1.1 0 0 0 0-.14.11.11 0 0 0 -.19.06z" fill="#f9ab7d"/><path d="m18.84 6.42a3.08 3.08 0 0 0 .5-1.23 2.16 2.16 0 0 1 -.5-.47c-.23-.27-.7-1.09-.95-1.19a1.71 1.71 0 0 1 -.22.58c-1 1.56-3.44 3-5.19 2.7a5.65 5.65 0 0 0 .17 1.64 2.72 2.72 0 0 0 .19.5 2.79 2.79 0 0 0 .69.16 6.26 6.26 0 0 0 5.31-2.69z" fill="#f9ab7d"/><g fill="none"><path d="m16 20.91-2.54-1.81z"/><path d="m12.52 20.25.94-1.15z"/><path d="m12.52 20.25.94-1.15z"/><path d="m12.52 20.25.94-1.15z"/></g><path d="m17.87 26.15c-.76-.88-.52-1.3-.05-1.71s1-.66 1.76.22 1 1.92.54 2.33-1.48.01-2.25-.84z" fill="url(#g)"/><path d="m14.64 15.69c1.18-3.11 2.25-3.18 3.51-2.7s2.22 1.32 1.05 4.42-3.15 5.24-4.41 4.77-1.32-3.39-.15-6.49z" fill="#871719"/><path d="m15.1 21.46c-.23-2.69.47-3.11 1.48-3.2s1.94.2 2.17 2.88-.39 4.93-1.4 5-2.01-2-2.25-4.68z" fill="#ea2326"/><path d="m14.93 15.75c.52-3 1.54-3.22 2.84-3s2.4.83 1.89 3.81-2 5.22-3.31 5-1.94-2.83-1.42-5.81z" fill="url(#h)"/><path d="m18.07 16.4c.37-2.14.64-2.39.95-2.34s.53.39.15 2.53-.92 3.83-1.22 3.78-.25-1.83.12-3.97z" fill="#f06567"/><path d="m20.9 24.44c-.19-1.1 0-1.28.31-1.34s.6 0 .79 1.15.1 2-.2 2.08-.71-.79-.9-1.89z" fill="#f06567"/><path d="m19.36 9.15a3.88 3.88 0 0 1 -.6.5 6.51 6.51 0 0 1 -5.6.53 2.7 2.7 0 0 1 -.38-.21c-.91.93-.7 2 .6 2.62a6.51 6.51 0 0 0 5.6-.54c1.41-.92 1.53-2.15.38-2.9z" fill="url(#i)"/><path d="m17.21 11c3.76-1.74.55-1.34.08-3.22s.19-2.65-2-2.11-3.78 2.33-3.29 4.16 3.19 2.17 5.21 1.17z" fill="url(#j)"/><path d="m21.24 8.49c1.92 1.71 2.87 3.76 2.13 4.6s-2.38.3-4.08-.95c-.25-.19.18-.51.46-1.05a1.36 1.36 0 0 0 .08-1.18c-.15-.16 0 2.15-2.66 1-.69-.3.62-.87 1.17-1.49.74-.84.98-2.63 2.9-.93z" fill="#849da8"/><path d="m21.31 8.16c2.07 1.83 3.15 4 2.4 4.84s-2.47.21-4.3-1.15c-.26-.2.17-.51.45-1.07a1.42 1.42 0 0 0 0-1.22c-.16-.16.06 2.24-2.74.94-.73-.34.61-.88 1.16-1.5.77-.84.96-2.68 3.03-.84z" fill="url(#k)"/><path d="m17.88 2.77a4.19 4.19 0 0 0 -1.82-1.77 2.74 2.74 0 0 0 -1.84-.87c-2-.38-3.82.12-4 1.11-.1.56.34 1.16 1.11 1.64a4.08 4.08 0 0 0 .29 3.19c1 1.91 2.68 1.35 4.42.44s2.84-1.83 1.84-3.74z" fill="url(#l)"/><path d="m12.16 1.54a3.71 3.71 0 0 0 -.95 3.46 5.68 5.68 0 0 0 1-2c.23-.83.16-1.23-.05-1.46z" fill="#871719"/><path d="m15.38 2.92c.95.93 1.34.89 1.71.66s.56-.58-.39-1.48-2.02-1.5-2.38-1.27.11 1.17 1.06 2.09z" fill="#f06769"/><path d="m12 2.57c-.36 1-1.28 1-2.23.66s-1.58-1-1.21-2 1.28-1 2.23-.65 1.56 1.04 1.21 1.99z" fill="#a6a49e"/><path d="m12 2.57c-.36 1-1.26 1-2.21.65s-1.56-1-1.2-2 1.27-1 2.21-.63 1.52 1.03 1.2 1.98z" fill="#a9a7a1"/><path d="m11.92 2.56c-.36.95-1.24 1-2.18.66s-1.55-1-1.19-2 1.24-1 2.19-.62 1.54 1.02 1.18 1.96z" fill="#aba9a4"/><path d="m11.89 2.56c-.36.94-1.21 1-2.15.65s-1.54-1-1.18-2 1.22-1 2.16-.6 1.53 1.01 1.17 1.95z" fill="#aeaca7"/><path d="m11.86 2.55c-.36.93-1.19 1-2.12.66s-1.53-1-1.17-2 1.2-.91 2.13-.55 1.52.96 1.16 1.89z" fill="#b0afa9"/><path d="m11.83 2.55c-.36.92-1.17 1-2.1.65s-1.51-1-1.15-2 1.18-.88 2.11-.52 1.5.94 1.14 1.87z" fill="#b3b1ac"/><path d="m11.8 2.54c-.36.92-1.14 1-2.07.66s-1.5-1-1.14-2 1.16-.86 2.08-.5 1.48.92 1.13 1.84z" fill="#b6b4af"/><path d="m11.77 2.53c-.36.92-1.12 1-2 .66s-1.49-1-1.13-2 1.1-.82 2.01-.47 1.47.9 1.12 1.81z" fill="#b8b7b2"/><path d="m11.73 2.53c-.35.91-1.09 1-2 .66s-1.48-1-1.12-2 1.12-.84 2-.49 1.48.92 1.12 1.83z" fill="#bbb9b5"/><path d="m11.7 2.52c-.35.91-1.07 1-2 .66s-1.47-1-1.12-1.95 1.1-.82 2-.47 1.47.86 1.12 1.76z" fill="#bebcb8"/><path d="m11.67 2.52c-.35.9-1 1-1.95.66s-1.45-1.05-1.1-1.95 1.08-.8 2-.45 1.38.84 1.05 1.74z" fill="#c0bfbb"/><path d="m11.64 2.51c-.35.9-1 1-1.92.66s-1.44-1-1.09-1.94 1.06-.78 2-.43 1.37.81 1.01 1.71z" fill="#c3c1bd"/><path d="m11.61 2.51c-.35.89-1 1-1.89.66s-1.42-1-1.08-1.94 1-.76 1.93-.41 1.43.79 1.04 1.69z" fill="#c5c4c0"/><path d="m11.58 2.5c-.35.89-1 1-1.86.66s-1.41-1-1.07-1.93 1-.74 1.91-.39 1.36.77 1.02 1.66z" fill="#c8c7c3"/><path d="m11.55 2.5c-.34.88-1 1-1.84.66s-1.39-1.05-1.05-1.93 1-.72 1.88-.38 1.35.76 1.01 1.65z" fill="#cbc9c6"/><path d="m11.52 2.49c-.34.88-.93 1-1.81.66a1.44 1.44 0 0 1 -1-1.92c.34-.88 1-.7 1.85-.36s1.3.74.96 1.62z" fill="#cdccc9"/><path d="m11.49 2.48c-.34.88-.91 1-1.78.67a1.45 1.45 0 0 1 -1-1.92c.29-.88.92-.68 1.8-.34s1.31.72.98 1.59z" fill="#d0cfcc"/><path d="m11.45 2.48c-.33.87-.87 1-1.74.66a1.45 1.45 0 0 1 -1-1.91c.29-.87.91-.65 1.78-.32s1.3.7.96 1.57z" fill="#d2d1ce"/><path d="m11.42 2.47c-.33.87-.85 1-1.72.67a1.44 1.44 0 0 1 -1-1.91c.3-.87.91-.63 1.77-.3s1.29.68.95 1.54z" fill="#d5d4d1"/><path d="m11.39 2.47c-.33.86-.83 1-1.69.66a1.43 1.43 0 0 1 -1-1.91c.3-.85.9-.6 1.76-.22s1.26.61.93 1.47z" fill="#d8d7d4"/><path d="m11.36 2.46c-.33.86-.81 1-1.66.67a1.44 1.44 0 0 1 -1-1.91c.3-.85.89-.58 1.74-.22s1.25.61.92 1.46z" fill="#dadad7"/><path d="m11.33 2.46c-.33.84-.78 1-1.63.66a1.42 1.42 0 0 1 -1-1.9c.33-.85.86-.56 1.7-.23s1.26.62.93 1.47z" fill="#dddcda"/><path d="m11.3 2.45c-.33.84-.76 1-1.61.67a1.42 1.42 0 0 1 -1-1.9c.37-.84.87-.54 1.72-.22s1.21.61.89 1.45z" fill="#e0dfdd"/><path d="m11.27 2.45c-.33.83-.74 1-1.58.66a1.41 1.41 0 0 1 -.95-1.89c.32-.84.81-.52 1.65-.22s1.2.61.88 1.45z" fill="#e2e2e0"/><path d="m11.24 2.44c-.33.83-.72 1-1.55.67a1.41 1.41 0 0 1 -.94-1.89c.32-.83.79-.5 1.63-.17s1.18.56.86 1.39z" fill="#e5e4e2"/><path d="m11.21 2.43c-.33.83-.69 1-1.52.67a1.4 1.4 0 0 1 -.93-1.88c.32-.83.77-.48 1.6-.15s1.17.53.85 1.36z" fill="#e7e7e5"/><path d="m11.17 2.43c-.32.82-.66 1-1.48.67a1.41 1.41 0 0 1 -.93-1.88c.32-.83.76-.46 1.58-.14s1.15.52.83 1.35z" fill="#eaeae8"/><path d="m11.14 2.42c-.31.82-.64 1-1.46.67a1.4 1.4 0 0 1 -.91-1.87c.32-.82.74-.43 1.56-.12s1.13.5.81 1.32z" fill="#edeceb"/><path d="m11.11 2.42c-.31.81-.61 1-1.43.66a1.39 1.39 0 0 1 -.9-1.86c.32-.82.72-.41 1.53-.1s1.12.48.8 1.3z" fill="#efefee"/><path d="m11.08 2.41c-.31.81-.59 1-1.4.67a1.39 1.39 0 0 1 -.89-1.86c.31-.81.69-.39 1.5-.08s1.1.46.79 1.27z" fill="#f2f2f1"/><path d="m11.05 2.41c-.31.8-.57 1-1.37.66a1.37 1.37 0 0 1 -.88-1.85c.31-.81.67-.37 1.48-.06s1.08.44.77 1.25z" fill="#f5f4f4"/><path d="m11 2.4c-.31.8-.55 1-1.35.67a1.37 1.37 0 0 1 -.86-1.85c.31-.81.65-.35 1.45 0s1.09.38.76 1.18z" fill="#f7f7f6"/><path d="m11 2.39c-.31.8-.52 1-1.32.67a1.37 1.37 0 0 1 -.85-1.85c.3-.79.63-.32 1.42 0s1.04.39.75 1.18z" fill="#fafaf9"/><path d="m11 2.39c-.31.79-.5 1-1.29.67a1.37 1.37 0 0 1 -.84-1.85c.3-.79.61-.3 1.4 0s.99.39.73 1.18z" fill="#fcfcfc"/><path d="m10.92 2.38c-.3.79-.47 1-1.25.67a1.37 1.37 0 0 1 -.84-1.84c.31-.78.6-.28 1.38 0s1.02.39.71 1.17z" fill="#fff"/><path d="m17.29 7.82c-.3-1.19-.17-2.19-.58-2.63a4.37 4.37 0 0 1 -3.39 1.42c-.32.55-1.22 1-1.33 1.88a4.12 4.12 0 0 0 1.54.62 5.89 5.89 0 0 0 3.79-1.11z" fill="#fff"/><path d="m17.84 2.64c.12.2-.07.79-.24 1-1.13 1.7-3.9 3.23-5.69 2.69-.17 0-.18-.21-.33-.25a1.83 1.83 0 0 0 1.76 2.62 6.53 6.53 0 0 0 5.44-2.7c1.02-1.54.55-3-.94-3.36z" fill="url(#m)"/><path d="m15.41 26.19c-.08-1.45.68-1.69 1.74-1.75s2 .08 2.11 1.53-.71 2.69-1.77 2.75-2-1.07-2.08-2.53z" fill="url(#n)"/><path d="m18.78 23.31a2.36 2.36 0 0 1 -.32.31 2.44 2.44 0 0 1 -2.8 0 1.54 1.54 0 0 1 -.19-.17 1.22 1.22 0 0 0 .21 1.83 2.46 2.46 0 0 0 2.8-.05 1.27 1.27 0 0 0 .3-1.92z" fill="#871719"/><path d="m18.83 23.15a2.31 2.31 0 0 1 -.32.45 2 2 0 0 1 -2.88.11 2.35 2.35 0 0 1 -.19-.25 2.29 2.29 0 0 0 .27 2.66 1.94 1.94 0 0 0 2.89-.12 2.34 2.34 0 0 0 .23-2.85z" fill="url(#o)"/></svg>