<svg xmlns="http://www.w3.org/2000/svg" xmlns:xlink="http://www.w3.org/1999/xlink" viewBox="0 0 23.85 39.54"><defs><style>.cls-1{fill:url(#linear-gradient);}.cls-2{fill:url(#linear-gradient-2);}.cls-3{fill:url(#linear-gradient-3);}.cls-4{fill:url(#Neues_Verlaufsfeld_11);}.cls-5{fill:#1a171a;}.cls-6{fill:url(#linear-gradient-4);}.cls-7{fill:url(#linear-gradient-5);}.cls-8{fill:#385056;}.cls-9{fill:#171a1a;}.cls-10{fill:#4c6166;}.cls-11{fill:#fff;}.cls-12{fill:#871719;}.cls-13{fill:url(#linear-gradient-6);}.cls-14{fill:#c12026;}.cls-15{fill:#c22126;}.cls-16{fill:#c32126;}.cls-17{fill:#c42126;}.cls-18{fill:#c52126;}.cls-19{fill:#c62126;}.cls-20{fill:#c72126;}.cls-21{fill:#c82126;}.cls-22{fill:#c92126;}.cls-23{fill:#ca2126;}.cls-24{fill:#cb2126;}.cls-25{fill:#cc2126;}.cls-26{fill:#cd2126;}.cls-27{fill:#ce2126;}.cls-28{fill:#cf2126;}.cls-29{fill:#d02226;}.cls-30{fill:#d12226;}.cls-31{fill:#d22226;}.cls-32{fill:#d32226;}.cls-33{fill:#d42226;}.cls-34{fill:#d52226;}.cls-35{fill:#d62226;}.cls-36{fill:#d72226;}.cls-37{fill:#d82226;}.cls-38{fill:#d92226;}.cls-39{fill:#da2226;}.cls-40{fill:#db2226;}.cls-41{fill:#dc2226;}.cls-42{fill:#dd2226;}.cls-43{fill:#de2226;}.cls-44{fill:#df2326;}.cls-45{fill:#e02326;}.cls-46{fill:#e12326;}.cls-47{fill:#e22326;}.cls-48{fill:#e32326;}.cls-49{fill:#e42326;}.cls-50{fill:#e52326;}.cls-51{fill:#e62326;}.cls-52{fill:#e72326;}.cls-53{fill:#e82326;}.cls-54{fill:#e92326;}.cls-55{fill:#ea2326;}.cls-56{fill:none;}.cls-57{fill:#f06567;}.cls-58{fill:url(#Neues_Verlaufsfeld_14);}.cls-59{fill:url(#Neues_Verlaufsfeld_11-2);}.cls-60{fill:url(#linear-gradient-7);}.cls-61{fill:url(#linear-gradient-8);}.cls-62{fill:url(#linear-gradient-9);}.cls-63{fill:url(#Neues_Verlaufsfeld_11-3);}.cls-64{fill:url(#linear-gradient-10);}.cls-65{fill:url(#linear-gradient-11);}.cls-66{fill:url(#Neues_Verlaufsfeld_14-2);}.cls-67{fill:url(#linear-gradient-12);}.cls-68{fill:url(#linear-gradient-13);}.cls-69{fill:url(#linear-gradient-14);}.cls-70{fill:#fdc791;}.cls-71{fill:#fdc893;}.cls-72{fill:#fdc996;}.cls-73{fill:#fdca98;}.cls-74{fill:#fdcb9a;}.cls-75{fill:#fdcc9c;}.cls-76{fill:#fdcd9e;}.cls-77{fill:#fdcea1;}.cls-78{fill:#fdd0a3;}.cls-79{fill:#fdd1a5;}.cls-80{fill:#fdd2a7;}.cls-81{fill:#fdd3a9;}.cls-82{fill:#fdd4ac;}.cls-83{fill:#fdd5ae;}.cls-84{fill:#fdd6b0;}.cls-85{fill:#fdd8b2;}.cls-86{fill:#fdd9b4;}.cls-87{fill:#fedab7;}.cls-88{fill:#fedbb9;}.cls-89{fill:#fedcbb;}.cls-90{fill:#feddbd;}.cls-91{fill:#fedebf;}.cls-92{fill:url(#linear-gradient-15);}.cls-93{fill:url(#linear-gradient-16);}.cls-94{fill:url(#linear-gradient-17);}.cls-95{fill:#c7c8c9;}.cls-96{fill:#c9cacb;}.cls-97{fill:#cbcccd;}.cls-98{fill:#cdcecf;}.cls-99{fill:#d0d0d1;}.cls-100{fill:#d2d3d3;}.cls-101{fill:#d4d5d5;}.cls-102{fill:#d6d7d8;}.cls-103{fill:#d8d9da;}.cls-104{fill:#dadbdc;}.cls-105{fill:#ddddde;}.cls-106{fill:#dfdfe0;}.cls-107{fill:#e1e1e2;}.cls-108{fill:#e3e3e4;}.cls-109{fill:#e5e6e6;}.cls-110{fill:#e7e8e8;}.cls-111{fill:#e9eaea;}.cls-112{fill:#ececec;}.cls-113{fill:#eee;}.cls-114{fill:#f0f0f0;}.cls-115{fill:#f2f2f3;}.cls-116{fill:#f4f4f5;}.cls-117{fill:#f6f7f7;}.cls-118{fill:#f9f9f9;}.cls-119{fill:#fbfbfb;}.cls-120{fill:#fdfdfd;}.cls-121{fill:url(#linear-gradient-18);}.cls-122{fill:#d47c2e;}.cls-123{fill:url(#linear-gradient-19);}</style><linearGradient id="linear-gradient" x1="27.69" y1="48.89" x2="34.08" y2="48.89" gradientTransform="translate(-26.25 -29.77) scale(0.96 0.95)" gradientUnits="userSpaceOnUse"><stop offset="0.49" stop-color="#c12026"/><stop offset="0.8" stop-color="#871719"/></linearGradient><linearGradient id="linear-gradient-2" x1="-332.9" y1="230.7" x2="-328.25" y2="235.35" gradientTransform="matrix(-0.35, 0.94, 0.94, 0.35, -331.49, 251.62)" gradientUnits="userSpaceOnUse"><stop offset="0.33" stop-color="#a6a49e"/><stop offset="0.78" stop-color="#62615f"/></linearGradient><linearGradient id="linear-gradient-3" x1="-210.69" y1="434.59" x2="-207.63" y2="437.65" gradientTransform="matrix(0.62, 0.66, 0.78, -0.53, -208.69, 391.4)" gradientUnits="userSpaceOnUse"><stop offset="0.16" stop-color="#a6a49e"/><stop offset="0.96" stop-color="#62615f"/></linearGradient><linearGradient id="Neues_Verlaufsfeld_11" x1="-67.54" y1="4.4" x2="-73.59" y2="4.4" gradientTransform="matrix(-1, 0, 0, 1, -67.89, 16.12)" gradientUnits="userSpaceOnUse"><stop offset="0.01" stop-color="#a6a49e"/><stop offset="0.39" stop-color="#fff"/><stop offset="0.83" stop-color="#a6a49e"/></linearGradient><linearGradient id="linear-gradient-4" x1="-3.88" y1="-32.69" x2="0.9" y2="-32.69" gradientTransform="translate(10.18 59.77) scale(0.96 0.88)" gradientUnits="userSpaceOnUse"><stop offset="0.04" stop-color="#4c6166"/><stop offset="0.47" stop-color="#385056"/><stop offset="0.99" stop-color="#171a1a"/></linearGradient><linearGradient id="linear-gradient-5" x1="33.43" y1="47.28" x2="41.43" y2="47.28" gradientTransform="translate(-25.02 -8.98) scale(0.96 0.88)" gradientUnits="userSpaceOnUse"><stop offset="0.01" stop-color="#fff"/><stop offset="0.7" stop-color="#4c6166"/><stop offset="1" stop-color="#171a1a"/></linearGradient><linearGradient id="linear-gradient-6" x1="0.05" y1="-93.39" x2="5.86" y2="-93.39" gradientTransform="translate(9.76 94.92) scale(0.96 0.71)" gradientUnits="userSpaceOnUse"><stop offset="0" stop-color="#c12026"/><stop offset="0.38" stop-color="#d41f26"/><stop offset="0.74" stop-color="#871719"/></linearGradient><linearGradient id="Neues_Verlaufsfeld_14" x1="-238.2" y1="-12.11" x2="-223.82" y2="-12.11" gradientTransform="matrix(-0.99, 0, 0, 1, -217.77, 34.42)" gradientUnits="userSpaceOnUse"><stop offset="0.09" stop-color="#e2e0d9"/><stop offset="0.45" stop-color="#fff"/><stop offset="1" stop-color="#a6a49e"/></linearGradient><linearGradient id="Neues_Verlaufsfeld_11-2" x1="-256.54" y1="-45.04" x2="-248.16" y2="-45.04" gradientTransform="matrix(-0.83, 0, 0, 0.9, -198.76, 52.07)" xlink:href="#Neues_Verlaufsfeld_11"/><linearGradient id="linear-gradient-7" x1="-329.38" y1="119.13" x2="-323.56" y2="119.13" gradientTransform="matrix(-0.73, 0.7, 0.78, 0.75, -315.3, 154.32)" gradientUnits="userSpaceOnUse"><stop offset="0" stop-color="#c12026"/><stop offset="0.48" stop-color="#d41f26"/><stop offset="0.97" stop-color="#ea2326"/></linearGradient><linearGradient id="linear-gradient-8" x1="-359.08" y1="245.99" x2="-356.03" y2="249.04" gradientTransform="matrix(-0.23, 0.88, 0.86, 0.38, -284.84, 242.26)" xlink:href="#linear-gradient-3"/><linearGradient id="linear-gradient-9" x1="-339.76" y1="159.87" x2="-335.11" y2="164.53" gradientTransform="matrix(-0.54, 0.8, 0.83, 0.47, -306.96, 215.89)" xlink:href="#linear-gradient-2"/><linearGradient id="Neues_Verlaufsfeld_11-3" x1="183.61" y1="235.02" x2="188.06" y2="239.47" gradientTransform="matrix(0.5, -0.61, -0.61, -0.72, 65.3, 306.48)" xlink:href="#Neues_Verlaufsfeld_11"/><linearGradient id="linear-gradient-10" x1="28.41" y1="51.62" x2="33.69" y2="51.62" gradientTransform="translate(-22.63 -43.7)" gradientUnits="userSpaceOnUse"><stop offset="0" stop-color="#e2e0d9"/><stop offset="0.15" stop-color="#fff"/><stop offset="0.32" stop-color="#e2e0d9"/></linearGradient><linearGradient id="linear-gradient-11" x1="32.45" y1="46.42" x2="32.45" y2="56.67" gradientTransform="translate(-22.63 -43.7)" gradientUnits="userSpaceOnUse"><stop offset="0.55" stop-color="#fdc791"/><stop offset="0.78" stop-color="#f9ab7d"/></linearGradient><linearGradient id="Neues_Verlaufsfeld_14-2" x1="31.92" y1="52.26" x2="39.58" y2="50.2" gradientTransform="translate(-23.31 -43.01)" xlink:href="#Neues_Verlaufsfeld_14"/><linearGradient id="linear-gradient-12" x1="27.06" y1="53.22" x2="34.68" y2="54.56" gradientTransform="translate(-22.43 -40.43)" gradientUnits="userSpaceOnUse"><stop offset="0" stop-color="#e2e0d9"/><stop offset="0.45" stop-color="#fff"/><stop offset="1" stop-color="#a6a49e"/></linearGradient><linearGradient id="linear-gradient-13" x1="29.75" y1="53.79" x2="36.29" y2="53.79" gradientTransform="translate(-22.63 -43.7)" gradientUnits="userSpaceOnUse"><stop offset="0" stop-color="#e2e0d9"/><stop offset="0.29" stop-color="#efede9"/><stop offset="0.69" stop-color="#fbfaf9"/><stop offset="1" stop-color="#fff"/></linearGradient><linearGradient id="linear-gradient-14" x1="-147.07" y1="-52.21" x2="-140.29" y2="-52.21" gradientTransform="matrix(0.97, 0.39, -0.7, 0.8, 110.62, 108.34)" gradientUnits="userSpaceOnUse"><stop offset="0" stop-color="#e2e0d9"/><stop offset="0.3" stop-color="#fff"/><stop offset="1" stop-color="#e5e4e2"/></linearGradient><linearGradient id="linear-gradient-15" x1="-303.12" y1="3.62" x2="-296.82" y2="3.62" gradientTransform="matrix(-0.95, 0.37, 0.4, 0.78, -275.67, 113.11)" gradientUnits="userSpaceOnUse"><stop offset="0.37" stop-color="#ea2326"/><stop offset="0.66" stop-color="#c12026"/></linearGradient><linearGradient id="linear-gradient-16" x1="35" y1="60.8" x2="46.12" y2="60.8" gradientTransform="matrix(1.02, -0.06, 0.06, 1.03, -34.67, -53.87)" gradientUnits="userSpaceOnUse"><stop offset="0.09" stop-color="#e2e0d9"/><stop offset="0.45" stop-color="#fff"/><stop offset="0.69" stop-color="#eae9ea"/><stop offset="0.92" stop-color="#a6a49e"/></linearGradient><linearGradient id="linear-gradient-17" x1="27.87" y1="68.75" x2="30.27" y2="64.59" gradientTransform="translate(-22.63 -43.7)" gradientUnits="userSpaceOnUse"><stop offset="0" stop-color="#a6a49e"/><stop offset="0.7" stop-color="#fff"/><stop offset="1" stop-color="#a6a49e"/></linearGradient><linearGradient id="linear-gradient-18" x1="-657.61" y1="-384.37" x2="-652.43" y2="-370.14" gradientTransform="matrix(0.01, 0.3, -0.25, 0.03, -66.04, 233.74)" gradientUnits="userSpaceOnUse"><stop offset="0.23" stop-color="#d47c2e"/><stop offset="0.61" stop-color="#9b5521"/><stop offset="1" stop-color="#5e3919"/></linearGradient><linearGradient id="linear-gradient-19" x1="197.65" y1="-146.4" x2="202.83" y2="-132.17" gradientTransform="matrix(-0.32, -0.95, -0.75, 0.21, -22.41, 251.59)" gradientUnits="userSpaceOnUse"><stop offset="0.07" stop-color="#d47c2e"/><stop offset="0.43" stop-color="#9b5521"/><stop offset="0.99" stop-color="#5e3919"/></linearGradient></defs><title>Asset 1</title><g id="Layer_2" data-name="Layer 2"><g id="Layer_1-2" data-name="Layer 1"><path class="cls-1" d="M8.19,11.41C7.1,10.77,5.92,10.52,4.42,13A9.63,9.63,0,0,0,3.14,16.2a3.45,3.45,0,0,0-1,1.52c-.8,2-.81,4,0,4.47S4.22,21.34,5,19.32c.12-.31.21-.58.28-.83a8.44,8.44,0,0,0,3.08-3.17C9.88,12.86,9.29,12.06,8.19,11.41Z"/><path class="cls-2" d="M3.81,23.41c.71-1.27.12-1.82-.81-2.34s-1.86-.81-2.57.47-.53,2.74.41,3.25S3.1,24.69,3.81,23.41Z"/><path class="cls-3" d="M3.94,22.86c0-1.17-.47-1.32-1.1-1.31s-1.18.16-1.17,1.33S2.19,25,2.82,25,3.94,24,3.94,22.86Z"/><path class="cls-4" d="M1.86,18.44A2.54,2.54,0,0,0,2,19,2,2,0,0,0,4.5,20.33l.28-.14a2.29,2.29,0,0,1-1.4,2.28A2,2,0,0,1,.83,21.12,2.34,2.34,0,0,1,1.86,18.44Z"/><path class="cls-5" d="M7.71,32.11c1.39-.63,2-.41,2.56-.08s.71.66-.68,1.29a9.15,9.15,0,0,1-1.06.4,3.16,3.16,0,0,1-1.24,1,2.58,2.58,0,0,1-2.77,0c-.61-.4-.6-1.34.79-2C5.84,32.46,7.48,32.21,7.71,32.11Z"/><path class="cls-6" d="M10.21,27.52c-.76-.4-2.62.06-3.5.52-.61.32-.4,2.21,0,3.46h0c-.22.1-.92.27-1.45.51-1.39.63-1.4,1.83-.79,2.23a2.54,2.54,0,0,0,2.75.06,3.16,3.16,0,0,0,1.24-1c.32-.1.64-.22.95-.35a5.17,5.17,0,0,0,1.07-.5c.31-.2.53-.94.53-2.74A3.6,3.6,0,0,0,10.21,27.52Z"/><path class="cls-5" d="M13.28,34.87c1.28-.78.84-1.15.16-1.44a2.47,2.47,0,0,0-2.63.38,5.68,5.68,0,0,0-.81.6c-.76.15-1.5-.2-2,.11-1.28.79-.85,1.65,0,2a4,4,0,0,0,3.44-.5Z"/><path class="cls-7" d="M14.31,29.09a5.24,5.24,0,0,0-3.3.37c-.64.33-1,2.31-.89,3.53A8.9,8.9,0,0,0,8,33.87c-1.28.79-.77,1.81,0,2.16a3.72,3.72,0,0,0,3.35-.42l1.9-1.15c.56-.34.79-.6.82-.81C14.87,32.87,15.42,29.44,14.31,29.09Z"/><path class="cls-8" d="M10,29.08a3.58,3.58,0,0,1-3,.11c-.76-.4-.67-1.1.21-1.56a3.6,3.6,0,0,1,3-.11C11,27.92,10.87,28.62,10,29.08Z"/><path class="cls-9" d="M9.76,28.87a3.12,3.12,0,0,1-2.6.1c-.66-.35-.58-1,.19-1.37a3.14,3.14,0,0,1,2.59-.1C10.61,27.85,10.52,28.47,9.76,28.87Z"/><path class="cls-10" d="M7.72,32.32c.11.21.31.34.4.09A9.67,9.67,0,0,0,8.17,30c-.11-.21-.49-.32-.59-.15A8.1,8.1,0,0,0,7.72,32.32Z"/><path class="cls-10" d="M14.09,30.66a3.58,3.58,0,0,1-3,.11c-.76-.4-.67-1.1.21-1.57a3.6,3.6,0,0,1,3-.11C15.07,29.49,15,30.19,14.09,30.66Z"/><path class="cls-11" d="M12.41,34c-.15.21-.39.34-.47.11a9.56,9.56,0,0,1,.36-2.54c.15-.21.32-.13.42,0A6.56,6.56,0,0,1,12.41,34Z"/><path class="cls-9" d="M13.92,30.46a3.1,3.1,0,0,1-2.59.1c-.67-.35-.59-1,.18-1.37a3.16,3.16,0,0,1,2.6-.09C14.77,29.45,14.69,30.06,13.92,30.46Z"/><path class="cls-12" d="M5.91,26.49c0-1.45,1-1.64,2.47-1.64s2.71.19,2.71,1.64a2.59,2.59,0,1,1-5.18,0Z"/><path class="cls-13" d="M10,28c0-1.45,1-1.65,2.47-1.65s2.7.2,2.7,1.65A2.59,2.59,0,1,1,10,28Z"/><path class="cls-14" d="M17.47,21.59c0,6.39-2.79,7.24-6.64,7.24S3.54,28,3.54,21.59,6.66,10,10.51,10,17.47,15.21,17.47,21.59Z"/><path class="cls-15" d="M17.35,21.62c0,6.35-2.76,7.21-6.56,7.21s-7.2-.86-7.2-7.21S6.67,10.1,10.47,10.1,17.35,15.26,17.35,21.62Z"/><path class="cls-16" d="M17.23,21.64c0,6.33-2.73,7.18-6.48,7.18S3.64,28,3.64,21.64s3-11.47,6.79-11.47S17.23,15.31,17.23,21.64Z"/><path class="cls-17" d="M17.11,21.66c0,6.31-2.7,7.15-6.4,7.15s-7-.84-7-7.15,3-11.42,6.71-11.42S17.11,15.35,17.11,21.66Z"/><path class="cls-18" d="M17,21.68c0,6.28-2.65,7.13-6.31,7.13S3.74,28,3.74,21.68s3-11.37,6.62-11.37S17,15.4,17,21.68Z"/><path class="cls-19" d="M16.86,21.7c0,6.26-2.62,7.1-6.23,7.1S3.79,28,3.79,21.7s2.93-11.32,6.54-11.32S16.86,15.45,16.86,21.7Z"/><path class="cls-20" d="M16.74,21.73c0,6.23-2.59,7.06-6.15,7.06S3.85,28,3.85,21.73s2.88-11.28,6.44-11.28S16.74,15.5,16.74,21.73Z"/><path class="cls-21" d="M16.62,21.75c0,6.2-2.56,7-6.07,7S3.9,28,3.9,21.75s2.84-11.23,6.36-11.23S16.62,15.55,16.62,21.75Z"/><path class="cls-21" d="M16.49,21.77c0,6.18-2.51,7-6,7S4,28,4,21.77s2.81-11.18,6.27-11.18S16.49,15.59,16.49,21.77Z"/><path class="cls-22" d="M16.37,21.79c0,6.15-2.48,7-5.9,7S4,27.94,4,21.79s2.77-11.14,6.19-11.14S16.37,15.64,16.37,21.79Z"/><path class="cls-23" d="M16.25,21.81c0,6.13-2.45,7-5.82,7s-6.38-.82-6.38-7,2.73-11.09,6.1-11.09S16.25,15.69,16.25,21.81Z"/><path class="cls-24" d="M16.13,21.84c0,6.1-2.42,6.92-5.74,6.92S4.1,27.94,4.1,21.84s2.69-11,6-11S16.13,15.74,16.13,21.84Z"/><path class="cls-25" d="M16,21.86c0,6.07-2.38,6.89-5.66,6.89s-6.2-.82-6.2-6.89,2.66-11,5.93-11S16,15.78,16,21.86Z"/><path class="cls-26" d="M15.88,21.88c0,6.05-2.34,6.86-5.57,6.86S4.2,27.93,4.2,21.88,6.82,10.93,10,10.93,15.88,15.83,15.88,21.88Z"/><path class="cls-27" d="M15.76,21.9c0,6-2.31,6.84-5.48,6.84s-6-.81-6-6.84S6.83,11,10,11,15.76,15.88,15.76,21.9Z"/><path class="cls-28" d="M15.64,21.92c0,6-2.27,6.81-5.4,6.81s-5.93-.81-5.93-6.81S6.84,11.07,10,11.07,15.64,15.93,15.64,21.92Z"/><path class="cls-29" d="M15.52,22c0,6-2.24,6.77-5.32,6.77S4.36,27.92,4.36,22s2.5-10.82,5.58-10.82S15.52,16,15.52,22Z"/><path class="cls-30" d="M15.39,22c0,5.94-2.2,6.74-5.23,6.74S4.41,27.91,4.41,22,6.87,11.2,9.9,11.2,15.39,16,15.39,22Z"/><path class="cls-31" d="M15.27,22c0,5.92-2.17,6.72-5.15,6.72S4.46,27.91,4.46,22,6.88,11.27,9.87,11.27,15.27,16.07,15.27,22Z"/><path class="cls-32" d="M15.15,22c0,5.9-2.13,6.69-5.07,6.69S4.51,27.91,4.51,22,6.89,11.34,9.83,11.34,15.15,16.12,15.15,22Z"/><path class="cls-33" d="M15,22c0,5.86-2.1,6.65-5,6.65S4.56,27.9,4.56,22,6.91,11.41,9.8,11.41,15,16.17,15,22Z"/><path class="cls-34" d="M14.91,22.06c0,5.84-2.07,6.63-4.91,6.63s-5.39-.79-5.39-6.63S6.92,11.48,9.76,11.48,14.91,16.21,14.91,22.06Z"/><path class="cls-35" d="M14.78,22.08c0,5.82-2,6.6-4.82,6.6s-5.29-.78-5.29-6.6S6.93,11.55,9.72,11.55,14.78,16.26,14.78,22.08Z"/><path class="cls-36" d="M14.66,22.1c0,5.79-2,6.57-4.74,6.57s-5.2-.78-5.2-6.57,2.22-10.49,5-10.49S14.66,16.31,14.66,22.1Z"/><path class="cls-37" d="M14.54,22.12c0,5.77-2,6.54-4.66,6.54s-5.11-.77-5.11-6.54S7,11.68,9.65,11.68,14.54,16.36,14.54,22.12Z"/><path class="cls-38" d="M14.42,22.15c0,5.74-1.93,6.51-4.58,6.51s-5-.77-5-6.51S7,11.75,9.62,11.75,14.42,16.41,14.42,22.15Z"/><path class="cls-39" d="M14.29,22.17c0,5.71-1.89,6.48-4.49,6.48s-4.93-.77-4.93-6.48S7,11.82,9.58,11.82,14.29,16.45,14.29,22.17Z"/><path class="cls-40" d="M14.17,22.19c0,5.69-1.85,6.45-4.41,6.45s-4.84-.76-4.84-6.45S7,11.89,9.55,11.89,14.17,16.5,14.17,22.19Z"/><path class="cls-41" d="M14.05,22.21c0,5.66-1.82,6.43-4.33,6.43S5,27.87,5,22.21,7,12,9.51,12,14.05,16.55,14.05,22.21Z"/><path class="cls-42" d="M13.93,22.23c0,5.64-1.79,6.4-4.25,6.4S5,27.87,5,22.23,7,12,9.48,12,13.93,16.6,13.93,22.23Z"/><path class="cls-43" d="M13.81,22.26c0,5.61-1.76,6.36-4.17,6.36s-4.56-.75-4.56-6.36S7,12.1,9.44,12.1,13.81,16.64,13.81,22.26Z"/><path class="cls-44" d="M13.68,22.28c0,5.58-1.71,6.33-4.08,6.33s-4.47-.75-4.47-6.33S7,12.16,9.41,12.16,13.68,16.69,13.68,22.28Z"/><path class="cls-45" d="M13.56,22.3c0,5.56-1.68,6.31-4,6.31s-4.38-.75-4.38-6.31S7.05,12.23,9.37,12.23,13.56,16.74,13.56,22.3Z"/><path class="cls-46" d="M13.44,22.32c0,5.54-1.65,6.28-3.91,6.28s-4.3-.74-4.3-6.28,1.84-10,4.1-10S13.44,16.79,13.44,22.32Z"/><path class="cls-47" d="M13.32,22.34c0,5.51-1.62,6.25-3.83,6.25s-4.21-.74-4.21-6.25,1.8-10,4-10S13.32,16.84,13.32,22.34Z"/><path class="cls-48" d="M13.19,22.37c0,5.48-1.57,6.22-3.74,6.22s-4.12-.74-4.12-6.22,1.76-9.93,3.93-9.93S13.19,16.88,13.19,22.37Z"/><path class="cls-49" d="M13.07,22.39c0,5.46-1.54,6.19-3.66,6.19s-4-.73-4-6.19,1.72-9.88,3.85-9.88S13.07,16.93,13.07,22.39Z"/><path class="cls-50" d="M13,22.41c0,5.43-1.51,6.16-3.58,6.16s-3.94-.73-3.94-6.16,1.69-9.83,3.76-9.83S13,17,13,22.41Z"/><path class="cls-51" d="M12.83,22.43c0,5.41-1.48,6.13-3.5,6.13s-3.84-.72-3.84-6.13,1.64-9.79,3.67-9.79S12.83,17,12.83,22.43Z"/><path class="cls-52" d="M12.71,22.46c0,5.37-1.44,6.1-3.42,6.1s-3.75-.73-3.75-6.1,1.6-9.75,3.58-9.75S12.71,17.07,12.71,22.46Z"/><path class="cls-53" d="M12.58,22.48c0,5.35-1.4,6.07-3.33,6.07s-3.66-.72-3.66-6.07,1.56-9.7,3.5-9.7S12.58,17.12,12.58,22.48Z"/><path class="cls-54" d="M12.46,22.5c0,5.33-1.37,6-3.25,6s-3.57-.71-3.57-6,1.53-9.65,3.41-9.65S12.46,17.17,12.46,22.5Z"/><path class="cls-55" d="M12.34,22.52c0,5.3-1.33,6-3.17,6s-3.48-.72-3.48-6,1.49-9.6,3.33-9.6S12.34,17.22,12.34,22.52Z"/><path class="cls-56" d="M10.86,20.88l-.35-1.45Z"/><path class="cls-56" d="M10.86,20.88l-.35-1.45Z"/><path class="cls-56" d="M10.86,20.88l-.35-1.45Z"/><path class="cls-57" d="M12.55,19.09c-.61-4.73-.82-5.46-1.83-5.33s-.62,1.41,0,6.14.13,8.11,1.14,8S13.17,23.82,12.55,19.09Z"/><path class="cls-58" d="M5.56,21.4c3.06,1.79,7.68,2,10.32.44a3.76,3.76,0,0,0,1.52-1.53c.63,1.37.15,2.8-1.52,3.77-2.64,1.55-7.26,1.35-10.32-.43-2.2-1.29-2.45-2.52-1.91-4.16A3.85,3.85,0,0,0,5.56,21.4Z"/><path class="cls-59" d="M7.39,9.83a2.51,2.51,0,0,0,.53.39,4.94,4.94,0,0,0,4.65,0c.11-.07.21-.15.3-.22a1.4,1.4,0,0,1-.3,2.4,4.94,4.94,0,0,1-4.65,0C6.69,11.7,6.5,10.6,7.39,9.83Z"/><path class="cls-55" d="M16.7,22.14C19,20.69,18.88,19.87,18.34,19s-1.33-1.42-3.61,0-3.67,3.31-3.13,4.17S14.43,23.58,16.7,22.14Z"/><path class="cls-60" d="M17.19,14.82c-1.68-2.75-2.78-2.68-4-2.06s-2.07,1.53-.39,4.29,4,4.49,5.22,3.87S18.87,17.58,17.19,14.82Z"/><path class="cls-57" d="M15,15.47c-1.06-1.89-1.39-2-1.66-1.89S13,14.12,14,16s2.14,3.31,2.41,3.16S16.07,17.37,15,15.47Z"/><path class="cls-61" d="M11.14,23.63c1-.63.86-1.1.53-1.62s-.78-.92-1.76-.29-1.5,1.57-1.17,2.1S10.15,24.26,11.14,23.63Z"/><path class="cls-62" d="M13.25,23.92c1-1.05.52-1.64-.26-2.27s-1.63-1-2.6,0-1.11,2.41-.32,3S12.28,25,13.25,23.92Z"/><path class="cls-63" d="M12.91,24.15a2.65,2.65,0,0,0,.05-.5,2.43,2.43,0,0,0-1.66-2.43,2,2,0,0,0-.24,0c-.08-.49.49-.89,1.62-1.22.9-.27,2.44,1.47,2.44,2.62S13.71,24.17,12.91,24.15Z"/><path class="cls-64" d="M9.83,4.69C6.68,4.61,6.39,5.35,5.77,7A3.41,3.41,0,0,0,8.1,11.1c1.59.41,1.84-1.21,2.46-2.86S11.52,4.74,9.83,4.69Z"/><path class="cls-65" d="M6.65,6.6c-.53,2.14-.07,4.88,1.8,5.2s4.08-1.32,4.61-3.45-.57-4.13-2.44-4.45A3.28,3.28,0,0,0,6.65,6.6Z"/><path class="cls-66" d="M12.72,11.05c-2.86-.45-.79-1.12-1.15-3.12s-1-2.53.45-2.72a3.27,3.27,0,0,1,3.43,2.93A2.36,2.36,0,0,1,12.72,11.05Z"/><path class="cls-67" d="M5.85,11.32c.8-3.65.64-.85,2.4-.82s3.37-1.22,3.32.78S8.88,17,7.11,17,5.42,13.28,5.85,11.32Z"/><path class="cls-68" d="M8,9.83c.11-.21,1.36,2.8,4.06,1.06.7-.45-1.34-1.08-2.43-1.83C8.19,8,8,9.94,8,9.83Z"/><path class="cls-69" d="M8.15,9.72c0-.21-1.71,1.73-3.2-.57-.39-.6,1.25-.39,2.23-.6C8.51,8.25,8.16,9.82,8.15,9.72Z"/><path class="cls-70" d="M7.52,8.42c-.51.85-.26,1.16.13,1.31s.89.08,1.4-.77a1.47,1.47,0,0,0-.43-2C8.23,6.87,8,7.58,7.52,8.42Z"/><path class="cls-70" d="M7.52,8.42c-.51.85-.26,1.16.13,1.31s.89.08,1.4-.77-.42-1.1-.8-1.25S8,7.58,7.52,8.42Z"/><path class="cls-71" d="M7.52,8.44c-.5.82-.26,1.13.13,1.28S8.53,9.8,9,9s-.4-1.06-.78-1.21S8,7.61,7.52,8.44Z"/><path class="cls-72" d="M7.52,8.45c-.49.81-.25,1.12.12,1.26S8.51,9.78,9,9,8.6,8,8.22,7.81,8,7.64,7.52,8.45Z"/><path class="cls-73" d="M7.52,8.47c-.48.79-.25,1.09.12,1.23S8.49,9.77,9,9s-.38-1-.75-1.12S8,7.67,7.52,8.47Z"/><path class="cls-74" d="M7.52,8.48c-.47.78-.24,1.07.12,1.21s.83.07,1.29-.71S8.56,8,8.2,7.91,8,7.7,7.52,8.48Z"/><path class="cls-75" d="M7.51,8.5c-.45.76-.23,1,.12,1.18s.82.07,1.28-.69-.37-.9-.72-1S8,7.74,7.51,8.5Z"/><path class="cls-76" d="M7.51,8.51c-.44.75-.22,1,.12,1.16s.8.07,1.25-.68-.36-.86-.7-1S8,7.77,7.51,8.51Z"/><path class="cls-77" d="M7.51,8.53c-.44.73-.22,1,.12,1.13s.78.06,1.22-.67-.34-.81-.68-.94S8,7.8,7.51,8.53Z"/><path class="cls-78" d="M7.51,8.54c-.43.71-.22,1,.12,1.11s.76.06,1.19-.65-.33-.77-.66-.9S7.94,7.83,7.51,8.54Z"/><path class="cls-79" d="M7.51,8.56c-.42.69-.21.95.11,1.08S8.37,9.7,8.79,9s-.32-.73-.65-.85S7.93,7.86,7.51,8.56Z"/><path class="cls-80" d="M7.51,8.57c-.41.68-.21.94.11,1.06s.73.06,1.14-.62-.31-.69-.63-.81S7.92,7.89,7.51,8.57Z"/><path class="cls-81" d="M7.51,8.59c-.4.66-.2.91.11,1s.71.06,1.12-.61-.31-.65-.62-.77S7.91,7.92,7.51,8.59Z"/><path class="cls-82" d="M7.51,8.6c-.39.65-.2.89.1,1s.7.05,1.1-.59-.3-.61-.6-.73S7.9,8,7.51,8.6Z"/><path class="cls-83" d="M7.51,8.62c-.38.63-.2.86.1,1s.68.06,1.07-.57-.29-.57-.58-.68S7.89,8,7.51,8.62Z"/><path class="cls-84" d="M7.51,8.63c-.37.62-.19.85.1.95s.66.06,1-.55-.27-.53-.56-.64S7.88,8,7.51,8.63Z"/><path class="cls-85" d="M7.51,8.65c-.37.59-.19.82.1.92s.65.06,1-.54-.26-.49-.54-.59S7.87,8.05,7.51,8.65Z"/><path class="cls-86" d="M7.51,8.66c-.36.58-.18.8.09.9s.64.06,1-.52-.25-.45-.53-.56S7.87,8.08,7.51,8.66Z"/><path class="cls-87" d="M7.51,8.68c-.35.56-.18.77.09.87s.62,0,1-.51-.24-.41-.51-.51S7.86,8.11,7.51,8.68Z"/><path class="cls-88" d="M7.51,8.69c-.34.55-.17.76.09.85s.6.05.94-.5S8.3,8.68,8,8.58,7.85,8.14,7.51,8.69Z"/><path class="cls-89" d="M7.51,8.71c-.33.53-.17.73.08.82s.59.05.92-.48S8.28,8.72,8,8.63,7.84,8.18,7.51,8.71Z"/><path class="cls-90" d="M7.51,8.72c-.32.52-.17.71.08.8s.57.05.89-.47S8.27,8.77,8,8.68,7.83,8.21,7.51,8.72Z"/><path class="cls-91" d="M7.51,8.74c-.31.5-.16.68.08.77s.55.05.86-.45-.2-.25-.44-.34S7.82,8.24,7.51,8.74Z"/><path class="cls-92" d="M6.55,4.78a3.24,3.24,0,0,1,.74-2.12c0-.39.38-.84,1.21-1.44C10.13.06,12-.34,12.63.31c.38.38.28,1-.17,1.71a3.26,3.26,0,0,1,1.32,2.51c.05,1.85-1.73,2.17-3.73,2.24S6.6,6.64,6.55,4.78Z"/><path class="cls-12" d="M11,1.38A3.5,3.5,0,0,1,13.6,3.55a6,6,0,0,1-1.89-1.08C11.11,2,11,1.65,11,1.38Z"/><path class="cls-55" d="M13.35.51c-1.55-.79-2-.5-2.45,0s-.55,1.15,1,1.94,3.12,1,3.52.44S14.9,1.3,13.35.51Z"/><path class="cls-93" d="M6.52,4.66c0,.21.45.57.73.69,1.85.77,5.08.72,6.41-.47.12-.11.06-.23.17-.33,1.13.8,1.08,1.92-.27,2.72a7.75,7.75,0,0,1-6.22.31C5.67,6.88,5.37,5.59,6.52,4.66Z"/><path class="cls-94" d="M7.1,25c.4.21.71.06.69-.32L7.71,22.6A1.45,1.45,0,0,0,7,21.53l-1.19-.62c-.4-.21-.71-.06-.7.32l.09,2.12a1.43,1.43,0,0,0,.75,1.07Z"/><path class="cls-95" d="M14.22,4.16a1.37,1.37,0,0,0,1.84-.38c.52-.54.71-1.16.07-1.59a1.37,1.37,0,0,0-1.84.38C13.77,3.12,13.58,3.73,14.22,4.16Z"/><path class="cls-96" d="M14.24,4.14A1.35,1.35,0,0,0,16,3.76c.52-.54.71-1.14.08-1.57a1.36,1.36,0,0,0-1.81.38C13.79,3.11,13.61,3.71,14.24,4.14Z"/><path class="cls-97" d="M14.26,4.11A1.33,1.33,0,0,0,16,3.73c.51-.53.69-1.11.08-1.53a1.34,1.34,0,0,0-1.78.37C13.82,3.1,13.64,3.69,14.26,4.11Z"/><path class="cls-98" d="M14.28,4.08A1.31,1.31,0,0,0,16,3.71c.51-.52.68-1.09.08-1.5a1.31,1.31,0,0,0-1.75.36C13.85,3.09,13.67,3.67,14.28,4.08Z"/><path class="cls-99" d="M14.3,4.06A1.29,1.29,0,0,0,16,3.68c.5-.51.67-1.06.08-1.47a1.29,1.29,0,0,0-1.72.36C13.87,3.08,13.7,3.65,14.3,4.06Z"/><path class="cls-100" d="M14.32,4c.58.4,1.19.13,1.68-.37s.66-1,.08-1.44a1.26,1.26,0,0,0-1.69.35C13.9,3.07,13.73,3.63,14.32,4Z"/><path class="cls-101" d="M14.34,4c.57.4,1.17.12,1.65-.37s.65-1,.08-1.41a1.26,1.26,0,0,0-1.67.34C13.93,3.06,13.76,3.61,14.34,4Z"/><path class="cls-102" d="M14.36,4c.56.38,1.15.11,1.62-.37s.64-1,.08-1.38a1.23,1.23,0,0,0-1.64.33C14,3.05,13.79,3.59,14.36,4Z"/><path class="cls-103" d="M14.38,4c.55.38,1.13.11,1.59-.37s.63-1,.08-1.35a1.21,1.21,0,0,0-1.61.33C14,3,13.82,3.57,14.38,4Z"/><path class="cls-104" d="M14.4,3.92c.54.38,1.1.1,1.56-.36s.61-1,.07-1.32a1.18,1.18,0,0,0-1.57.32C14,3,13.85,3.55,14.4,3.92Z"/><path class="cls-105" d="M14.42,3.9C15,4.26,15.5,4,16,3.53s.6-.92.07-1.28a1.14,1.14,0,0,0-1.54.31C14,3,13.89,3.53,14.42,3.9Z"/><path class="cls-106" d="M14.44,3.87c.52.36,1.06.08,1.49-.36s.6-.9.08-1.26a1.13,1.13,0,0,0-1.51.31C14.06,3,13.92,3.51,14.44,3.87Z"/><path class="cls-107" d="M14.46,3.84c.51.36,1,.08,1.46-.36s.59-.87.08-1.22a1.12,1.12,0,0,0-1.49.3C14.09,3,14,3.49,14.46,3.84Z"/><path class="cls-108" d="M14.48,3.82c.5.34,1,.07,1.43-.36s.58-.85.08-1.2a1.1,1.1,0,0,0-1.46.3C14.11,3,14,3.47,14.48,3.82Z"/><path class="cls-109" d="M14.5,3.79c.49.34,1,.06,1.4-.36s.57-.82.08-1.16a1.07,1.07,0,0,0-1.43.29C14.14,3,14,3.45,14.5,3.79Z"/><path class="cls-110" d="M14.52,3.76c.48.33,1,.06,1.37-.35s.55-.81.08-1.14a1,1,0,0,0-1.4.29C14.17,3,14,3.43,14.52,3.76Z"/><path class="cls-111" d="M14.54,3.74c.46.32,1,0,1.34-.36s.54-.78.08-1.1a1,1,0,0,0-1.37.27C14.2,3,14.07,3.41,14.54,3.74Z"/><path class="cls-112" d="M14.56,3.71c.45.32.92,0,1.31-.35s.53-.76.08-1.07a1,1,0,0,0-1.34.26C14.22,3,14.1,3.39,14.56,3.71Z"/><path class="cls-113" d="M14.58,3.68c.44.31.9,0,1.28-.35s.52-.73.07-1a1,1,0,0,0-1.31.26C14.25,2.94,14.13,3.38,14.58,3.68Z"/><path class="cls-114" d="M14.6,3.66c.43.3.88,0,1.25-.35s.51-.71.07-1a1,1,0,0,0-1.28.25C14.28,2.93,14.16,3.36,14.6,3.66Z"/><path class="cls-115" d="M14.62,3.63c.42.3.86,0,1.22-.35s.5-.68.07-1a.94.94,0,0,0-1.25.25C14.3,2.92,14.19,3.34,14.62,3.63Z"/><path class="cls-116" d="M14.64,3.61c.41.28.84,0,1.18-.35s.5-.66.08-.95a.91.91,0,0,0-1.22.24C14.33,2.91,14.22,3.32,14.64,3.61Z"/><path class="cls-117" d="M14.66,3.58c.4.28.81,0,1.15-.35s.48-.64.08-.92a.9.9,0,0,0-1.19.24C14.36,2.9,14.25,3.3,14.66,3.58Z"/><path class="cls-118" d="M14.68,3.55c.39.28.79,0,1.12-.34s.47-.62.08-.89a.88.88,0,0,0-1.16.23C14.38,2.89,14.28,3.28,14.68,3.55Z"/><path class="cls-119" d="M14.7,3.53c.38.26.77,0,1.09-.35s.46-.59.08-.86a.87.87,0,0,0-1.14.23C14.41,2.88,14.31,3.26,14.7,3.53Z"/><path class="cls-120" d="M14.72,3.5c.37.26.75,0,1.06-.34s.45-.57.08-.83a.83.83,0,0,0-1.11.22C14.44,2.87,14.34,3.24,14.72,3.5Z"/><path class="cls-11" d="M14.74,3.47c.36.25.72,0,1-.34s.44-.54.08-.79a.8.8,0,0,0-1.08.21C14.46,2.86,14.37,3.22,14.74,3.47Z"/><path class="cls-121" d="M18.31,27.9a8.38,8.38,0,0,0-2-1.14c-1.47-.4.49-1.45,1.3-1.89s1.61-.65,2.2.67.24,3.24-.32,2.53C19.26,27.76,18.78,28.21,18.31,27.9Z"/><path class="cls-122" d="M19.7,26.86a3.33,3.33,0,0,0-.2-.82c-.11-.23-.38-.61-.11-.69s.51,1,.53,1.3c.09,1.31,0,1.11,0,1.11S19.77,27.3,19.7,26.86Z"/><path class="cls-123" d="M16.68,29c-.87,1.4-3.89,1.54-3.89,4.36,0,4.92,2.65,5.72,5.53,6,3.3.38,5.4-.06,5.53-5S20.66,24,19.9,27C19.57,28.22,17.66,27.43,16.68,29Z"/><path class="cls-122" d="M21.33,30a12,12,0,0,1,.39,2.83c0,.86-.36,2.42.53,2.28s.32-3.65,0-4.75c-1.32-4.22-1.42-3.46-1.42-3.46S21,28.51,21.33,30Z"/></g></g></svg>